G04 Layer_Physical_Order=2*
G04 Layer_Color=16711680*
%FSLAX44Y44*%
%MOMM*%
G71*
G01*
G75*
%ADD10C,0.3810*%
%ADD11C,1.6510*%
%ADD12C,2.0320*%
%ADD13C,1.5748*%
%ADD14C,1.5000*%
%ADD15R,1.5000X1.5000*%
%ADD16R,1.5000X1.5000*%
%ADD17O,1.6510X1.5240*%
G04:AMPARAMS|DCode=18|XSize=1.524mm|YSize=1.651mm|CornerRadius=0.381mm|HoleSize=0mm|Usage=FLASHONLY|Rotation=270.000|XOffset=0mm|YOffset=0mm|HoleType=Round|Shape=RoundedRectangle|*
%AMROUNDEDRECTD18*
21,1,1.5240,0.8890,0,0,270.0*
21,1,0.7620,1.6510,0,0,270.0*
1,1,0.7620,-0.4445,-0.3810*
1,1,0.7620,-0.4445,0.3810*
1,1,0.7620,0.4445,0.3810*
1,1,0.7620,0.4445,-0.3810*
%
%ADD18ROUNDEDRECTD18*%
%ADD19R,1.6510X1.6510*%
%ADD20R,1.6510X1.6510*%
%ADD21C,1.5080*%
%ADD22R,1.5080X1.5080*%
%ADD23C,0.8890*%
G36*
X1779793Y5827D02*
X5827D01*
Y1396253D01*
X1779793D01*
Y5827D01*
D02*
G37*
%LPC*%
G36*
X812742Y201930D02*
X801370D01*
Y190558D01*
X803415Y190827D01*
X806505Y192107D01*
X809158Y194142D01*
X811193Y196795D01*
X812473Y199885D01*
X812742Y201930D01*
D02*
G37*
G36*
X226060Y203200D02*
X214688D01*
X214957Y201155D01*
X216237Y198065D01*
X218272Y195412D01*
X220925Y193377D01*
X224015Y192097D01*
X226060Y191828D01*
Y203200D01*
D02*
G37*
G36*
X365760Y221054D02*
X362772Y220760D01*
X359900Y219888D01*
X357252Y218473D01*
X354931Y216569D01*
X353027Y214248D01*
X351612Y211600D01*
X350741Y208728D01*
X350446Y205740D01*
X350741Y202752D01*
X351612Y199880D01*
X353027Y197232D01*
X354931Y194911D01*
X357252Y193007D01*
X359900Y191592D01*
X362772Y190721D01*
X365760Y190426D01*
X368748Y190721D01*
X371620Y191592D01*
X374268Y193007D01*
X376589Y194911D01*
X378493Y197232D01*
X379908Y199880D01*
X380779Y202752D01*
X381074Y205740D01*
X380779Y208728D01*
X379908Y211600D01*
X378493Y214248D01*
X376589Y216569D01*
X374268Y218473D01*
X371620Y219888D01*
X368748Y220760D01*
X365760Y221054D01*
D02*
G37*
G36*
X798830Y201930D02*
X787458D01*
X787727Y199885D01*
X789007Y196795D01*
X791042Y194142D01*
X793695Y192107D01*
X796785Y190827D01*
X798830Y190558D01*
Y201930D01*
D02*
G37*
G36*
X239972Y203200D02*
X228600D01*
Y191828D01*
X230645Y192097D01*
X233735Y193377D01*
X236388Y195412D01*
X238423Y198065D01*
X239703Y201155D01*
X239972Y203200D01*
D02*
G37*
G36*
X415290Y204470D02*
X403918D01*
X404187Y202425D01*
X405467Y199335D01*
X407502Y196682D01*
X410155Y194647D01*
X413245Y193367D01*
X415290Y193098D01*
Y204470D01*
D02*
G37*
G36*
X429202D02*
X417830D01*
Y193098D01*
X419875Y193367D01*
X422965Y194647D01*
X425618Y196682D01*
X427653Y199335D01*
X428933Y202425D01*
X429202Y204470D01*
D02*
G37*
G36*
X605790Y203200D02*
X594418D01*
X594687Y201155D01*
X595967Y198065D01*
X598002Y195412D01*
X600655Y193377D01*
X603745Y192097D01*
X605790Y191828D01*
Y203200D01*
D02*
G37*
G36*
X619702D02*
X608330D01*
Y191828D01*
X610375Y192097D01*
X613465Y193377D01*
X616118Y195412D01*
X618153Y198065D01*
X619433Y201155D01*
X619702Y203200D01*
D02*
G37*
G36*
X556260Y219784D02*
X553272Y219489D01*
X550400Y218618D01*
X547752Y217203D01*
X545432Y215299D01*
X543527Y212978D01*
X542112Y210330D01*
X541241Y207458D01*
X540946Y204470D01*
X541241Y201482D01*
X542112Y198610D01*
X543527Y195962D01*
X545432Y193641D01*
X547752Y191737D01*
X550400Y190322D01*
X553272Y189450D01*
X556260Y189156D01*
X559248Y189450D01*
X562120Y190322D01*
X564768Y191737D01*
X567089Y193641D01*
X568993Y195962D01*
X570408Y198610D01*
X571279Y201482D01*
X571574Y204470D01*
X571279Y207458D01*
X570408Y210330D01*
X568993Y212978D01*
X567089Y215299D01*
X564768Y217203D01*
X562120Y218618D01*
X559248Y219489D01*
X556260Y219784D01*
D02*
G37*
G36*
X157480Y156236D02*
X157145Y156169D01*
X156804Y156192D01*
X154193Y155848D01*
X153552Y155630D01*
X152887Y155498D01*
X150455Y154490D01*
X149891Y154114D01*
X149284Y153814D01*
X147195Y152211D01*
X146748Y151702D01*
X146239Y151255D01*
X144636Y149166D01*
X144336Y148559D01*
X143960Y147995D01*
X142952Y145563D01*
X142820Y144898D01*
X142602Y144257D01*
X142259Y141646D01*
X142303Y140970D01*
X142259Y140294D01*
X142602Y137683D01*
X142820Y137042D01*
X142952Y136377D01*
X143960Y133945D01*
X144336Y133381D01*
X144636Y132774D01*
X146239Y130685D01*
X146748Y130238D01*
X147195Y129729D01*
X149284Y128126D01*
X149891Y127826D01*
X150455Y127450D01*
X152887Y126442D01*
X153552Y126310D01*
X154193Y126092D01*
X156804Y125749D01*
X157145Y125771D01*
X157480Y125704D01*
X157815Y125771D01*
X158156Y125749D01*
X160767Y126092D01*
X161408Y126310D01*
X162073Y126442D01*
X164505Y127450D01*
X165069Y127826D01*
X165676Y128126D01*
X167765Y129729D01*
X168212Y130238D01*
X168721Y130685D01*
X170324Y132774D01*
X170624Y133381D01*
X171000Y133945D01*
X172008Y136377D01*
X172140Y137042D01*
X172358Y137683D01*
X172701Y140294D01*
X172657Y140970D01*
X172701Y141646D01*
X172358Y144257D01*
X172140Y144898D01*
X172008Y145563D01*
X171000Y147995D01*
X170624Y148559D01*
X170324Y149166D01*
X168721Y151255D01*
X168212Y151702D01*
X167765Y152211D01*
X165676Y153814D01*
X165069Y154114D01*
X164505Y154490D01*
X162073Y155498D01*
X161408Y155630D01*
X160767Y155848D01*
X158156Y156192D01*
X157815Y156169D01*
X157480Y156236D01*
D02*
G37*
G36*
X246380D02*
X246045Y156169D01*
X245704Y156192D01*
X243093Y155848D01*
X242452Y155630D01*
X241787Y155498D01*
X239355Y154490D01*
X238791Y154114D01*
X238184Y153814D01*
X236095Y152211D01*
X235648Y151702D01*
X235139Y151255D01*
X233536Y149166D01*
X233236Y148559D01*
X232860Y147995D01*
X231852Y145563D01*
X231720Y144898D01*
X231502Y144257D01*
X231159Y141646D01*
X231203Y140970D01*
X231159Y140294D01*
X231502Y137683D01*
X231720Y137042D01*
X231852Y136377D01*
X232860Y133945D01*
X233236Y133381D01*
X233536Y132774D01*
X235139Y130685D01*
X235648Y130238D01*
X236095Y129729D01*
X238184Y128126D01*
X238791Y127826D01*
X239355Y127450D01*
X241787Y126442D01*
X242452Y126310D01*
X243093Y126092D01*
X245704Y125749D01*
X246045Y125771D01*
X246380Y125704D01*
X246715Y125771D01*
X247056Y125749D01*
X249667Y126092D01*
X250308Y126310D01*
X250973Y126442D01*
X253405Y127450D01*
X253969Y127826D01*
X254576Y128126D01*
X256665Y129729D01*
X257112Y130238D01*
X257621Y130685D01*
X259224Y132774D01*
X259524Y133381D01*
X259900Y133945D01*
X260908Y136377D01*
X261040Y137042D01*
X261258Y137683D01*
X261602Y140294D01*
X261557Y140970D01*
X261602Y141646D01*
X261258Y144257D01*
X261040Y144898D01*
X260908Y145563D01*
X259900Y147995D01*
X259524Y148559D01*
X259224Y149166D01*
X257621Y151255D01*
X257112Y151702D01*
X256665Y152211D01*
X254576Y153814D01*
X253969Y154114D01*
X253405Y154490D01*
X250973Y155498D01*
X250308Y155630D01*
X249667Y155848D01*
X247056Y156192D01*
X246715Y156169D01*
X246380Y156236D01*
D02*
G37*
G36*
X730250Y154966D02*
X729915Y154899D01*
X729574Y154922D01*
X726963Y154578D01*
X726322Y154360D01*
X725657Y154228D01*
X723225Y153220D01*
X722661Y152844D01*
X722054Y152544D01*
X719965Y150941D01*
X719518Y150432D01*
X719009Y149985D01*
X717406Y147896D01*
X717106Y147289D01*
X716730Y146725D01*
X715722Y144293D01*
X715590Y143628D01*
X715372Y142987D01*
X715029Y140376D01*
X715073Y139700D01*
X715029Y139024D01*
X715372Y136413D01*
X715590Y135772D01*
X715722Y135107D01*
X716730Y132675D01*
X717106Y132111D01*
X717406Y131504D01*
X719009Y129415D01*
X719518Y128968D01*
X719965Y128459D01*
X722054Y126856D01*
X722661Y126556D01*
X723225Y126180D01*
X725657Y125172D01*
X726322Y125040D01*
X726963Y124822D01*
X729574Y124479D01*
X729915Y124501D01*
X730250Y124434D01*
X730585Y124501D01*
X730926Y124479D01*
X733537Y124822D01*
X734178Y125040D01*
X734843Y125172D01*
X737275Y126180D01*
X737839Y126556D01*
X738446Y126856D01*
X740535Y128459D01*
X740982Y128968D01*
X741491Y129415D01*
X743094Y131504D01*
X743394Y132111D01*
X743770Y132675D01*
X744778Y135107D01*
X744910Y135772D01*
X745128Y136413D01*
X745471Y139024D01*
X745427Y139700D01*
X745471Y140376D01*
X745128Y142987D01*
X744910Y143628D01*
X744778Y144293D01*
X743770Y146725D01*
X743394Y147289D01*
X743094Y147896D01*
X741491Y149985D01*
X740982Y150432D01*
X740535Y150941D01*
X738446Y152544D01*
X737839Y152844D01*
X737275Y153220D01*
X734843Y154228D01*
X734178Y154360D01*
X733537Y154578D01*
X730926Y154922D01*
X730585Y154899D01*
X730250Y154966D01*
D02*
G37*
G36*
X819150D02*
X818815Y154899D01*
X818474Y154922D01*
X815863Y154578D01*
X815222Y154360D01*
X814557Y154228D01*
X812125Y153220D01*
X811561Y152844D01*
X810954Y152544D01*
X808865Y150941D01*
X808418Y150432D01*
X807909Y149985D01*
X806306Y147896D01*
X806006Y147289D01*
X805630Y146725D01*
X804622Y144293D01*
X804490Y143628D01*
X804272Y142987D01*
X803929Y140376D01*
X803973Y139700D01*
X803929Y139024D01*
X804272Y136413D01*
X804490Y135772D01*
X804622Y135107D01*
X805630Y132675D01*
X806006Y132111D01*
X806306Y131504D01*
X807909Y129415D01*
X808418Y128968D01*
X808865Y128459D01*
X810954Y126856D01*
X811561Y126556D01*
X812125Y126180D01*
X814557Y125172D01*
X815222Y125040D01*
X815863Y124822D01*
X818474Y124479D01*
X818815Y124501D01*
X819150Y124434D01*
X819485Y124501D01*
X819826Y124479D01*
X822437Y124822D01*
X823078Y125040D01*
X823743Y125172D01*
X826175Y126180D01*
X826739Y126556D01*
X827346Y126856D01*
X829435Y128459D01*
X829882Y128968D01*
X830391Y129415D01*
X831994Y131504D01*
X832294Y132111D01*
X832670Y132675D01*
X833678Y135107D01*
X833810Y135772D01*
X834028Y136413D01*
X834371Y139024D01*
X834327Y139700D01*
X834371Y140376D01*
X834028Y142987D01*
X833810Y143628D01*
X833678Y144293D01*
X832670Y146725D01*
X832294Y147289D01*
X831994Y147896D01*
X830391Y149985D01*
X829882Y150432D01*
X829435Y150941D01*
X827346Y152544D01*
X826739Y152844D01*
X826175Y153220D01*
X823743Y154228D01*
X823078Y154360D01*
X822437Y154578D01*
X819826Y154922D01*
X819485Y154899D01*
X819150Y154966D01*
D02*
G37*
G36*
X537210Y156236D02*
X536875Y156169D01*
X536534Y156192D01*
X533923Y155848D01*
X533282Y155630D01*
X532617Y155498D01*
X530185Y154490D01*
X529621Y154114D01*
X529014Y153814D01*
X526925Y152211D01*
X526478Y151702D01*
X525969Y151255D01*
X524366Y149166D01*
X524066Y148559D01*
X523690Y147995D01*
X522682Y145563D01*
X522550Y144898D01*
X522332Y144257D01*
X521988Y141646D01*
X522033Y140970D01*
X521988Y140294D01*
X522332Y137683D01*
X522550Y137042D01*
X522682Y136377D01*
X523690Y133945D01*
X524066Y133381D01*
X524366Y132774D01*
X525969Y130685D01*
X526478Y130238D01*
X526925Y129729D01*
X529014Y128126D01*
X529621Y127826D01*
X530185Y127450D01*
X532617Y126442D01*
X533282Y126310D01*
X533923Y126092D01*
X536534Y125749D01*
X536875Y125771D01*
X537210Y125704D01*
X537545Y125771D01*
X537886Y125749D01*
X540497Y126092D01*
X541138Y126310D01*
X541803Y126442D01*
X544235Y127450D01*
X544799Y127826D01*
X545406Y128126D01*
X547495Y129729D01*
X547942Y130238D01*
X548451Y130685D01*
X550054Y132774D01*
X550354Y133381D01*
X550730Y133945D01*
X551738Y136377D01*
X551870Y137042D01*
X552088Y137683D01*
X552431Y140294D01*
X552387Y140970D01*
X552431Y141646D01*
X552088Y144257D01*
X551870Y144898D01*
X551738Y145563D01*
X550730Y147995D01*
X550354Y148559D01*
X550054Y149166D01*
X548451Y151255D01*
X547942Y151702D01*
X547495Y152211D01*
X545406Y153814D01*
X544799Y154114D01*
X544235Y154490D01*
X541803Y155498D01*
X541138Y155630D01*
X540497Y155848D01*
X537886Y156192D01*
X537545Y156169D01*
X537210Y156236D01*
D02*
G37*
G36*
X749300Y218514D02*
X746312Y218220D01*
X743440Y217348D01*
X740792Y215933D01*
X738472Y214028D01*
X736567Y211708D01*
X735152Y209060D01*
X734280Y206188D01*
X733986Y203200D01*
X734280Y200212D01*
X735152Y197340D01*
X736567Y194692D01*
X738472Y192372D01*
X740792Y190467D01*
X743440Y189052D01*
X746312Y188181D01*
X749300Y187886D01*
X752288Y188181D01*
X755160Y189052D01*
X757808Y190467D01*
X760128Y192372D01*
X762033Y194692D01*
X763448Y197340D01*
X764320Y200212D01*
X764614Y203200D01*
X764320Y206188D01*
X763448Y209060D01*
X762033Y211708D01*
X760128Y214028D01*
X757808Y215933D01*
X755160Y217348D01*
X752288Y218220D01*
X749300Y218514D01*
D02*
G37*
G36*
X176530Y219784D02*
X173542Y219489D01*
X170670Y218618D01*
X168022Y217203D01*
X165702Y215299D01*
X163797Y212978D01*
X162382Y210330D01*
X161511Y207458D01*
X161216Y204470D01*
X161511Y201482D01*
X162382Y198610D01*
X163797Y195962D01*
X165702Y193641D01*
X168022Y191737D01*
X170670Y190322D01*
X173542Y189450D01*
X176530Y189156D01*
X179518Y189450D01*
X182390Y190322D01*
X185038Y191737D01*
X187358Y193641D01*
X189263Y195962D01*
X190678Y198610D01*
X191549Y201482D01*
X191844Y204470D01*
X191549Y207458D01*
X190678Y210330D01*
X189263Y212978D01*
X187358Y215299D01*
X185038Y217203D01*
X182390Y218618D01*
X179518Y219489D01*
X176530Y219784D01*
D02*
G37*
G36*
X626110Y156236D02*
X625775Y156169D01*
X625434Y156192D01*
X622823Y155848D01*
X622182Y155630D01*
X621517Y155498D01*
X619085Y154490D01*
X618521Y154114D01*
X617914Y153814D01*
X615825Y152211D01*
X615378Y151702D01*
X614869Y151255D01*
X613266Y149166D01*
X612966Y148559D01*
X612590Y147995D01*
X611582Y145563D01*
X611450Y144898D01*
X611232Y144257D01*
X610888Y141646D01*
X610933Y140970D01*
X610888Y140294D01*
X611232Y137683D01*
X611450Y137042D01*
X611582Y136377D01*
X612590Y133945D01*
X612966Y133381D01*
X613266Y132774D01*
X614869Y130685D01*
X615378Y130238D01*
X615825Y129729D01*
X617914Y128126D01*
X618521Y127826D01*
X619085Y127450D01*
X621517Y126442D01*
X622182Y126310D01*
X622823Y126092D01*
X625434Y125749D01*
X625775Y125771D01*
X626110Y125704D01*
X626445Y125771D01*
X626786Y125749D01*
X629397Y126092D01*
X630038Y126310D01*
X630703Y126442D01*
X633135Y127450D01*
X633699Y127826D01*
X634306Y128126D01*
X636395Y129729D01*
X636842Y130238D01*
X637351Y130685D01*
X638954Y132774D01*
X639254Y133381D01*
X639630Y133945D01*
X640638Y136377D01*
X640770Y137042D01*
X640988Y137683D01*
X641331Y140294D01*
X641287Y140970D01*
X641331Y141646D01*
X640988Y144257D01*
X640770Y144898D01*
X640638Y145563D01*
X639630Y147995D01*
X639254Y148559D01*
X638954Y149166D01*
X637351Y151255D01*
X636842Y151702D01*
X636395Y152211D01*
X634306Y153814D01*
X633699Y154114D01*
X633135Y154490D01*
X630703Y155498D01*
X630038Y155630D01*
X629397Y155848D01*
X626786Y156192D01*
X626445Y156169D01*
X626110Y156236D01*
D02*
G37*
G36*
X435610Y157506D02*
X435275Y157439D01*
X434934Y157462D01*
X432323Y157118D01*
X431682Y156900D01*
X431017Y156768D01*
X428585Y155760D01*
X428021Y155384D01*
X427414Y155084D01*
X425325Y153481D01*
X424878Y152972D01*
X424369Y152525D01*
X422766Y150436D01*
X422466Y149829D01*
X422090Y149265D01*
X421082Y146833D01*
X420950Y146168D01*
X420732Y145527D01*
X420388Y142916D01*
X420433Y142240D01*
X420388Y141564D01*
X420732Y138953D01*
X420950Y138312D01*
X421082Y137647D01*
X422090Y135215D01*
X422466Y134651D01*
X422766Y134044D01*
X424369Y131955D01*
X424878Y131508D01*
X425325Y130999D01*
X427414Y129396D01*
X428021Y129096D01*
X428585Y128720D01*
X431017Y127712D01*
X431682Y127580D01*
X432323Y127362D01*
X434934Y127018D01*
X435275Y127041D01*
X435610Y126974D01*
X435945Y127041D01*
X436286Y127018D01*
X438897Y127362D01*
X439538Y127580D01*
X440203Y127712D01*
X442635Y128720D01*
X443199Y129096D01*
X443806Y129396D01*
X445895Y130999D01*
X446342Y131508D01*
X446851Y131955D01*
X448454Y134044D01*
X448754Y134651D01*
X449130Y135215D01*
X450138Y137647D01*
X450270Y138312D01*
X450488Y138953D01*
X450831Y141564D01*
X450787Y142240D01*
X450831Y142916D01*
X450488Y145527D01*
X450270Y146168D01*
X450138Y146833D01*
X449130Y149265D01*
X448754Y149829D01*
X448454Y150436D01*
X446851Y152525D01*
X446342Y152972D01*
X445895Y153481D01*
X443806Y155084D01*
X443199Y155384D01*
X442635Y155760D01*
X440203Y156768D01*
X439538Y156900D01*
X438897Y157118D01*
X436286Y157462D01*
X435945Y157439D01*
X435610Y157506D01*
D02*
G37*
G36*
X429260Y255270D02*
X419809D01*
X420013Y253722D01*
X421101Y251096D01*
X422831Y248841D01*
X425086Y247111D01*
X427712Y246023D01*
X429260Y245819D01*
Y255270D01*
D02*
G37*
G36*
X441251D02*
X431800D01*
Y245819D01*
X433348Y246023D01*
X435974Y247111D01*
X438229Y248841D01*
X439959Y251096D01*
X441047Y253722D01*
X441251Y255270D01*
D02*
G37*
G36*
X619760Y254000D02*
X610309D01*
X610513Y252452D01*
X611601Y249826D01*
X613331Y247571D01*
X615586Y245841D01*
X618212Y244753D01*
X619760Y244549D01*
Y254000D01*
D02*
G37*
G36*
X631751D02*
X622300D01*
Y244549D01*
X623848Y244753D01*
X626474Y245841D01*
X628729Y247571D01*
X630459Y249826D01*
X631547Y252452D01*
X631751Y254000D01*
D02*
G37*
G36*
X234950Y256540D02*
X225499D01*
X225703Y254992D01*
X226791Y252366D01*
X228521Y250111D01*
X230776Y248381D01*
X233402Y247293D01*
X234950Y247089D01*
Y256540D01*
D02*
G37*
G36*
X823521D02*
X814070D01*
Y247089D01*
X815618Y247293D01*
X818244Y248381D01*
X820499Y250111D01*
X822229Y252366D01*
X823317Y254992D01*
X823521Y256540D01*
D02*
G37*
G36*
X619760Y265991D02*
X618212Y265787D01*
X615586Y264699D01*
X613331Y262969D01*
X611601Y260714D01*
X610513Y258088D01*
X610309Y256540D01*
X619760D01*
Y265991D01*
D02*
G37*
G36*
X246941Y256540D02*
X237490D01*
Y247089D01*
X239038Y247293D01*
X241664Y248381D01*
X243919Y250111D01*
X245649Y252366D01*
X246737Y254992D01*
X246941Y256540D01*
D02*
G37*
G36*
X811530D02*
X802079D01*
X802283Y254992D01*
X803371Y252366D01*
X805101Y250111D01*
X807356Y248381D01*
X809982Y247293D01*
X811530Y247089D01*
Y256540D01*
D02*
G37*
G36*
X160020Y271260D02*
X156539Y270802D01*
X153295Y269458D01*
X150509Y267321D01*
X148372Y264535D01*
X147028Y261291D01*
X146570Y257810D01*
X147028Y254329D01*
X148372Y251085D01*
X150509Y248299D01*
X153295Y246162D01*
X156539Y244818D01*
X160020Y244360D01*
X163501Y244818D01*
X166745Y246162D01*
X169531Y248299D01*
X171668Y251085D01*
X173012Y254329D01*
X173470Y257810D01*
X173012Y261291D01*
X171668Y264535D01*
X169531Y267321D01*
X166745Y269458D01*
X163501Y270802D01*
X160020Y271260D01*
D02*
G37*
G36*
X226060Y217112D02*
X224015Y216843D01*
X220925Y215563D01*
X218272Y213528D01*
X216237Y210875D01*
X214957Y207785D01*
X214688Y205740D01*
X226060D01*
Y217112D01*
D02*
G37*
G36*
X228600D02*
Y205740D01*
X239972D01*
X239703Y207785D01*
X238423Y210875D01*
X236388Y213528D01*
X233735Y215563D01*
X230645Y216843D01*
X228600Y217112D01*
D02*
G37*
G36*
X798830Y215842D02*
X796785Y215573D01*
X793695Y214293D01*
X791042Y212258D01*
X789007Y209605D01*
X787727Y206515D01*
X787458Y204470D01*
X798830D01*
Y215842D01*
D02*
G37*
G36*
X801370D02*
Y204470D01*
X812742D01*
X812473Y206515D01*
X811193Y209605D01*
X809158Y212258D01*
X806505Y214293D01*
X803415Y215573D01*
X801370Y215842D01*
D02*
G37*
G36*
X605790Y217112D02*
X603745Y216843D01*
X600655Y215563D01*
X598002Y213528D01*
X595967Y210875D01*
X594687Y207785D01*
X594418Y205740D01*
X605790D01*
Y217112D01*
D02*
G37*
G36*
X417830Y218382D02*
Y207010D01*
X429202D01*
X428933Y209055D01*
X427653Y212145D01*
X425618Y214798D01*
X422965Y216833D01*
X419875Y218113D01*
X417830Y218382D01*
D02*
G37*
G36*
X354330Y269990D02*
X350849Y269532D01*
X347605Y268188D01*
X344819Y266051D01*
X342682Y263265D01*
X341338Y260021D01*
X340880Y256540D01*
X341338Y253059D01*
X342682Y249815D01*
X344819Y247029D01*
X347605Y244892D01*
X350849Y243548D01*
X354330Y243090D01*
X357811Y243548D01*
X361055Y244892D01*
X363841Y247029D01*
X365978Y249815D01*
X367322Y253059D01*
X367780Y256540D01*
X367322Y260021D01*
X365978Y263265D01*
X363841Y266051D01*
X361055Y268188D01*
X357811Y269532D01*
X354330Y269990D01*
D02*
G37*
G36*
X608330Y217112D02*
Y205740D01*
X619702D01*
X619433Y207785D01*
X618153Y210875D01*
X616118Y213528D01*
X613465Y215563D01*
X610375Y216843D01*
X608330Y217112D01*
D02*
G37*
G36*
X415290Y218382D02*
X413245Y218113D01*
X410155Y216833D01*
X407502Y214798D01*
X405467Y212145D01*
X404187Y209055D01*
X403918Y207010D01*
X415290D01*
Y218382D01*
D02*
G37*
G36*
X1737159Y46990D02*
X1728470D01*
Y38301D01*
X1729821Y38478D01*
X1732263Y39490D01*
X1734361Y41099D01*
X1735970Y43197D01*
X1736982Y45639D01*
X1737159Y46990D01*
D02*
G37*
G36*
X1762559D02*
X1753870D01*
Y38301D01*
X1755221Y38478D01*
X1757663Y39490D01*
X1759761Y41099D01*
X1761370Y43197D01*
X1762382Y45639D01*
X1762559Y46990D01*
D02*
G37*
G36*
X1725930D02*
X1717241D01*
X1717418Y45639D01*
X1718430Y43197D01*
X1720039Y41099D01*
X1722137Y39490D01*
X1724579Y38478D01*
X1725930Y38301D01*
Y46990D01*
D02*
G37*
G36*
X1751330D02*
X1742641D01*
X1742818Y45639D01*
X1743830Y43197D01*
X1745439Y41099D01*
X1747537Y39490D01*
X1749979Y38478D01*
X1751330Y38301D01*
Y46990D01*
D02*
G37*
G36*
X957580Y48260D02*
X948891D01*
X949068Y46909D01*
X950080Y44467D01*
X951689Y42369D01*
X953787Y40760D01*
X956229Y39748D01*
X957580Y39571D01*
Y48260D01*
D02*
G37*
G36*
X994209D02*
X985520D01*
Y39571D01*
X986871Y39748D01*
X989313Y40760D01*
X991411Y42369D01*
X993020Y44467D01*
X994032Y46909D01*
X994209Y48260D01*
D02*
G37*
G36*
X1080623Y55720D02*
X1079261Y55540D01*
X1076809Y54525D01*
X1074704Y52909D01*
X1073088Y50803D01*
X1072072Y48351D01*
X1071893Y46990D01*
X1080623D01*
Y55720D01*
D02*
G37*
G36*
X982980Y48260D02*
X974291D01*
X974468Y46909D01*
X975480Y44467D01*
X977089Y42369D01*
X979187Y40760D01*
X981629Y39748D01*
X982980Y39571D01*
Y48260D01*
D02*
G37*
G36*
X968809D02*
X960120D01*
Y39571D01*
X961471Y39748D01*
X963913Y40760D01*
X966011Y42369D01*
X967620Y44467D01*
X968632Y46909D01*
X968809Y48260D01*
D02*
G37*
G36*
X1625292Y44450D02*
X1616563D01*
Y35720D01*
X1617924Y35900D01*
X1620376Y36915D01*
X1622482Y38531D01*
X1624097Y40637D01*
X1625113Y43089D01*
X1625292Y44450D01*
D02*
G37*
G36*
X1080623D02*
X1071893D01*
X1072072Y43089D01*
X1073088Y40637D01*
X1074704Y38531D01*
X1076809Y36915D01*
X1079261Y35900D01*
X1080623Y35720D01*
Y44450D01*
D02*
G37*
G36*
X1091892D02*
X1083163D01*
Y35720D01*
X1084524Y35900D01*
X1086976Y36915D01*
X1089082Y38531D01*
X1090697Y40637D01*
X1091713Y43089D01*
X1091892Y44450D01*
D02*
G37*
G36*
X175260Y48626D02*
X171878Y48181D01*
X168727Y46875D01*
X166021Y44799D01*
X163945Y42093D01*
X162639Y38942D01*
X162194Y35560D01*
X162639Y32178D01*
X163945Y29027D01*
X166021Y26321D01*
X168727Y24245D01*
X171878Y22939D01*
X175260Y22494D01*
X178642Y22939D01*
X181793Y24245D01*
X184499Y26321D01*
X186575Y29027D01*
X187881Y32178D01*
X188326Y35560D01*
X187881Y38942D01*
X186575Y42093D01*
X184499Y44799D01*
X181793Y46875D01*
X178642Y48181D01*
X175260Y48626D01*
D02*
G37*
G36*
X749300Y91514D02*
X746312Y91220D01*
X743440Y90348D01*
X740792Y88933D01*
X738472Y87029D01*
X736567Y84708D01*
X735152Y82060D01*
X734280Y79188D01*
X733986Y76200D01*
X734280Y73212D01*
X735152Y70340D01*
X736567Y67692D01*
X738472Y65371D01*
X740792Y63467D01*
X743440Y62052D01*
X746312Y61181D01*
X749300Y60886D01*
X752288Y61181D01*
X753875Y61662D01*
X760066Y55470D01*
X761525Y54351D01*
X763225Y53647D01*
X765048Y53407D01*
X787530D01*
X798825Y42111D01*
X798464Y39370D01*
X798909Y35988D01*
X800215Y32837D01*
X802291Y30131D01*
X804997Y28055D01*
X808148Y26749D01*
X811530Y26304D01*
X814912Y26749D01*
X818063Y28055D01*
X820769Y30131D01*
X822845Y32837D01*
X824151Y35988D01*
X824596Y39370D01*
X824151Y42752D01*
X822845Y45903D01*
X820769Y48609D01*
X818063Y50685D01*
X814912Y51991D01*
X811530Y52436D01*
X808789Y52075D01*
X798472Y62392D01*
X798830Y63118D01*
Y74930D01*
X787458D01*
X787727Y72885D01*
X789007Y69795D01*
X789795Y68767D01*
X789169Y67497D01*
X767966D01*
X763838Y71625D01*
X764320Y73212D01*
X764614Y76200D01*
X764320Y79188D01*
X763448Y82060D01*
X762033Y84708D01*
X760128Y87029D01*
X757808Y88933D01*
X755160Y90348D01*
X752288Y91220D01*
X749300Y91514D01*
D02*
G37*
G36*
X1106023Y44450D02*
X1097293D01*
X1097472Y43089D01*
X1098488Y40637D01*
X1100104Y38531D01*
X1102209Y36915D01*
X1104661Y35900D01*
X1106023Y35720D01*
Y44450D01*
D02*
G37*
G36*
X1599892D02*
X1591163D01*
Y35720D01*
X1592524Y35900D01*
X1594976Y36915D01*
X1597082Y38531D01*
X1598698Y40637D01*
X1599713Y43089D01*
X1599892Y44450D01*
D02*
G37*
G36*
X1614023D02*
X1605293D01*
X1605472Y43089D01*
X1606488Y40637D01*
X1608104Y38531D01*
X1610209Y36915D01*
X1612661Y35900D01*
X1614023Y35720D01*
Y44450D01*
D02*
G37*
G36*
X1117292D02*
X1108563D01*
Y35720D01*
X1109924Y35900D01*
X1112376Y36915D01*
X1114482Y38531D01*
X1116097Y40637D01*
X1117113Y43089D01*
X1117292Y44450D01*
D02*
G37*
G36*
X1588623D02*
X1579893D01*
X1580072Y43089D01*
X1581088Y40637D01*
X1582704Y38531D01*
X1584809Y36915D01*
X1587261Y35900D01*
X1588623Y35720D01*
Y44450D01*
D02*
G37*
G36*
X429202Y77470D02*
X417830D01*
Y66098D01*
X419875Y66367D01*
X422965Y67647D01*
X425618Y69682D01*
X427653Y72335D01*
X428933Y75425D01*
X429202Y77470D01*
D02*
G37*
G36*
X798830Y88842D02*
X796785Y88573D01*
X793695Y87293D01*
X791042Y85258D01*
X789007Y82605D01*
X787727Y79515D01*
X787458Y77470D01*
X798830D01*
Y88842D01*
D02*
G37*
G36*
X619702Y76200D02*
X608330D01*
Y64828D01*
X610375Y65097D01*
X613465Y66377D01*
X616118Y68412D01*
X618153Y71065D01*
X619433Y74155D01*
X619702Y76200D01*
D02*
G37*
G36*
X415290Y77470D02*
X403918D01*
X404187Y75425D01*
X405467Y72335D01*
X407502Y69682D01*
X410155Y67647D01*
X413245Y66367D01*
X415290Y66098D01*
Y77470D01*
D02*
G37*
G36*
X801370Y88842D02*
Y77470D01*
X812742D01*
X812473Y79515D01*
X811193Y82605D01*
X809158Y85258D01*
X806505Y87293D01*
X803415Y88573D01*
X801370Y88842D01*
D02*
G37*
G36*
X415290Y91382D02*
X413245Y91113D01*
X410155Y89833D01*
X407502Y87798D01*
X405467Y85145D01*
X404187Y82055D01*
X403918Y80010D01*
X415290D01*
Y91382D01*
D02*
G37*
G36*
X417830D02*
Y80010D01*
X429202D01*
X428933Y82055D01*
X427653Y85145D01*
X425618Y87798D01*
X422965Y89833D01*
X419875Y91113D01*
X417830Y91382D01*
D02*
G37*
G36*
X605790Y90112D02*
X603745Y89843D01*
X600655Y88563D01*
X598002Y86528D01*
X595967Y83875D01*
X594687Y80785D01*
X594418Y78740D01*
X605790D01*
Y90112D01*
D02*
G37*
G36*
X608330D02*
Y78740D01*
X619702D01*
X619433Y80785D01*
X618153Y83875D01*
X616118Y86528D01*
X613465Y88563D01*
X610375Y89843D01*
X608330Y90112D01*
D02*
G37*
G36*
X812742Y74930D02*
X801370D01*
Y63558D01*
X803415Y63827D01*
X806505Y65107D01*
X809158Y67142D01*
X811193Y69795D01*
X812473Y72885D01*
X812742Y74930D01*
D02*
G37*
G36*
X1108563Y55720D02*
Y46990D01*
X1117292D01*
X1117113Y48351D01*
X1116097Y50803D01*
X1114482Y52909D01*
X1112376Y54525D01*
X1109924Y55540D01*
X1108563Y55720D01*
D02*
G37*
G36*
X1588623D02*
X1587261Y55540D01*
X1584809Y54525D01*
X1582704Y52909D01*
X1581088Y50803D01*
X1580072Y48351D01*
X1579893Y46990D01*
X1588623D01*
Y55720D01*
D02*
G37*
G36*
X1083163D02*
Y46990D01*
X1091892D01*
X1091713Y48351D01*
X1090697Y50803D01*
X1089082Y52909D01*
X1086976Y54525D01*
X1084524Y55540D01*
X1083163Y55720D01*
D02*
G37*
G36*
X1106023D02*
X1104661Y55540D01*
X1102209Y54525D01*
X1100104Y52909D01*
X1098488Y50803D01*
X1097472Y48351D01*
X1097293Y46990D01*
X1106023D01*
Y55720D01*
D02*
G37*
G36*
X1751330Y58219D02*
X1749979Y58042D01*
X1747537Y57030D01*
X1745439Y55421D01*
X1743830Y53323D01*
X1742818Y50881D01*
X1742641Y49530D01*
X1751330D01*
Y58219D01*
D02*
G37*
G36*
X957580Y59489D02*
X956229Y59312D01*
X953787Y58300D01*
X951689Y56691D01*
X950080Y54593D01*
X949068Y52151D01*
X948891Y50800D01*
X957580D01*
Y59489D01*
D02*
G37*
G36*
X176530Y92784D02*
X173542Y92490D01*
X170670Y91618D01*
X168022Y90203D01*
X165702Y88299D01*
X163797Y85978D01*
X162382Y83330D01*
X161511Y80458D01*
X161216Y77470D01*
X161511Y74482D01*
X162382Y71610D01*
X163797Y68962D01*
X165702Y66642D01*
X168022Y64737D01*
X170670Y63322D01*
X173542Y62450D01*
X176530Y62156D01*
X179518Y62450D01*
X182390Y63322D01*
X185038Y64737D01*
X187358Y66642D01*
X189263Y68962D01*
X190678Y71610D01*
X191549Y74482D01*
X191844Y77470D01*
X191549Y80458D01*
X190678Y83330D01*
X189263Y85978D01*
X187358Y88299D01*
X185038Y90203D01*
X182390Y91618D01*
X179518Y92490D01*
X176530Y92784D01*
D02*
G37*
G36*
X1728470Y58219D02*
Y49530D01*
X1737159D01*
X1736982Y50881D01*
X1735970Y53323D01*
X1734361Y55421D01*
X1732263Y57030D01*
X1729821Y58042D01*
X1728470Y58219D01*
D02*
G37*
G36*
X1753870D02*
Y49530D01*
X1762559D01*
X1762382Y50881D01*
X1761370Y53323D01*
X1759761Y55421D01*
X1757663Y57030D01*
X1755221Y58042D01*
X1753870Y58219D01*
D02*
G37*
G36*
X1289050Y1099619D02*
Y1090930D01*
X1297739D01*
X1297562Y1092281D01*
X1296550Y1094723D01*
X1294941Y1096821D01*
X1292843Y1098430D01*
X1290401Y1099442D01*
X1289050Y1099619D01*
D02*
G37*
G36*
X1338580Y1102348D02*
X1335296Y1101916D01*
X1332236Y1100649D01*
X1329608Y1098632D01*
X1327591Y1096004D01*
X1326567Y1093532D01*
X1325193D01*
X1324169Y1096004D01*
X1322152Y1098632D01*
X1319524Y1100649D01*
X1316464Y1101916D01*
X1313180Y1102348D01*
X1309896Y1101916D01*
X1306836Y1100649D01*
X1304208Y1098632D01*
X1302191Y1096004D01*
X1300924Y1092944D01*
X1300491Y1089660D01*
X1300924Y1086376D01*
X1302191Y1083316D01*
X1304208Y1080688D01*
X1306836Y1078671D01*
X1309896Y1077404D01*
X1313180Y1076972D01*
X1316464Y1077404D01*
X1319524Y1078671D01*
X1322152Y1080688D01*
X1324169Y1083316D01*
X1325193Y1085788D01*
X1326567D01*
X1327591Y1083316D01*
X1329608Y1080688D01*
X1332236Y1078671D01*
X1335296Y1077404D01*
X1338580Y1076972D01*
X1341864Y1077404D01*
X1344924Y1078671D01*
X1347552Y1080688D01*
X1349569Y1083316D01*
X1350031Y1084431D01*
X1351301Y1084178D01*
Y1082160D01*
X1351695Y1080178D01*
X1352818Y1078497D01*
X1354498Y1077375D01*
X1356480Y1076981D01*
X1371480D01*
X1373462Y1077375D01*
X1375143Y1078497D01*
X1376265Y1080178D01*
X1376660Y1082160D01*
Y1097160D01*
X1376265Y1099142D01*
X1375143Y1100823D01*
X1373462Y1101945D01*
X1371480Y1102339D01*
X1356480D01*
X1354498Y1101945D01*
X1352818Y1100823D01*
X1351695Y1099142D01*
X1351301Y1097160D01*
Y1095142D01*
X1350031Y1094889D01*
X1349569Y1096004D01*
X1347552Y1098632D01*
X1344924Y1100649D01*
X1341864Y1101916D01*
X1338580Y1102348D01*
D02*
G37*
G36*
X882650Y1243517D02*
X516128D01*
X514305Y1243277D01*
X512605Y1242573D01*
X511146Y1241454D01*
X450218Y1180525D01*
X373914D01*
X373209Y1181581D01*
X373672Y1182699D01*
X374130Y1186180D01*
X373672Y1189661D01*
X372328Y1192905D01*
X370191Y1195691D01*
X367405Y1197828D01*
X364161Y1199172D01*
X360680Y1199630D01*
X357599Y1199224D01*
X327562Y1229262D01*
X326103Y1230381D01*
X324403Y1231085D01*
X322580Y1231325D01*
X276352D01*
X274669Y1233519D01*
X271963Y1235595D01*
X268812Y1236901D01*
X265430Y1237346D01*
X262048Y1236901D01*
X258897Y1235595D01*
X256191Y1233519D01*
X254115Y1230813D01*
X252809Y1227662D01*
X252364Y1224280D01*
X252809Y1220898D01*
X254115Y1217747D01*
X256191Y1215041D01*
X258897Y1212965D01*
X262048Y1211659D01*
X265430Y1211214D01*
X268812Y1211659D01*
X271963Y1212965D01*
X274669Y1215041D01*
X276352Y1217235D01*
X319662D01*
X347636Y1189261D01*
X347230Y1186180D01*
X347688Y1182699D01*
X348151Y1181581D01*
X347446Y1180525D01*
X269494D01*
X267671Y1180285D01*
X265971Y1179581D01*
X264512Y1178462D01*
X248002Y1161952D01*
X246883Y1160493D01*
X246179Y1158793D01*
X245939Y1156970D01*
Y1043686D01*
X246179Y1041863D01*
X246883Y1040163D01*
X248002Y1038704D01*
X255265Y1031441D01*
X254904Y1028700D01*
X255349Y1025318D01*
X256655Y1022167D01*
X258731Y1019461D01*
X261437Y1017385D01*
X264588Y1016079D01*
X267970Y1015634D01*
X271352Y1016079D01*
X274503Y1017385D01*
X277209Y1019461D01*
X279285Y1022167D01*
X280591Y1025318D01*
X281036Y1028700D01*
X280591Y1032082D01*
X279285Y1035233D01*
X277209Y1037939D01*
X274503Y1040015D01*
X271352Y1041321D01*
X267970Y1041766D01*
X265229Y1041405D01*
X260029Y1046604D01*
Y1093229D01*
X261168Y1093791D01*
X261437Y1093585D01*
X264588Y1092279D01*
X267970Y1091834D01*
X271352Y1092279D01*
X274503Y1093585D01*
X277209Y1095661D01*
X278892Y1097855D01*
X345062D01*
X347636Y1095281D01*
X347230Y1092200D01*
X347688Y1088719D01*
X349032Y1085475D01*
X351169Y1082689D01*
X353955Y1080552D01*
X357199Y1079208D01*
X360680Y1078750D01*
X364161Y1079208D01*
X367405Y1080552D01*
X370191Y1082689D01*
X372328Y1085475D01*
X373672Y1088719D01*
X374130Y1092200D01*
X373672Y1095681D01*
X372328Y1098925D01*
X370191Y1101711D01*
X368647Y1102896D01*
X368868Y1103870D01*
X369048Y1104188D01*
X370917Y1104560D01*
X372598Y1105683D01*
X373720Y1107363D01*
X374114Y1109345D01*
Y1110555D01*
X535562D01*
X644426Y1001691D01*
Y989965D01*
X644820Y987983D01*
X645943Y986302D01*
X647623Y985180D01*
X649605Y984786D01*
X661331D01*
X666594Y979522D01*
X668053Y978403D01*
X669753Y977699D01*
X671576Y977459D01*
X749554D01*
X751377Y977699D01*
X753077Y978403D01*
X754536Y979522D01*
X758529Y983515D01*
X765471D01*
X770734Y978252D01*
X772193Y977133D01*
X773893Y976429D01*
X775716Y976189D01*
X846074D01*
X847897Y976429D01*
X849597Y977133D01*
X851056Y978252D01*
X857589Y984786D01*
X869315D01*
X871297Y985180D01*
X872978Y986302D01*
X874100Y987983D01*
X874472Y989852D01*
X874790Y990032D01*
X875764Y990254D01*
X876949Y988709D01*
X879735Y986572D01*
X882979Y985228D01*
X886460Y984770D01*
X889941Y985228D01*
X893185Y986572D01*
X895971Y988709D01*
X898108Y991495D01*
X899452Y994739D01*
X899910Y998220D01*
X899452Y1001701D01*
X898108Y1004945D01*
X895971Y1007731D01*
X893185Y1009868D01*
X889941Y1011212D01*
X886460Y1011670D01*
X886131Y1011627D01*
X885569Y1012766D01*
X904110Y1031307D01*
X1211072D01*
X1212895Y1031547D01*
X1214595Y1032251D01*
X1216054Y1033370D01*
X1259972Y1077289D01*
X1262380Y1076972D01*
X1265664Y1077404D01*
X1268724Y1078671D01*
X1271352Y1080688D01*
X1273369Y1083316D01*
X1274636Y1086376D01*
X1275069Y1089660D01*
X1274636Y1092944D01*
X1273369Y1096004D01*
X1271352Y1098632D01*
X1268724Y1100649D01*
X1265664Y1101916D01*
X1262380Y1102348D01*
X1259096Y1101916D01*
X1256036Y1100649D01*
X1253408Y1098632D01*
X1251391Y1096004D01*
X1250367Y1093532D01*
X1248993D01*
X1247969Y1096004D01*
X1245952Y1098632D01*
X1243324Y1100649D01*
X1240264Y1101916D01*
X1236980Y1102348D01*
X1233696Y1101916D01*
X1230636Y1100649D01*
X1228008Y1098632D01*
X1225991Y1096004D01*
X1224724Y1092944D01*
X1224292Y1089660D01*
X1224724Y1086376D01*
X1225991Y1083316D01*
X1228008Y1080688D01*
X1230636Y1078671D01*
X1233696Y1077404D01*
X1236980Y1076972D01*
X1238186Y1077130D01*
X1238748Y1075991D01*
X1208154Y1045397D01*
X901192D01*
X899369Y1045157D01*
X897669Y1044453D01*
X896210Y1043334D01*
X864531Y1011655D01*
X852805D01*
X850823Y1011260D01*
X849143Y1010137D01*
X848020Y1008457D01*
X847626Y1006475D01*
Y994749D01*
X843156Y990279D01*
X800214D01*
X799508Y991335D01*
X800392Y993469D01*
X800850Y996950D01*
X800392Y1000431D01*
X799048Y1003675D01*
X796911Y1006461D01*
X794125Y1008598D01*
X790881Y1009942D01*
X787400Y1010400D01*
X783919Y1009942D01*
X780675Y1008598D01*
X777889Y1006461D01*
X776704Y1004917D01*
X775730Y1005138D01*
X775412Y1005318D01*
X775040Y1007187D01*
X773917Y1008867D01*
X772237Y1009990D01*
X770255Y1010385D01*
X753745D01*
X751763Y1009990D01*
X750082Y1008867D01*
X748960Y1007187D01*
X748566Y1005205D01*
Y993479D01*
X746636Y991549D01*
X696074D01*
X695368Y992605D01*
X696252Y994739D01*
X696710Y998220D01*
X696252Y1001701D01*
X694908Y1004945D01*
X692771Y1007731D01*
X689985Y1009868D01*
X686741Y1011212D01*
X683260Y1011670D01*
X679779Y1011212D01*
X676535Y1009868D01*
X673749Y1007731D01*
X672564Y1006187D01*
X671590Y1006408D01*
X671272Y1006588D01*
X670900Y1008457D01*
X669778Y1010137D01*
X668097Y1011260D01*
X666115Y1011655D01*
X654389D01*
X543462Y1122582D01*
X542003Y1123701D01*
X540303Y1124405D01*
X538480Y1124645D01*
X374114D01*
Y1125855D01*
X373720Y1127837D01*
X372598Y1129518D01*
X370917Y1130640D01*
X368935Y1131034D01*
X352425D01*
X350443Y1130640D01*
X348763Y1129518D01*
X347640Y1127837D01*
X347245Y1125855D01*
Y1111945D01*
X278892D01*
X277209Y1114139D01*
X274503Y1116215D01*
X271352Y1117521D01*
X267970Y1117966D01*
X264588Y1117521D01*
X261437Y1116215D01*
X261168Y1116009D01*
X260029Y1116571D01*
Y1135153D01*
X261085Y1135858D01*
X262048Y1135459D01*
X265430Y1135014D01*
X268812Y1135459D01*
X271963Y1136765D01*
X274669Y1138841D01*
X276352Y1141035D01*
X476250D01*
X478073Y1141275D01*
X479773Y1141979D01*
X481232Y1143098D01*
X514220Y1176087D01*
X620337D01*
X621043Y1175031D01*
X620722Y1174255D01*
X620285Y1170940D01*
X620722Y1167625D01*
X622002Y1164535D01*
X624037Y1161882D01*
X626690Y1159847D01*
X629780Y1158567D01*
X633095Y1158130D01*
X634365D01*
X637680Y1158567D01*
X640770Y1159847D01*
X643423Y1161882D01*
X644967Y1163895D01*
X660022D01*
X663038Y1160878D01*
X664497Y1159759D01*
X666197Y1159055D01*
X668020Y1158815D01*
X681228D01*
X682911Y1156621D01*
X685617Y1154545D01*
X688768Y1153239D01*
X692150Y1152794D01*
X695532Y1153239D01*
X698683Y1154545D01*
X701389Y1156621D01*
X703465Y1159327D01*
X704771Y1162478D01*
X705216Y1165860D01*
X704771Y1169242D01*
X703465Y1172393D01*
X701389Y1175099D01*
X698683Y1177175D01*
X695532Y1178481D01*
X692150Y1178926D01*
X688768Y1178481D01*
X685617Y1177175D01*
X682911Y1175099D01*
X681228Y1172905D01*
X670938D01*
X669027Y1174817D01*
X669553Y1176087D01*
X672338D01*
X674161Y1176327D01*
X675861Y1177031D01*
X677320Y1178150D01*
X687194Y1188025D01*
X732983D01*
X734527Y1186012D01*
X737180Y1183977D01*
X739399Y1183057D01*
Y1181683D01*
X737180Y1180763D01*
X734527Y1178728D01*
X732492Y1176075D01*
X731212Y1172985D01*
X730775Y1169670D01*
X731212Y1166355D01*
X732492Y1163265D01*
X734527Y1160612D01*
X737180Y1158577D01*
X740270Y1157297D01*
X743585Y1156860D01*
X744855D01*
X748170Y1157297D01*
X751260Y1158577D01*
X753913Y1160612D01*
X755457Y1162625D01*
X771020D01*
X772766Y1160878D01*
X774225Y1159759D01*
X775925Y1159055D01*
X777748Y1158815D01*
X792988D01*
X794671Y1156621D01*
X797377Y1154545D01*
X800528Y1153239D01*
X803910Y1152794D01*
X807292Y1153239D01*
X810443Y1154545D01*
X813149Y1156621D01*
X815225Y1159327D01*
X816531Y1162478D01*
X816976Y1165860D01*
X816531Y1169242D01*
X815225Y1172393D01*
X813149Y1175099D01*
X810443Y1177175D01*
X807292Y1178481D01*
X803910Y1178926D01*
X800528Y1178481D01*
X797377Y1177175D01*
X794671Y1175099D01*
X792988Y1172905D01*
X780666D01*
X778920Y1174652D01*
X777461Y1175771D01*
X775761Y1176475D01*
X773938Y1176715D01*
X755457D01*
X753913Y1178728D01*
X751260Y1180763D01*
X749041Y1181683D01*
Y1183057D01*
X751260Y1183977D01*
X753913Y1186012D01*
X755948Y1188665D01*
X757228Y1191755D01*
X757665Y1195070D01*
X757228Y1198385D01*
X755948Y1201475D01*
X753913Y1204128D01*
X751260Y1206163D01*
X748170Y1207443D01*
X744855Y1207880D01*
X743585D01*
X740270Y1207443D01*
X737180Y1206163D01*
X734527Y1204128D01*
X732983Y1202115D01*
X684276D01*
X682453Y1201875D01*
X680753Y1201171D01*
X679294Y1200052D01*
X669420Y1190177D01*
X646702D01*
X645996Y1191233D01*
X646738Y1193025D01*
X647175Y1196340D01*
X646738Y1199655D01*
X645458Y1202745D01*
X643423Y1205398D01*
X640770Y1207433D01*
X637680Y1208713D01*
X634365Y1209150D01*
X633095D01*
X629780Y1208713D01*
X626690Y1207433D01*
X624037Y1205398D01*
X622002Y1202745D01*
X620722Y1199655D01*
X620285Y1196340D01*
X620722Y1193025D01*
X621464Y1191233D01*
X620758Y1190177D01*
X511302D01*
X509479Y1189937D01*
X507779Y1189233D01*
X506320Y1188114D01*
X473332Y1155125D01*
X374114D01*
Y1166435D01*
X453136D01*
X454959Y1166675D01*
X456659Y1167379D01*
X458118Y1168498D01*
X519046Y1229427D01*
X622891D01*
X623490Y1228307D01*
X623303Y1228028D01*
X622811Y1225550D01*
Y1223010D01*
X633730D01*
X644649D01*
Y1225550D01*
X644157Y1228028D01*
X643970Y1228307D01*
X644569Y1229427D01*
X734049D01*
X734728Y1228157D01*
X733793Y1226758D01*
X733301Y1224280D01*
Y1221740D01*
X744220D01*
X755139D01*
Y1224280D01*
X754647Y1226758D01*
X753712Y1228157D01*
X754391Y1229427D01*
X864859D01*
X865538Y1228157D01*
X864603Y1226758D01*
X864111Y1224280D01*
Y1221740D01*
X875030D01*
Y1220470D01*
X876300D01*
Y1210186D01*
X879475D01*
X879703Y1210231D01*
X880685Y1209425D01*
Y1207880D01*
X879629Y1207175D01*
X878980Y1207443D01*
X875665Y1207880D01*
X874395D01*
X871080Y1207443D01*
X867990Y1206163D01*
X865337Y1204128D01*
X863302Y1201475D01*
X862022Y1198385D01*
X861585Y1195070D01*
X862022Y1191755D01*
X863302Y1188665D01*
X865337Y1186012D01*
X867990Y1183977D01*
X870210Y1183057D01*
Y1181683D01*
X867990Y1180763D01*
X865337Y1178728D01*
X863302Y1176075D01*
X862022Y1172985D01*
X861585Y1169670D01*
X862022Y1166355D01*
X863302Y1163265D01*
X865337Y1160612D01*
X867990Y1158577D01*
X871080Y1157297D01*
X874395Y1156860D01*
X875665D01*
X878980Y1157297D01*
X882070Y1158577D01*
X884723Y1160612D01*
X886267Y1162625D01*
X901322D01*
X903068Y1160878D01*
X904527Y1159759D01*
X906227Y1159055D01*
X908050Y1158815D01*
X922528D01*
X924211Y1156621D01*
X926917Y1154545D01*
X930068Y1153239D01*
X933450Y1152794D01*
X936832Y1153239D01*
X939983Y1154545D01*
X942689Y1156621D01*
X944765Y1159327D01*
X946071Y1162478D01*
X946516Y1165860D01*
X946071Y1169242D01*
X944765Y1172393D01*
X942689Y1175099D01*
X939983Y1177175D01*
X936832Y1178481D01*
X933450Y1178926D01*
X930068Y1178481D01*
X926917Y1177175D01*
X924211Y1175099D01*
X922528Y1172905D01*
X910968D01*
X909222Y1174652D01*
X907763Y1175771D01*
X906063Y1176475D01*
X904240Y1176715D01*
X886267D01*
X884723Y1178728D01*
X882070Y1180763D01*
X879850Y1181683D01*
Y1183057D01*
X882070Y1183977D01*
X884723Y1186012D01*
X886388Y1188182D01*
X887013Y1188265D01*
X888713Y1188969D01*
X890172Y1190088D01*
X892712Y1192628D01*
X893831Y1194087D01*
X894535Y1195787D01*
X894775Y1197610D01*
Y1231392D01*
X894535Y1233215D01*
X893831Y1234915D01*
X892712Y1236374D01*
X887632Y1241454D01*
X886173Y1242573D01*
X884473Y1243277D01*
X882650Y1243517D01*
D02*
G37*
G36*
X1286510Y1088390D02*
X1277821D01*
X1277998Y1087039D01*
X1279010Y1084597D01*
X1280619Y1082499D01*
X1282717Y1080890D01*
X1285159Y1079878D01*
X1286510Y1079701D01*
Y1088390D01*
D02*
G37*
G36*
X1297739D02*
X1289050D01*
Y1079701D01*
X1290401Y1079878D01*
X1292843Y1080890D01*
X1294941Y1082499D01*
X1296550Y1084597D01*
X1297562Y1087039D01*
X1297739Y1088390D01*
D02*
G37*
G36*
X1286510Y1099619D02*
X1285159Y1099442D01*
X1282717Y1098430D01*
X1280619Y1096821D01*
X1279010Y1094723D01*
X1277998Y1092281D01*
X1277821Y1090930D01*
X1286510D01*
Y1099619D01*
D02*
G37*
G36*
X254759Y664210D02*
X245110D01*
Y655196D01*
X248285D01*
X250763Y655688D01*
X252863Y657092D01*
X254267Y659192D01*
X254759Y661670D01*
Y664210D01*
D02*
G37*
G36*
X139189Y661670D02*
X129540D01*
Y652656D01*
X132715D01*
X135193Y653148D01*
X137293Y654552D01*
X138697Y656652D01*
X139189Y659130D01*
Y661670D01*
D02*
G37*
G36*
X127000D02*
X117351D01*
Y659130D01*
X117843Y656652D01*
X119247Y654552D01*
X121347Y653148D01*
X123825Y652656D01*
X127000D01*
Y661670D01*
D02*
G37*
G36*
X742950Y1219200D02*
X733301D01*
Y1216660D01*
X733793Y1214182D01*
X735197Y1212082D01*
X737297Y1210678D01*
X739775Y1210186D01*
X742950D01*
Y1219200D01*
D02*
G37*
G36*
X242570Y664210D02*
X232921D01*
Y661670D01*
X233413Y659192D01*
X234817Y657092D01*
X236917Y655688D01*
X239395Y655196D01*
X242570D01*
Y664210D01*
D02*
G37*
G36*
X42669D02*
X33020D01*
Y655196D01*
X36195D01*
X38673Y655688D01*
X40773Y657092D01*
X42177Y659192D01*
X42669Y661670D01*
Y664210D01*
D02*
G37*
G36*
X30480D02*
X20831D01*
Y661670D01*
X21323Y659192D01*
X22727Y657092D01*
X24827Y655688D01*
X27305Y655196D01*
X30480D01*
Y664210D01*
D02*
G37*
G36*
X933450Y1102726D02*
X930068Y1102281D01*
X926917Y1100975D01*
X924211Y1098899D01*
X922135Y1096193D01*
X920829Y1093042D01*
X920384Y1089660D01*
X920829Y1086278D01*
X922135Y1083127D01*
X924211Y1080421D01*
X926917Y1078345D01*
X930068Y1077039D01*
X933450Y1076594D01*
X936832Y1077039D01*
X939983Y1078345D01*
X942689Y1080421D01*
X944765Y1083127D01*
X946071Y1086278D01*
X946516Y1089660D01*
X946071Y1093042D01*
X944765Y1096193D01*
X942689Y1098899D01*
X939983Y1100975D01*
X936832Y1102281D01*
X933450Y1102726D01*
D02*
G37*
G36*
X30480Y675764D02*
X27305D01*
X24827Y675272D01*
X22727Y673868D01*
X21323Y671768D01*
X20831Y669290D01*
Y666750D01*
X30480D01*
Y675764D01*
D02*
G37*
G36*
X132715Y673224D02*
X129540D01*
Y664210D01*
X139189D01*
Y666750D01*
X138697Y669228D01*
X137293Y671328D01*
X135193Y672732D01*
X132715Y673224D01*
D02*
G37*
G36*
X127000D02*
X123825D01*
X121347Y672732D01*
X119247Y671328D01*
X117843Y669228D01*
X117351Y666750D01*
Y664210D01*
X127000D01*
Y673224D01*
D02*
G37*
G36*
X248285Y675764D02*
X245110D01*
Y666750D01*
X254759D01*
Y669290D01*
X254267Y671768D01*
X252863Y673868D01*
X250763Y675272D01*
X248285Y675764D01*
D02*
G37*
G36*
X36195D02*
X33020D01*
Y666750D01*
X42669D01*
Y669290D01*
X42177Y671768D01*
X40773Y673868D01*
X38673Y675272D01*
X36195Y675764D01*
D02*
G37*
G36*
X242570D02*
X239395D01*
X236917Y675272D01*
X234817Y673868D01*
X233413Y671768D01*
X232921Y669290D01*
Y666750D01*
X242570D01*
Y675764D01*
D02*
G37*
G36*
X210820Y739506D02*
X207438Y739061D01*
X204287Y737755D01*
X201581Y735679D01*
X199505Y732973D01*
X198199Y729822D01*
X197754Y726440D01*
X198199Y723058D01*
X199505Y719907D01*
X201581Y717201D01*
X204287Y715125D01*
X207438Y713819D01*
X210820Y713374D01*
X214202Y713819D01*
X217353Y715125D01*
X220059Y717201D01*
X222135Y719907D01*
X223441Y723058D01*
X223886Y726440D01*
X223441Y729822D01*
X222135Y732973D01*
X220059Y735679D01*
X217353Y737755D01*
X214202Y739061D01*
X210820Y739506D01*
D02*
G37*
G36*
X814070Y960486D02*
X810688Y960041D01*
X807537Y958735D01*
X804831Y956659D01*
X802755Y953953D01*
X801449Y950802D01*
X801377Y950250D01*
X800096D01*
X800023Y950802D01*
X798718Y953953D01*
X796641Y956659D01*
X793935Y958735D01*
X790784Y960041D01*
X787402Y960486D01*
X784021Y960041D01*
X780870Y958735D01*
X778164Y956659D01*
X776087Y953953D01*
X774782Y950802D01*
X774337Y947420D01*
X774782Y944038D01*
X776087Y940887D01*
X778164Y938181D01*
X780870Y936105D01*
X784021Y934799D01*
X787402Y934354D01*
X789524Y934633D01*
X790117Y933431D01*
X552548Y695862D01*
X551429Y694403D01*
X550725Y692703D01*
X550485Y690880D01*
Y663674D01*
X541359D01*
X450244Y754790D01*
X448785Y755909D01*
X447085Y756613D01*
X445262Y756853D01*
X320061D01*
X319557Y757493D01*
X319920Y758406D01*
X320128Y758722D01*
X323521Y759168D01*
X326765Y760512D01*
X329551Y762649D01*
X331688Y765435D01*
X333032Y768679D01*
X333490Y772160D01*
X333032Y775641D01*
X332148Y777775D01*
X332854Y778831D01*
X549659D01*
X551482Y779071D01*
X553181Y779775D01*
X554640Y780894D01*
X708461Y934715D01*
X711202Y934354D01*
X714584Y934799D01*
X717735Y936105D01*
X720441Y938181D01*
X722518Y940887D01*
X723823Y944038D01*
X724268Y947420D01*
X723823Y950802D01*
X722518Y953953D01*
X720441Y956659D01*
X717735Y958735D01*
X714584Y960041D01*
X711202Y960486D01*
X707821Y960041D01*
X704670Y958735D01*
X701964Y956659D01*
X699887Y953953D01*
X698926Y951631D01*
X697551D01*
X697115Y952683D01*
X695039Y955389D01*
X692333Y957465D01*
X689182Y958771D01*
X685800Y959216D01*
X682418Y958771D01*
X679267Y957465D01*
X676561Y955389D01*
X674485Y952683D01*
X673179Y949532D01*
X672734Y946150D01*
X673179Y942768D01*
X674485Y939617D01*
X676561Y936911D01*
X679267Y934835D01*
X682418Y933529D01*
X685188Y933165D01*
X685648Y931829D01*
X546740Y792921D01*
X62230D01*
X60407Y792681D01*
X58707Y791977D01*
X57248Y790858D01*
X53438Y787048D01*
X52319Y785589D01*
X51615Y783889D01*
X51375Y782066D01*
Y755650D01*
X51615Y753827D01*
X52319Y752127D01*
X53438Y750668D01*
X64868Y739238D01*
X66327Y738119D01*
X68027Y737415D01*
X69850Y737175D01*
X90069D01*
X90500Y735905D01*
X88551Y734409D01*
X86475Y731703D01*
X85169Y728552D01*
X84724Y725170D01*
X85169Y721788D01*
X86475Y718637D01*
X88551Y715931D01*
X91257Y713855D01*
X94408Y712549D01*
X97790Y712104D01*
X101172Y712549D01*
X104323Y713855D01*
X107029Y715931D01*
X109105Y718637D01*
X110411Y721788D01*
X110856Y725170D01*
X110411Y728552D01*
X109105Y731703D01*
X107029Y734409D01*
X105079Y735905D01*
X105511Y737175D01*
X113922D01*
X121915Y729181D01*
X121554Y726440D01*
X121999Y723058D01*
X123305Y719907D01*
X125381Y717201D01*
X128087Y715125D01*
X131238Y713819D01*
X134620Y713374D01*
X138002Y713819D01*
X141153Y715125D01*
X143859Y717201D01*
X145935Y719907D01*
X147241Y723058D01*
X147686Y726440D01*
X147241Y729822D01*
X145935Y732973D01*
X143859Y735679D01*
X141153Y737755D01*
X138002Y739061D01*
X134620Y739506D01*
X131879Y739145D01*
X122165Y748859D01*
X122650Y750129D01*
X171704D01*
X173527Y750369D01*
X175227Y751073D01*
X176686Y752192D01*
X183219Y758726D01*
X190161D01*
X194408Y754478D01*
X195867Y753359D01*
X197567Y752655D01*
X199390Y752415D01*
X281940D01*
X283763Y752655D01*
X285463Y753359D01*
X286922Y754478D01*
X291169Y758726D01*
X298111D01*
X312010Y744826D01*
X313469Y743707D01*
X315169Y743003D01*
X316992Y742763D01*
X442344D01*
X531395Y653711D01*
Y644585D01*
X343278D01*
X262895Y724969D01*
X263256Y727710D01*
X262811Y731092D01*
X261505Y734243D01*
X259429Y736949D01*
X256723Y739025D01*
X253572Y740331D01*
X250190Y740776D01*
X246808Y740331D01*
X243657Y739025D01*
X240951Y736949D01*
X238875Y734243D01*
X237569Y731092D01*
X237124Y727710D01*
X237569Y724328D01*
X238875Y721177D01*
X240951Y718471D01*
X243657Y716395D01*
X246808Y715089D01*
X250190Y714644D01*
X252931Y715005D01*
X335378Y632558D01*
X336837Y631439D01*
X338537Y630735D01*
X340360Y630495D01*
X522945D01*
X523376Y629225D01*
X522830Y628806D01*
X459362Y565337D01*
X284565D01*
X284312Y566607D01*
X287203Y567805D01*
X289909Y569881D01*
X291985Y572587D01*
X293291Y575738D01*
X293736Y579120D01*
X293291Y582502D01*
X291985Y585653D01*
X289909Y588359D01*
X287203Y590435D01*
X284052Y591741D01*
X280670Y592186D01*
X277288Y591741D01*
X274137Y590435D01*
X271431Y588359D01*
X269748Y586165D01*
X265808D01*
X250885Y601088D01*
Y603591D01*
X253533Y605622D01*
X255568Y608275D01*
X256848Y611365D01*
X257285Y614680D01*
X256848Y617995D01*
X255568Y621085D01*
X253533Y623738D01*
X250880Y625773D01*
X248661Y626693D01*
Y628067D01*
X250880Y628987D01*
X253533Y631022D01*
X255568Y633675D01*
X256848Y636765D01*
X257285Y640080D01*
X256848Y643395D01*
X255568Y646485D01*
X253533Y649138D01*
X250880Y651173D01*
X247790Y652453D01*
X244475Y652890D01*
X243205D01*
X239890Y652453D01*
X236800Y651173D01*
X234147Y649138D01*
X232112Y646485D01*
X230832Y643395D01*
X230395Y640080D01*
X230832Y636765D01*
X232112Y633675D01*
X234147Y631022D01*
X236800Y628987D01*
X239020Y628067D01*
Y626693D01*
X236800Y625773D01*
X234147Y623738D01*
X232112Y621085D01*
X230832Y617995D01*
X230395Y614680D01*
X230832Y611365D01*
X232112Y608275D01*
X234147Y605622D01*
X236795Y603591D01*
Y598170D01*
X237035Y596347D01*
X237739Y594647D01*
X238858Y593188D01*
X257908Y574138D01*
X259367Y573019D01*
X261067Y572315D01*
X262890Y572075D01*
X269748D01*
X271431Y569881D01*
X274137Y567805D01*
X277028Y566607D01*
X276775Y565337D01*
X177917D01*
X177290Y566607D01*
X178955Y568777D01*
X180261Y571928D01*
X180706Y575310D01*
X180261Y578692D01*
X178955Y581843D01*
X176879Y584549D01*
X174685Y586232D01*
Y598170D01*
X174445Y599993D01*
X173741Y601693D01*
X172622Y603152D01*
X158652Y617122D01*
X157193Y618241D01*
X155493Y618945D01*
X153670Y619185D01*
X139507D01*
X137963Y621198D01*
X135310Y623233D01*
X133090Y624153D01*
Y625527D01*
X135310Y626447D01*
X137963Y628482D01*
X139998Y631135D01*
X141278Y634225D01*
X141715Y637540D01*
X141278Y640855D01*
X139998Y643945D01*
X137963Y646598D01*
X135310Y648633D01*
X132220Y649913D01*
X128905Y650350D01*
X127635D01*
X124320Y649913D01*
X121230Y648633D01*
X118577Y646598D01*
X116542Y643945D01*
X115262Y640855D01*
X114825Y637540D01*
X115262Y634225D01*
X116542Y631135D01*
X118577Y628482D01*
X121230Y626447D01*
X123449Y625527D01*
Y624153D01*
X121230Y623233D01*
X118577Y621198D01*
X116542Y618545D01*
X115262Y615455D01*
X114825Y612140D01*
X115262Y608825D01*
X116542Y605735D01*
X118577Y603082D01*
X121230Y601047D01*
X124320Y599767D01*
X127635Y599330D01*
X128905D01*
X132220Y599767D01*
X135310Y601047D01*
X137963Y603082D01*
X139507Y605095D01*
X150752D01*
X160595Y595252D01*
Y586232D01*
X158401Y584549D01*
X156325Y581843D01*
X155019Y578692D01*
X154574Y575310D01*
X155019Y571928D01*
X156325Y568777D01*
X157990Y566607D01*
X157363Y565337D01*
X74864D01*
X73936Y566547D01*
X73938Y566607D01*
X76549Y568611D01*
X78625Y571317D01*
X79931Y574468D01*
X80376Y577850D01*
X79931Y581232D01*
X78625Y584383D01*
X76549Y587089D01*
X73843Y589165D01*
X70692Y590471D01*
X67310Y590916D01*
X63928Y590471D01*
X60777Y589165D01*
X58071Y587089D01*
X55995Y584383D01*
X54689Y581232D01*
X54244Y577850D01*
X54689Y574468D01*
X55995Y571317D01*
X58071Y568611D01*
X60777Y566535D01*
X62446Y565844D01*
X62446Y564469D01*
X62263Y564393D01*
X60804Y563274D01*
X49882Y552352D01*
X48763Y550893D01*
X48059Y549193D01*
X47819Y547370D01*
Y496570D01*
X48059Y494747D01*
X48763Y493047D01*
X49882Y491588D01*
X57248Y484222D01*
X58707Y483103D01*
X60407Y482399D01*
X62230Y482159D01*
X157734D01*
X159557Y482399D01*
X161257Y483103D01*
X162716Y484222D01*
X164899Y486405D01*
X167640Y486044D01*
X171022Y486489D01*
X174173Y487795D01*
X176879Y489871D01*
X178955Y492577D01*
X180261Y495728D01*
X180706Y499110D01*
X180261Y502492D01*
X178955Y505643D01*
X176879Y508349D01*
X174173Y510425D01*
X171022Y511731D01*
X167640Y512176D01*
X164258Y511731D01*
X161107Y510425D01*
X158401Y508349D01*
X156325Y505643D01*
X155019Y502492D01*
X154574Y499110D01*
X154784Y497519D01*
X153670Y496249D01*
X80237D01*
X79532Y497305D01*
X79931Y498268D01*
X80376Y501650D01*
X80015Y504391D01*
X104518Y528895D01*
X531388D01*
X531773Y527625D01*
X531642Y527537D01*
X530520Y525857D01*
X530126Y523875D01*
Y507365D01*
X530520Y505383D01*
X531642Y503703D01*
X533323Y502580D01*
X535305Y502186D01*
X551815D01*
X553797Y502580D01*
X555477Y503703D01*
X556600Y505383D01*
X556972Y507252D01*
X557290Y507432D01*
X558265Y507654D01*
X559449Y506109D01*
X562235Y503972D01*
X565479Y502628D01*
X568960Y502170D01*
X572441Y502628D01*
X575685Y503972D01*
X578471Y506109D01*
X580362Y508575D01*
X583822D01*
X584298Y508098D01*
X585757Y506979D01*
X587457Y506275D01*
X589280Y506035D01*
X596138D01*
X597821Y503841D01*
X600527Y501765D01*
X603678Y500459D01*
X607060Y500014D01*
X610442Y500459D01*
X613593Y501765D01*
X616299Y503841D01*
X618375Y506547D01*
X619681Y509698D01*
X620126Y513080D01*
X619681Y516462D01*
X618375Y519613D01*
X616299Y522319D01*
X613593Y524395D01*
X610442Y525701D01*
X607060Y526146D01*
X603678Y525701D01*
X600527Y524395D01*
X597821Y522319D01*
X596138Y520125D01*
X592198D01*
X591722Y520602D01*
X590263Y521721D01*
X588563Y522425D01*
X586740Y522665D01*
X580362D01*
X578471Y525131D01*
X575685Y527268D01*
X574824Y527625D01*
X575077Y528895D01*
X741680D01*
X743503Y529135D01*
X745203Y529839D01*
X746662Y530958D01*
X855088Y639385D01*
X868417D01*
X868943Y638115D01*
X365636Y134807D01*
X361436D01*
X360588Y136077D01*
X361238Y137647D01*
X361370Y138312D01*
X361588Y138953D01*
X361931Y141564D01*
X361887Y142240D01*
X361931Y142916D01*
X361588Y145527D01*
X361370Y146168D01*
X361238Y146833D01*
X360230Y149265D01*
X359854Y149829D01*
X359554Y150436D01*
X357951Y152525D01*
X357442Y152972D01*
X356995Y153481D01*
X354906Y155084D01*
X354299Y155384D01*
X353735Y155760D01*
X351303Y156768D01*
X350638Y156900D01*
X349997Y157118D01*
X347386Y157462D01*
X347045Y157439D01*
X346710Y157506D01*
X346375Y157439D01*
X346034Y157462D01*
X343423Y157118D01*
X342782Y156900D01*
X342117Y156768D01*
X339685Y155760D01*
X339121Y155384D01*
X338514Y155084D01*
X336425Y153481D01*
X335978Y152972D01*
X335469Y152525D01*
X333866Y150436D01*
X333566Y149829D01*
X333190Y149265D01*
X332182Y146833D01*
X332050Y146168D01*
X331832Y145527D01*
X331488Y142916D01*
X331533Y142240D01*
X331488Y141564D01*
X331832Y138953D01*
X332050Y138312D01*
X332182Y137647D01*
X332832Y136077D01*
X331984Y134807D01*
X324104D01*
X322281Y134567D01*
X320581Y133863D01*
X319122Y132744D01*
X289690Y103311D01*
X218694D01*
X216871Y103071D01*
X215171Y102367D01*
X213712Y101248D01*
X207616Y95152D01*
X206497Y93693D01*
X205793Y91993D01*
X205553Y90170D01*
Y69850D01*
X205793Y68027D01*
X206497Y66327D01*
X207616Y64868D01*
X226666Y45818D01*
X228125Y44699D01*
X229825Y43995D01*
X231648Y43755D01*
X233302D01*
X238755Y38301D01*
X238394Y35560D01*
X238839Y32178D01*
X240145Y29027D01*
X242221Y26321D01*
X244927Y24245D01*
X248078Y22939D01*
X251460Y22494D01*
X254842Y22939D01*
X257993Y24245D01*
X260699Y26321D01*
X262594Y28791D01*
X302348Y29785D01*
X339598D01*
X341281Y27591D01*
X343987Y25515D01*
X347138Y24209D01*
X350520Y23764D01*
X353261Y24125D01*
X359000Y18386D01*
X360459Y17267D01*
X362159Y16563D01*
X363982Y16323D01*
X527558D01*
X529381Y16563D01*
X531081Y17267D01*
X532540Y18386D01*
X539549Y25395D01*
X542290Y25034D01*
X545031Y25395D01*
X550770Y19656D01*
X552229Y18537D01*
X553929Y17833D01*
X555752Y17593D01*
X720598D01*
X722421Y17833D01*
X724121Y18537D01*
X725580Y19656D01*
X732589Y26665D01*
X735330Y26304D01*
X738712Y26749D01*
X741863Y28055D01*
X744569Y30131D01*
X746645Y32837D01*
X747951Y35988D01*
X748396Y39370D01*
X747951Y42752D01*
X746645Y45903D01*
X744569Y48609D01*
X741863Y50685D01*
X738712Y51991D01*
X735330Y52436D01*
X731948Y51991D01*
X728797Y50685D01*
X726091Y48609D01*
X724015Y45903D01*
X722709Y42752D01*
X722264Y39370D01*
X722625Y36629D01*
X717680Y31683D01*
X630996D01*
X630291Y32739D01*
X631111Y34718D01*
X631556Y38100D01*
X631111Y41482D01*
X629805Y44633D01*
X627729Y47339D01*
X625023Y49415D01*
X621872Y50721D01*
X618490Y51166D01*
X615749Y50805D01*
X602185Y64368D01*
X602905Y65445D01*
X603745Y65097D01*
X605790Y64828D01*
Y76200D01*
X594418D01*
X594687Y74155D01*
X595035Y73315D01*
X593958Y72595D01*
X584102Y82452D01*
X582643Y83571D01*
X580943Y84275D01*
X579120Y84515D01*
X569775D01*
X568993Y85978D01*
X567089Y88299D01*
X564768Y90203D01*
X562120Y91618D01*
X559248Y92490D01*
X556260Y92784D01*
X553272Y92490D01*
X550400Y91618D01*
X547752Y90203D01*
X545432Y88299D01*
X543527Y85978D01*
X542112Y83330D01*
X541241Y80458D01*
X540946Y77470D01*
X541241Y74482D01*
X542112Y71610D01*
X543527Y68962D01*
X545432Y66642D01*
X547752Y64737D01*
X550400Y63322D01*
X553272Y62450D01*
X556260Y62156D01*
X559248Y62450D01*
X562120Y63322D01*
X564768Y64737D01*
X567089Y66642D01*
X568993Y68962D01*
X569775Y70425D01*
X576202D01*
X605785Y40841D01*
X605424Y38100D01*
X605869Y34718D01*
X606689Y32739D01*
X605984Y31683D01*
X558670D01*
X554995Y35359D01*
X555356Y38100D01*
X554911Y41482D01*
X553605Y44633D01*
X551529Y47339D01*
X548823Y49415D01*
X545672Y50721D01*
X542290Y51166D01*
X538908Y50721D01*
X535757Y49415D01*
X533051Y47339D01*
X530975Y44633D01*
X529669Y41482D01*
X529224Y38100D01*
X529585Y35359D01*
X524640Y30413D01*
X439226D01*
X438521Y31469D01*
X439341Y33448D01*
X439786Y36830D01*
X439341Y40212D01*
X438035Y43363D01*
X435959Y46069D01*
X433253Y48145D01*
X430102Y49451D01*
X426720Y49896D01*
X423979Y49535D01*
X389792Y83722D01*
X388333Y84841D01*
X386633Y85545D01*
X384810Y85785D01*
X379275D01*
X378493Y87248D01*
X376589Y89569D01*
X374268Y91473D01*
X371620Y92888D01*
X368748Y93759D01*
X365760Y94054D01*
X362772Y93759D01*
X359900Y92888D01*
X357252Y91473D01*
X354931Y89569D01*
X353027Y87248D01*
X351612Y84600D01*
X350741Y81728D01*
X350446Y78740D01*
X350741Y75752D01*
X351612Y72880D01*
X353027Y70232D01*
X354931Y67912D01*
X357252Y66007D01*
X359900Y64592D01*
X362772Y63720D01*
X365760Y63426D01*
X368748Y63720D01*
X371620Y64592D01*
X374268Y66007D01*
X376589Y67912D01*
X378493Y70232D01*
X379275Y71695D01*
X381892D01*
X414015Y39571D01*
X413654Y36830D01*
X414099Y33448D01*
X414919Y31469D01*
X414214Y30413D01*
X366900D01*
X363225Y34089D01*
X363586Y36830D01*
X363141Y40212D01*
X361835Y43363D01*
X359759Y46069D01*
X357053Y48145D01*
X353902Y49451D01*
X350520Y49896D01*
X347138Y49451D01*
X343987Y48145D01*
X341281Y46069D01*
X339598Y43875D01*
X302260D01*
X302172Y43864D01*
X302084Y43873D01*
X262175Y42875D01*
X260699Y44799D01*
X257993Y46875D01*
X254842Y48181D01*
X251460Y48626D01*
X248719Y48265D01*
X241202Y55782D01*
X239743Y56901D01*
X238043Y57605D01*
X236220Y57845D01*
X234566D01*
X228717Y63694D01*
X229126Y64897D01*
X230645Y65097D01*
X233735Y66377D01*
X236388Y68412D01*
X238423Y71065D01*
X239703Y74155D01*
X239972Y76200D01*
X227330D01*
Y78740D01*
X239972D01*
X239703Y80785D01*
X238423Y83875D01*
X236388Y86528D01*
X234533Y87951D01*
X234964Y89221D01*
X292608D01*
X294431Y89461D01*
X296131Y90165D01*
X297590Y91284D01*
X327022Y120717D01*
X368554D01*
X370377Y120957D01*
X372077Y121661D01*
X373536Y122780D01*
X877440Y626685D01*
X948399D01*
X949878Y624758D01*
X952506Y622741D01*
X955566Y621474D01*
X958850Y621041D01*
X962134Y621474D01*
X965194Y622741D01*
X967822Y624758D01*
X969301Y626685D01*
X973799D01*
X975278Y624758D01*
X977906Y622741D01*
X980378Y621717D01*
Y620343D01*
X977906Y619319D01*
X975278Y617302D01*
X973261Y614674D01*
X971994Y611614D01*
X971562Y608330D01*
X971994Y605046D01*
X973261Y601986D01*
X975278Y599358D01*
X977906Y597341D01*
X980378Y596317D01*
Y594943D01*
X977906Y593919D01*
X975278Y591902D01*
X973261Y589274D01*
X972237Y586802D01*
X970863D01*
X969839Y589274D01*
X967822Y591902D01*
X965194Y593919D01*
X962134Y595186D01*
X958850Y595619D01*
X955566Y595186D01*
X952506Y593919D01*
X949878Y591902D01*
X947861Y589274D01*
X946594Y586214D01*
X946161Y582930D01*
X946594Y579646D01*
X947861Y576586D01*
X949878Y573958D01*
X952506Y571941D01*
X954978Y570917D01*
Y569543D01*
X952506Y568519D01*
X949878Y566502D01*
X947861Y563874D01*
X946594Y560814D01*
X946161Y557530D01*
X946594Y554246D01*
X947861Y551186D01*
X949878Y548558D01*
X952506Y546541D01*
X954978Y545517D01*
Y544143D01*
X952506Y543119D01*
X949878Y541102D01*
X947861Y538474D01*
X946594Y535414D01*
X946161Y532130D01*
X946594Y528846D01*
X947861Y525786D01*
X949878Y523158D01*
X952506Y521141D01*
X954978Y520117D01*
Y518743D01*
X952506Y517719D01*
X949878Y515702D01*
X947861Y513074D01*
X946594Y510014D01*
X946161Y506730D01*
X946594Y503446D01*
X947861Y500386D01*
X949878Y497758D01*
X952506Y495741D01*
X954978Y494717D01*
Y493343D01*
X952506Y492319D01*
X949878Y490302D01*
X947861Y487674D01*
X946594Y484614D01*
X946161Y481330D01*
X946594Y478046D01*
X947861Y474986D01*
X949878Y472358D01*
X952506Y470341D01*
X954978Y469317D01*
Y467943D01*
X952506Y466919D01*
X949878Y464902D01*
X947861Y462274D01*
X946594Y459214D01*
X946161Y455930D01*
X946594Y452646D01*
X947861Y449586D01*
X949878Y446958D01*
X952506Y444941D01*
X954978Y443917D01*
Y442543D01*
X952506Y441519D01*
X949878Y439502D01*
X948399Y437575D01*
X720090D01*
X718267Y437335D01*
X716567Y436631D01*
X715108Y435512D01*
X547911Y268314D01*
X544830Y268720D01*
X541349Y268262D01*
X538105Y266918D01*
X535319Y264781D01*
X533182Y261995D01*
X531838Y258751D01*
X531380Y255270D01*
X531838Y251789D01*
X533182Y248545D01*
X535319Y245759D01*
X538105Y243622D01*
X541349Y242278D01*
X544830Y241820D01*
X548311Y242278D01*
X551555Y243622D01*
X554341Y245759D01*
X556478Y248545D01*
X557822Y251789D01*
X558280Y255270D01*
X557874Y258351D01*
X723008Y423485D01*
X948399D01*
X949878Y421558D01*
X952506Y419541D01*
X954978Y418517D01*
Y417143D01*
X952506Y416119D01*
X949878Y414102D01*
X948399Y412175D01*
X883920D01*
X882097Y411935D01*
X880397Y411231D01*
X878938Y410112D01*
X739681Y270854D01*
X736600Y271260D01*
X733119Y270802D01*
X729875Y269458D01*
X727089Y267321D01*
X724952Y264535D01*
X723608Y261291D01*
X723150Y257810D01*
X723608Y254329D01*
X724952Y251085D01*
X727089Y248299D01*
X729875Y246162D01*
X733119Y244818D01*
X736600Y244360D01*
X740081Y244818D01*
X743325Y246162D01*
X746111Y248299D01*
X748248Y251085D01*
X749592Y254329D01*
X750050Y257810D01*
X749644Y260891D01*
X886838Y398085D01*
X948399D01*
X949878Y396158D01*
X952506Y394141D01*
X955566Y392874D01*
X958850Y392441D01*
X961258Y392758D01*
X964304Y389713D01*
X963584Y388636D01*
X961471Y389512D01*
X960120Y389689D01*
Y381000D01*
X968809D01*
X968632Y382351D01*
X967620Y384793D01*
X967379Y385107D01*
X968285Y386013D01*
X968535Y385821D01*
X970235Y385117D01*
X971425Y384960D01*
X972288Y383723D01*
X971994Y383014D01*
X971562Y379730D01*
X971994Y376446D01*
X973261Y373386D01*
X975278Y370758D01*
X977906Y368741D01*
X980378Y367717D01*
Y366343D01*
X977906Y365319D01*
X975278Y363302D01*
X973261Y360674D01*
X972237Y358202D01*
X970863D01*
X969839Y360674D01*
X967822Y363302D01*
X965194Y365319D01*
X962134Y366586D01*
X958850Y367019D01*
X955566Y366586D01*
X952506Y365319D01*
X949878Y363302D01*
X947861Y360674D01*
X946594Y357614D01*
X946161Y354330D01*
X946594Y351046D01*
X947861Y347986D01*
X949878Y345358D01*
X952506Y343341D01*
X954978Y342317D01*
Y340943D01*
X952506Y339919D01*
X949878Y337902D01*
X947861Y335274D01*
X946594Y332214D01*
X946161Y328930D01*
X946594Y325646D01*
X947861Y322586D01*
X949878Y319958D01*
X952506Y317941D01*
X954978Y316917D01*
Y315543D01*
X952506Y314519D01*
X949878Y312502D01*
X947861Y309874D01*
X946594Y306814D01*
X946161Y303530D01*
X946594Y300246D01*
X947861Y297186D01*
X949878Y294558D01*
X952506Y292541D01*
X954978Y291517D01*
Y290143D01*
X952506Y289119D01*
X949878Y287102D01*
X947861Y284474D01*
X946594Y281414D01*
X946161Y278130D01*
X946594Y274846D01*
X947861Y271786D01*
X949878Y269158D01*
X952506Y267141D01*
X954978Y266117D01*
Y264743D01*
X952506Y263719D01*
X949878Y261702D01*
X947861Y259074D01*
X946594Y256014D01*
X946161Y252730D01*
X946594Y249446D01*
X947861Y246386D01*
X949878Y243758D01*
X952506Y241741D01*
X954978Y240717D01*
Y239343D01*
X952506Y238319D01*
X949878Y236302D01*
X947861Y233674D01*
X946594Y230614D01*
X946161Y227330D01*
X946594Y224046D01*
X947861Y220986D01*
X949878Y218358D01*
X952506Y216341D01*
X954978Y215317D01*
Y213943D01*
X952506Y212919D01*
X949878Y210902D01*
X947861Y208274D01*
X946594Y205214D01*
X946161Y201930D01*
X946594Y198646D01*
X947861Y195586D01*
X949878Y192958D01*
X952506Y190941D01*
X954978Y189917D01*
Y188543D01*
X952506Y187519D01*
X949878Y185502D01*
X947861Y182874D01*
X946594Y179814D01*
X946161Y176530D01*
X946594Y173246D01*
X947861Y170186D01*
X949878Y167558D01*
X952506Y165541D01*
X954978Y164517D01*
Y163143D01*
X952506Y162119D01*
X949878Y160102D01*
X947861Y157474D01*
X946594Y154414D01*
X946161Y151130D01*
X946594Y147846D01*
X947861Y144786D01*
X949878Y142158D01*
X952506Y140141D01*
X954978Y139117D01*
Y137743D01*
X952506Y136719D01*
X949878Y134702D01*
X947861Y132074D01*
X946594Y129014D01*
X946161Y125730D01*
X946594Y122446D01*
X947861Y119386D01*
X949878Y116758D01*
X952506Y114741D01*
X954978Y113717D01*
Y112343D01*
X952506Y111319D01*
X949878Y109302D01*
X947861Y106674D01*
X946594Y103614D01*
X946161Y100330D01*
X946594Y97046D01*
X947861Y93986D01*
X949878Y91358D01*
X952506Y89341D01*
X954978Y88317D01*
Y86943D01*
X952506Y85919D01*
X949878Y83902D01*
X947861Y81274D01*
X946594Y78214D01*
X946161Y74930D01*
X946594Y71646D01*
X947861Y68586D01*
X949878Y65958D01*
X952506Y63941D01*
X955566Y62674D01*
X958850Y62242D01*
X961258Y62558D01*
X964304Y59513D01*
X963584Y58436D01*
X961471Y59312D01*
X960120Y59489D01*
Y50800D01*
X968809D01*
X968632Y52151D01*
X967620Y54593D01*
X967379Y54907D01*
X968285Y55813D01*
X968535Y55621D01*
X970235Y54917D01*
X972058Y54677D01*
X974140D01*
X974989Y53407D01*
X974468Y52151D01*
X974291Y50800D01*
X984250D01*
X994209D01*
X994032Y52151D01*
X993511Y53407D01*
X994360Y54677D01*
X1072495D01*
X1074318Y54917D01*
X1076017Y55621D01*
X1077476Y56740D01*
X1079449Y58713D01*
X1081893Y58391D01*
X1085187Y58825D01*
X1088257Y60097D01*
X1090893Y62119D01*
X1092916Y64756D01*
X1093905Y67144D01*
X1095280D01*
X1096269Y64756D01*
X1098292Y62119D01*
X1100928Y60097D01*
X1103998Y58825D01*
X1107293Y58391D01*
X1110587Y58825D01*
X1113657Y60097D01*
X1116293Y62119D01*
X1118316Y64756D01*
X1119588Y67825D01*
X1120022Y71120D01*
X1119588Y74415D01*
X1118316Y77484D01*
X1116293Y80121D01*
X1113657Y82143D01*
X1111269Y83133D01*
Y84507D01*
X1113657Y85497D01*
X1116293Y87519D01*
X1118316Y90156D01*
X1119588Y93225D01*
X1120022Y96520D01*
X1119588Y99815D01*
X1118316Y102884D01*
X1116293Y105521D01*
X1113657Y107543D01*
X1111269Y108533D01*
Y109907D01*
X1113657Y110897D01*
X1116293Y112919D01*
X1118316Y115556D01*
X1119588Y118625D01*
X1120022Y121920D01*
X1119588Y125215D01*
X1118316Y128284D01*
X1116293Y130921D01*
X1113657Y132943D01*
X1111269Y133933D01*
Y135307D01*
X1113657Y136297D01*
X1116293Y138319D01*
X1118316Y140956D01*
X1119588Y144025D01*
X1120022Y147320D01*
X1119588Y150615D01*
X1118316Y153684D01*
X1116293Y156321D01*
X1113657Y158343D01*
X1111269Y159333D01*
Y160707D01*
X1113657Y161696D01*
X1116293Y163719D01*
X1118316Y166356D01*
X1119588Y169426D01*
X1120022Y172720D01*
X1119588Y176014D01*
X1118316Y179084D01*
X1116293Y181721D01*
X1113657Y183743D01*
X1111269Y184733D01*
Y186107D01*
X1113657Y187097D01*
X1116293Y189119D01*
X1118316Y191756D01*
X1119588Y194825D01*
X1120022Y198120D01*
X1119588Y201415D01*
X1118316Y204484D01*
X1116293Y207121D01*
X1113657Y209144D01*
X1111269Y210133D01*
Y211507D01*
X1113657Y212496D01*
X1116293Y214519D01*
X1118316Y217156D01*
X1119588Y220226D01*
X1120022Y223520D01*
X1119588Y226814D01*
X1118316Y229884D01*
X1116293Y232521D01*
X1113657Y234543D01*
X1111269Y235533D01*
Y236907D01*
X1113657Y237896D01*
X1116293Y239919D01*
X1118316Y242556D01*
X1119588Y245625D01*
X1120022Y248920D01*
X1119588Y252215D01*
X1118316Y255284D01*
X1116293Y257921D01*
X1113657Y259944D01*
X1111269Y260933D01*
Y262307D01*
X1113657Y263297D01*
X1116293Y265319D01*
X1118316Y267956D01*
X1119588Y271026D01*
X1120022Y274320D01*
X1119588Y277614D01*
X1118316Y280684D01*
X1116293Y283321D01*
X1113657Y285343D01*
X1111269Y286333D01*
Y287707D01*
X1113657Y288696D01*
X1116293Y290719D01*
X1118316Y293356D01*
X1119588Y296425D01*
X1120022Y299720D01*
X1119588Y303015D01*
X1118316Y306084D01*
X1116293Y308721D01*
X1113657Y310744D01*
X1111269Y311733D01*
Y313107D01*
X1113657Y314097D01*
X1116293Y316119D01*
X1118316Y318756D01*
X1119588Y321825D01*
X1120022Y325120D01*
X1119588Y328414D01*
X1118316Y331484D01*
X1116293Y334121D01*
X1113657Y336143D01*
X1111269Y337133D01*
Y338507D01*
X1113657Y339496D01*
X1116293Y341519D01*
X1118316Y344156D01*
X1119588Y347225D01*
X1120022Y350520D01*
X1119588Y353815D01*
X1118316Y356884D01*
X1116293Y359521D01*
X1113657Y361544D01*
X1111269Y362533D01*
Y363907D01*
X1113657Y364897D01*
X1116293Y366919D01*
X1118316Y369556D01*
X1119588Y372626D01*
X1120022Y375920D01*
X1119588Y379215D01*
X1118316Y382284D01*
X1116293Y384921D01*
X1113657Y386944D01*
X1111269Y387933D01*
Y389307D01*
X1113657Y390297D01*
X1116293Y392319D01*
X1118316Y394956D01*
X1119588Y398026D01*
X1120022Y401320D01*
X1119588Y404614D01*
X1118316Y407684D01*
X1116293Y410321D01*
X1113657Y412343D01*
X1111269Y413333D01*
Y414707D01*
X1113657Y415696D01*
X1116293Y417719D01*
X1118316Y420356D01*
X1119588Y423425D01*
X1120022Y426720D01*
X1119588Y430014D01*
X1118316Y433084D01*
X1116293Y435721D01*
X1113657Y437743D01*
X1111269Y438733D01*
Y440107D01*
X1113657Y441096D01*
X1116293Y443119D01*
X1118316Y445756D01*
X1119588Y448825D01*
X1120022Y452120D01*
X1119588Y455415D01*
X1118316Y458484D01*
X1116293Y461121D01*
X1113657Y463144D01*
X1111269Y464133D01*
Y465507D01*
X1113657Y466497D01*
X1116293Y468519D01*
X1118316Y471156D01*
X1119588Y474226D01*
X1120022Y477520D01*
X1119588Y480815D01*
X1118316Y483884D01*
X1116293Y486521D01*
X1113657Y488544D01*
X1111269Y489533D01*
Y490907D01*
X1113657Y491897D01*
X1116293Y493919D01*
X1118316Y496556D01*
X1119588Y499626D01*
X1120022Y502920D01*
X1119588Y506214D01*
X1118316Y509284D01*
X1116293Y511921D01*
X1113657Y513943D01*
X1111269Y514933D01*
Y516307D01*
X1113657Y517296D01*
X1116293Y519319D01*
X1118316Y521956D01*
X1119588Y525025D01*
X1120022Y528320D01*
X1119588Y531614D01*
X1118316Y534684D01*
X1116293Y537321D01*
X1113657Y539343D01*
X1111269Y540333D01*
Y541707D01*
X1113657Y542696D01*
X1116293Y544719D01*
X1118316Y547356D01*
X1119588Y550425D01*
X1120022Y553720D01*
X1119588Y557015D01*
X1118316Y560084D01*
X1116293Y562721D01*
X1113657Y564743D01*
X1111269Y565733D01*
Y567107D01*
X1113657Y568097D01*
X1116293Y570119D01*
X1118316Y572756D01*
X1119588Y575826D01*
X1120022Y579120D01*
X1119588Y582415D01*
X1118316Y585484D01*
X1116293Y588121D01*
X1113657Y590144D01*
X1111269Y591133D01*
Y592507D01*
X1113657Y593497D01*
X1116293Y595519D01*
X1118316Y598156D01*
X1119588Y601226D01*
X1120022Y604520D01*
X1119588Y607814D01*
X1118316Y610884D01*
X1116293Y613521D01*
X1113657Y615544D01*
X1111269Y616533D01*
Y617907D01*
X1113657Y618896D01*
X1116293Y620919D01*
X1118316Y623556D01*
X1119588Y626626D01*
X1120022Y629920D01*
X1119588Y633214D01*
X1118837Y635027D01*
X1119543Y636083D01*
X1446766D01*
X1577486Y505364D01*
X1577164Y502920D01*
X1577598Y499626D01*
X1578869Y496556D01*
X1580892Y493919D01*
X1583528Y491897D01*
X1585916Y490907D01*
Y489533D01*
X1583528Y488544D01*
X1580892Y486521D01*
X1578869Y483884D01*
X1577598Y480815D01*
X1577164Y477520D01*
X1577598Y474226D01*
X1578869Y471156D01*
X1580892Y468519D01*
X1583528Y466497D01*
X1585916Y465507D01*
Y464133D01*
X1583528Y463144D01*
X1580892Y461121D01*
X1578869Y458484D01*
X1577598Y455415D01*
X1577164Y452120D01*
X1577598Y448825D01*
X1578869Y445756D01*
X1580892Y443119D01*
X1583528Y441096D01*
X1585916Y440107D01*
Y438733D01*
X1583528Y437743D01*
X1580892Y435721D01*
X1578869Y433084D01*
X1577598Y430014D01*
X1577164Y426720D01*
X1577598Y423425D01*
X1578869Y420356D01*
X1580892Y417719D01*
X1583528Y415696D01*
X1585916Y414707D01*
Y413333D01*
X1583528Y412343D01*
X1580892Y410321D01*
X1578869Y407684D01*
X1577598Y404614D01*
X1577164Y401320D01*
X1577598Y398026D01*
X1578869Y394956D01*
X1580892Y392319D01*
X1583528Y390297D01*
X1585916Y389307D01*
Y387933D01*
X1583528Y386944D01*
X1580892Y384921D01*
X1578869Y382284D01*
X1577598Y379215D01*
X1577164Y375920D01*
X1577598Y372626D01*
X1578869Y369556D01*
X1580892Y366919D01*
X1583528Y364897D01*
X1585916Y363907D01*
Y362533D01*
X1583528Y361544D01*
X1580892Y359521D01*
X1578869Y356884D01*
X1577598Y353815D01*
X1577164Y350520D01*
X1577598Y347225D01*
X1578869Y344156D01*
X1580892Y341519D01*
X1583528Y339496D01*
X1585916Y338507D01*
Y337133D01*
X1583528Y336143D01*
X1580892Y334121D01*
X1578869Y331484D01*
X1577598Y328414D01*
X1577164Y325120D01*
X1577598Y321825D01*
X1578869Y318756D01*
X1580892Y316119D01*
X1583528Y314097D01*
X1585916Y313107D01*
Y311733D01*
X1583528Y310744D01*
X1580892Y308721D01*
X1578869Y306084D01*
X1577598Y303015D01*
X1577164Y299720D01*
X1577598Y296425D01*
X1578869Y293356D01*
X1580892Y290719D01*
X1583528Y288696D01*
X1585916Y287707D01*
Y286333D01*
X1583528Y285343D01*
X1580892Y283321D01*
X1578869Y280684D01*
X1577598Y277614D01*
X1577164Y274320D01*
X1577598Y271026D01*
X1578869Y267956D01*
X1580892Y265319D01*
X1583528Y263297D01*
X1585916Y262307D01*
Y260933D01*
X1583528Y259944D01*
X1580892Y257921D01*
X1578869Y255284D01*
X1577598Y252215D01*
X1577164Y248920D01*
X1577598Y245625D01*
X1578869Y242556D01*
X1580892Y239919D01*
X1583528Y237896D01*
X1585916Y236907D01*
Y235533D01*
X1583528Y234543D01*
X1580892Y232521D01*
X1578869Y229884D01*
X1577598Y226814D01*
X1577164Y223520D01*
X1577598Y220226D01*
X1578869Y217156D01*
X1580892Y214519D01*
X1583528Y212496D01*
X1585916Y211507D01*
Y210133D01*
X1583528Y209144D01*
X1580892Y207121D01*
X1578869Y204484D01*
X1577598Y201415D01*
X1577164Y198120D01*
X1577598Y194825D01*
X1578869Y191756D01*
X1580892Y189119D01*
X1583528Y187097D01*
X1585916Y186107D01*
Y184733D01*
X1583528Y183743D01*
X1580892Y181721D01*
X1578869Y179084D01*
X1577598Y176014D01*
X1577164Y172720D01*
X1577598Y169426D01*
X1578869Y166356D01*
X1580892Y163719D01*
X1583528Y161696D01*
X1585916Y160707D01*
Y159333D01*
X1583528Y158343D01*
X1580892Y156321D01*
X1578869Y153684D01*
X1577598Y150615D01*
X1577164Y147320D01*
X1577598Y144025D01*
X1578869Y140956D01*
X1580892Y138319D01*
X1583528Y136297D01*
X1585916Y135307D01*
Y133933D01*
X1583528Y132943D01*
X1580892Y130921D01*
X1578869Y128284D01*
X1577598Y125215D01*
X1577164Y121920D01*
X1577598Y118625D01*
X1578869Y115556D01*
X1580892Y112919D01*
X1583528Y110897D01*
X1585916Y109907D01*
Y108533D01*
X1583528Y107543D01*
X1580892Y105521D01*
X1578869Y102884D01*
X1577598Y99815D01*
X1577164Y96520D01*
X1577598Y93225D01*
X1578869Y90156D01*
X1580892Y87519D01*
X1583528Y85497D01*
X1585916Y84507D01*
Y83133D01*
X1583528Y82143D01*
X1580892Y80121D01*
X1578869Y77484D01*
X1577598Y74415D01*
X1577164Y71120D01*
X1577598Y67825D01*
X1578869Y64756D01*
X1580892Y62119D01*
X1583528Y60097D01*
X1586598Y58825D01*
X1589893Y58391D01*
X1592336Y58713D01*
X1595272Y55777D01*
X1594553Y54700D01*
X1592524Y55540D01*
X1591163Y55720D01*
Y46990D01*
X1599892D01*
X1599713Y48351D01*
X1598698Y50803D01*
X1598544Y51003D01*
X1599450Y51909D01*
X1599578Y51811D01*
X1601277Y51107D01*
X1603101Y50867D01*
X1605139D01*
X1605988Y49597D01*
X1605472Y48351D01*
X1605293Y46990D01*
X1625292D01*
X1625113Y48351D01*
X1624597Y49597D01*
X1625446Y50867D01*
X1711452D01*
X1713275Y51107D01*
X1714975Y51811D01*
X1716434Y52930D01*
X1717217Y53714D01*
X1718294Y52994D01*
X1717418Y50881D01*
X1717241Y49530D01*
X1725930D01*
Y58219D01*
X1724579Y58042D01*
X1722466Y57166D01*
X1721746Y58243D01*
X1724792Y61288D01*
X1727200Y60971D01*
X1730484Y61404D01*
X1733544Y62671D01*
X1736172Y64688D01*
X1738189Y67316D01*
X1739213Y69788D01*
X1740587D01*
X1741611Y67316D01*
X1743628Y64688D01*
X1746256Y62671D01*
X1749316Y61404D01*
X1752600Y60971D01*
X1755884Y61404D01*
X1758944Y62671D01*
X1761572Y64688D01*
X1763589Y67316D01*
X1764856Y70376D01*
X1765289Y73660D01*
X1764856Y76944D01*
X1763589Y80004D01*
X1761572Y82632D01*
X1758944Y84649D01*
X1756472Y85673D01*
Y87047D01*
X1758944Y88071D01*
X1761572Y90088D01*
X1763589Y92716D01*
X1764856Y95776D01*
X1765289Y99060D01*
X1764856Y102344D01*
X1763589Y105404D01*
X1761572Y108032D01*
X1758944Y110049D01*
X1756472Y111073D01*
Y112447D01*
X1758944Y113471D01*
X1761572Y115488D01*
X1763589Y118116D01*
X1764856Y121176D01*
X1765289Y124460D01*
X1764856Y127744D01*
X1763589Y130804D01*
X1761572Y133432D01*
X1758944Y135449D01*
X1756472Y136473D01*
Y137847D01*
X1758944Y138871D01*
X1761572Y140888D01*
X1763589Y143516D01*
X1764856Y146576D01*
X1765289Y149860D01*
X1764856Y153144D01*
X1763589Y156204D01*
X1761572Y158832D01*
X1758944Y160849D01*
X1756472Y161873D01*
Y163247D01*
X1758944Y164271D01*
X1761572Y166288D01*
X1763589Y168916D01*
X1764856Y171976D01*
X1765289Y175260D01*
X1764856Y178544D01*
X1763589Y181604D01*
X1761572Y184232D01*
X1758944Y186249D01*
X1756472Y187273D01*
Y188647D01*
X1758944Y189671D01*
X1761572Y191688D01*
X1763589Y194316D01*
X1764856Y197376D01*
X1765289Y200660D01*
X1764856Y203944D01*
X1763589Y207004D01*
X1761572Y209632D01*
X1758944Y211649D01*
X1756472Y212673D01*
Y214047D01*
X1758944Y215071D01*
X1761572Y217088D01*
X1763589Y219716D01*
X1764856Y222776D01*
X1765289Y226060D01*
X1764856Y229344D01*
X1763589Y232404D01*
X1761572Y235032D01*
X1758944Y237049D01*
X1756472Y238073D01*
Y239447D01*
X1758944Y240471D01*
X1761572Y242488D01*
X1763589Y245116D01*
X1764856Y248176D01*
X1765289Y251460D01*
X1764856Y254744D01*
X1763589Y257804D01*
X1761572Y260432D01*
X1758944Y262449D01*
X1756472Y263473D01*
Y264847D01*
X1758944Y265871D01*
X1761572Y267888D01*
X1763589Y270516D01*
X1764856Y273576D01*
X1765289Y276860D01*
X1764856Y280144D01*
X1763589Y283204D01*
X1761572Y285832D01*
X1758944Y287849D01*
X1756472Y288873D01*
Y290247D01*
X1758944Y291271D01*
X1761572Y293288D01*
X1763589Y295916D01*
X1764856Y298976D01*
X1765289Y302260D01*
X1764856Y305544D01*
X1763589Y308604D01*
X1761572Y311232D01*
X1758944Y313249D01*
X1756472Y314273D01*
Y315647D01*
X1758944Y316671D01*
X1761572Y318688D01*
X1763589Y321316D01*
X1764856Y324376D01*
X1765289Y327660D01*
X1764856Y330944D01*
X1763589Y334004D01*
X1761572Y336632D01*
X1758944Y338649D01*
X1756472Y339673D01*
Y341047D01*
X1758944Y342071D01*
X1761572Y344088D01*
X1763589Y346716D01*
X1764856Y349776D01*
X1765289Y353060D01*
X1764856Y356344D01*
X1763589Y359404D01*
X1761572Y362032D01*
X1758944Y364049D01*
X1756472Y365073D01*
Y366447D01*
X1758944Y367471D01*
X1761572Y369488D01*
X1763589Y372116D01*
X1764856Y375176D01*
X1765289Y378460D01*
X1764856Y381744D01*
X1763589Y384804D01*
X1761572Y387432D01*
X1758944Y389449D01*
X1756472Y390473D01*
Y391847D01*
X1758944Y392871D01*
X1761572Y394888D01*
X1763589Y397516D01*
X1764856Y400576D01*
X1765289Y403860D01*
X1764856Y407144D01*
X1763589Y410204D01*
X1761572Y412832D01*
X1758944Y414849D01*
X1756472Y415873D01*
Y417247D01*
X1758944Y418271D01*
X1761572Y420288D01*
X1763589Y422916D01*
X1764856Y425976D01*
X1765289Y429260D01*
X1764856Y432544D01*
X1763589Y435604D01*
X1761572Y438232D01*
X1758944Y440249D01*
X1756472Y441273D01*
Y442647D01*
X1758944Y443671D01*
X1761572Y445688D01*
X1763589Y448316D01*
X1764856Y451376D01*
X1765289Y454660D01*
X1764856Y457944D01*
X1763589Y461004D01*
X1761572Y463632D01*
X1758944Y465649D01*
X1756472Y466673D01*
Y468047D01*
X1758944Y469071D01*
X1761572Y471088D01*
X1763589Y473716D01*
X1764856Y476776D01*
X1765289Y480060D01*
X1764856Y483344D01*
X1763589Y486404D01*
X1761572Y489032D01*
X1758944Y491049D01*
X1756472Y492073D01*
Y493447D01*
X1758944Y494471D01*
X1761572Y496488D01*
X1763589Y499116D01*
X1764856Y502176D01*
X1765289Y505460D01*
X1764856Y508744D01*
X1763589Y511804D01*
X1761572Y514432D01*
X1758944Y516449D01*
X1756472Y517473D01*
Y518847D01*
X1758944Y519871D01*
X1761572Y521888D01*
X1763589Y524516D01*
X1764856Y527576D01*
X1765289Y530860D01*
X1764856Y534144D01*
X1763589Y537204D01*
X1761572Y539832D01*
X1758944Y541849D01*
X1756472Y542873D01*
Y544247D01*
X1758944Y545271D01*
X1761572Y547288D01*
X1763589Y549916D01*
X1764856Y552976D01*
X1765289Y556260D01*
X1764856Y559544D01*
X1763589Y562604D01*
X1761572Y565232D01*
X1758944Y567249D01*
X1756472Y568273D01*
Y569647D01*
X1758944Y570671D01*
X1761572Y572688D01*
X1763589Y575316D01*
X1764856Y578376D01*
X1765289Y581660D01*
X1764856Y584944D01*
X1763589Y588004D01*
X1761572Y590632D01*
X1758944Y592649D01*
X1756472Y593673D01*
Y595047D01*
X1758944Y596071D01*
X1761572Y598088D01*
X1763589Y600716D01*
X1764856Y603776D01*
X1765289Y607060D01*
X1764856Y610344D01*
X1763589Y613404D01*
X1762259Y615137D01*
X1769774Y622652D01*
X1770893Y624111D01*
X1771597Y625811D01*
X1771837Y627634D01*
Y669290D01*
X1771597Y671113D01*
X1770893Y672813D01*
X1769774Y674272D01*
X1750724Y693322D01*
X1749265Y694441D01*
X1747565Y695145D01*
X1745742Y695385D01*
X848106D01*
X846283Y695145D01*
X844583Y694441D01*
X843124Y693322D01*
X703964Y554161D01*
X469772D01*
X469286Y555335D01*
X530730Y616779D01*
X686054D01*
X687877Y617019D01*
X689577Y617723D01*
X691036Y618842D01*
X786508Y714315D01*
X1444129D01*
X1445790Y713040D01*
X1448107Y712080D01*
X1450594Y711753D01*
X1453080Y712080D01*
X1455398Y713040D01*
X1457387Y714567D01*
X1458914Y716556D01*
X1459874Y718874D01*
X1460201Y721360D01*
X1459874Y723847D01*
X1458914Y726164D01*
X1457387Y728153D01*
X1455398Y729680D01*
X1453080Y730640D01*
X1450594Y730967D01*
X1448107Y730640D01*
X1445790Y729680D01*
X1444129Y728405D01*
X783590D01*
X781767Y728165D01*
X780067Y727461D01*
X778608Y726342D01*
X695784Y643517D01*
X694412Y643941D01*
X693305Y646613D01*
X691229Y649319D01*
X688523Y651395D01*
X685372Y652701D01*
X681990Y653146D01*
X678608Y652701D01*
X675457Y651395D01*
X672751Y649319D01*
X670675Y646613D01*
X669369Y643462D01*
X668924Y640080D01*
X669369Y636698D01*
X670675Y633547D01*
X671855Y632008D01*
X671294Y630869D01*
X616486D01*
X615924Y632008D01*
X617105Y633547D01*
X618411Y636698D01*
X618856Y640080D01*
X618411Y643462D01*
X617105Y646613D01*
X615029Y649319D01*
X612323Y651395D01*
X609172Y652701D01*
X605790Y653146D01*
X602408Y652701D01*
X599257Y651395D01*
X596551Y649319D01*
X594868Y647125D01*
X584551D01*
X583437Y648395D01*
X583680Y650240D01*
X583222Y653721D01*
X581878Y656965D01*
X579741Y659751D01*
X576955Y661888D01*
X573711Y663232D01*
X570230Y663690D01*
X566749Y663232D01*
X565631Y662769D01*
X564575Y663474D01*
Y687962D01*
X811329Y934715D01*
X814070Y934354D01*
X817452Y934799D01*
X820603Y936105D01*
X823309Y938181D01*
X825385Y940887D01*
X826691Y944038D01*
X827136Y947420D01*
X826691Y950802D01*
X825385Y953953D01*
X823309Y956659D01*
X820603Y958735D01*
X817452Y960041D01*
X814070Y960486D01*
D02*
G37*
G36*
X692150Y1102726D02*
X688768Y1102281D01*
X685617Y1100975D01*
X682911Y1098899D01*
X680835Y1096193D01*
X679529Y1093042D01*
X679084Y1089660D01*
X679529Y1086278D01*
X680835Y1083127D01*
X682911Y1080421D01*
X685617Y1078345D01*
X688768Y1077039D01*
X692150Y1076594D01*
X695532Y1077039D01*
X698683Y1078345D01*
X701389Y1080421D01*
X703465Y1083127D01*
X704771Y1086278D01*
X705216Y1089660D01*
X704771Y1093042D01*
X703465Y1096193D01*
X701389Y1098899D01*
X698683Y1100975D01*
X695532Y1102281D01*
X692150Y1102726D01*
D02*
G37*
G36*
X803910D02*
X800528Y1102281D01*
X797377Y1100975D01*
X794671Y1098899D01*
X792595Y1096193D01*
X791289Y1093042D01*
X790844Y1089660D01*
X791289Y1086278D01*
X792595Y1083127D01*
X794671Y1080421D01*
X797377Y1078345D01*
X800528Y1077039D01*
X803910Y1076594D01*
X807292Y1077039D01*
X810443Y1078345D01*
X813149Y1080421D01*
X815225Y1083127D01*
X816531Y1086278D01*
X816976Y1089660D01*
X816531Y1093042D01*
X815225Y1096193D01*
X813149Y1098899D01*
X810443Y1100975D01*
X807292Y1102281D01*
X803910Y1102726D01*
D02*
G37*
G36*
X326390Y740776D02*
X323008Y740331D01*
X319857Y739025D01*
X317151Y736949D01*
X315075Y734243D01*
X313769Y731092D01*
X313324Y727710D01*
X313769Y724328D01*
X315075Y721177D01*
X317151Y718471D01*
X319857Y716395D01*
X323008Y715089D01*
X326390Y714644D01*
X329772Y715089D01*
X332923Y716395D01*
X335629Y718471D01*
X337705Y721177D01*
X339011Y724328D01*
X339456Y727710D01*
X339011Y731092D01*
X337705Y734243D01*
X335629Y736949D01*
X332923Y739025D01*
X329772Y740331D01*
X326390Y740776D01*
D02*
G37*
G36*
X609600Y959216D02*
X606218Y958771D01*
X603067Y957465D01*
X600361Y955389D01*
X598678Y953195D01*
X34290D01*
X32467Y952955D01*
X30767Y952251D01*
X29308Y951132D01*
X16608Y938432D01*
X15489Y936973D01*
X14785Y935273D01*
X14545Y933450D01*
Y736092D01*
X12351Y734409D01*
X10275Y731703D01*
X8969Y728552D01*
X8524Y725170D01*
X8969Y721788D01*
X10275Y718637D01*
X12351Y715931D01*
X15057Y713855D01*
X18208Y712549D01*
X21590Y712104D01*
X24972Y712549D01*
X28123Y713855D01*
X30829Y715931D01*
X32905Y718637D01*
X34211Y721788D01*
X34656Y725170D01*
X34211Y728552D01*
X32905Y731703D01*
X30829Y734409D01*
X28635Y736092D01*
Y930532D01*
X37208Y939105D01*
X598678D01*
X600361Y936911D01*
X603067Y934835D01*
X606218Y933529D01*
X609600Y933084D01*
X612982Y933529D01*
X616133Y934835D01*
X618839Y936911D01*
X620915Y939617D01*
X622221Y942768D01*
X622666Y946150D01*
X622221Y949532D01*
X620915Y952683D01*
X618839Y955389D01*
X616133Y957465D01*
X612982Y958771D01*
X609600Y959216D01*
D02*
G37*
G36*
X890270Y960486D02*
X886888Y960041D01*
X883737Y958735D01*
X881031Y956659D01*
X878955Y953953D01*
X877649Y950802D01*
X877204Y947420D01*
X877649Y944038D01*
X878955Y940887D01*
X881031Y938181D01*
X883737Y936105D01*
X886888Y934799D01*
X890270Y934354D01*
X893652Y934799D01*
X896803Y936105D01*
X899509Y938181D01*
X901585Y940887D01*
X902891Y944038D01*
X903336Y947420D01*
X902891Y950802D01*
X901585Y953953D01*
X899509Y956659D01*
X896803Y958735D01*
X893652Y960041D01*
X890270Y960486D01*
D02*
G37*
G36*
X957580Y389689D02*
X956229Y389512D01*
X953787Y388500D01*
X951689Y386891D01*
X950080Y384793D01*
X949068Y382351D01*
X948891Y381000D01*
X957580D01*
Y389689D01*
D02*
G37*
G36*
X968809Y378460D02*
X960120D01*
Y369771D01*
X961471Y369948D01*
X963913Y370960D01*
X966011Y372569D01*
X967620Y374667D01*
X968632Y377109D01*
X968809Y378460D01*
D02*
G37*
G36*
X957580D02*
X948891D01*
X949068Y377109D01*
X950080Y374667D01*
X951689Y372569D01*
X953787Y370960D01*
X956229Y369948D01*
X957580Y369771D01*
Y378460D01*
D02*
G37*
G36*
X683260Y582026D02*
X679878Y581581D01*
X676727Y580275D01*
X674021Y578199D01*
X671945Y575493D01*
X670639Y572342D01*
X670194Y568960D01*
X670639Y565578D01*
X671945Y562427D01*
X674021Y559721D01*
X676727Y557645D01*
X679878Y556339D01*
X683260Y555894D01*
X686642Y556339D01*
X689793Y557645D01*
X692499Y559721D01*
X694575Y562427D01*
X695881Y565578D01*
X696326Y568960D01*
X695881Y572342D01*
X694575Y575493D01*
X692499Y578199D01*
X689793Y580275D01*
X686642Y581581D01*
X683260Y582026D01*
D02*
G37*
G36*
Y526146D02*
X679878Y525701D01*
X676727Y524395D01*
X674021Y522319D01*
X671945Y519613D01*
X670639Y516462D01*
X670194Y513080D01*
X670639Y509698D01*
X671945Y506547D01*
X674021Y503841D01*
X676727Y501765D01*
X679878Y500459D01*
X683260Y500014D01*
X686642Y500459D01*
X689793Y501765D01*
X692499Y503841D01*
X694575Y506547D01*
X695881Y509698D01*
X696326Y513080D01*
X695881Y516462D01*
X694575Y519613D01*
X692499Y522319D01*
X689793Y524395D01*
X686642Y525701D01*
X683260Y526146D01*
D02*
G37*
G36*
X280670Y515986D02*
X277288Y515541D01*
X274137Y514235D01*
X271431Y512159D01*
X269355Y509453D01*
X268049Y506302D01*
X267604Y502920D01*
X268049Y499538D01*
X269355Y496387D01*
X271431Y493681D01*
X274137Y491605D01*
X277288Y490299D01*
X280670Y489854D01*
X284052Y490299D01*
X287203Y491605D01*
X289909Y493681D01*
X291985Y496387D01*
X293291Y499538D01*
X293736Y502920D01*
X293291Y506302D01*
X291985Y509453D01*
X289909Y512159D01*
X287203Y514235D01*
X284052Y515541D01*
X280670Y515986D01*
D02*
G37*
G36*
X814070Y268531D02*
Y259080D01*
X823521D01*
X823317Y260628D01*
X822229Y263254D01*
X820499Y265509D01*
X818244Y267239D01*
X815618Y268327D01*
X814070Y268531D01*
D02*
G37*
G36*
X431800Y267261D02*
Y257810D01*
X441251D01*
X441047Y259358D01*
X439959Y261984D01*
X438229Y264239D01*
X435974Y265969D01*
X433348Y267057D01*
X431800Y267261D01*
D02*
G37*
G36*
X429260D02*
X427712Y267057D01*
X425086Y265969D01*
X422831Y264239D01*
X421101Y261984D01*
X420013Y259358D01*
X419809Y257810D01*
X429260D01*
Y267261D01*
D02*
G37*
G36*
X622300Y265991D02*
Y256540D01*
X631751D01*
X631547Y258088D01*
X630459Y260714D01*
X628729Y262969D01*
X626474Y264699D01*
X623848Y265787D01*
X622300Y265991D01*
D02*
G37*
G36*
X811530Y268531D02*
X809982Y268327D01*
X807356Y267239D01*
X805101Y265509D01*
X803371Y263254D01*
X802283Y260628D01*
X802079Y259080D01*
X811530D01*
Y268531D01*
D02*
G37*
G36*
X237490D02*
Y259080D01*
X246941D01*
X246737Y260628D01*
X245649Y263254D01*
X243919Y265509D01*
X241664Y267239D01*
X239038Y268327D01*
X237490Y268531D01*
D02*
G37*
G36*
X234950D02*
X233402Y268327D01*
X230776Y267239D01*
X228521Y265509D01*
X226791Y263254D01*
X225703Y260628D01*
X225499Y259080D01*
X234950D01*
Y268531D01*
D02*
G37*
G36*
X265430Y1281796D02*
X262048Y1281351D01*
X258897Y1280045D01*
X256191Y1277969D01*
X254115Y1275263D01*
X252809Y1272112D01*
X252364Y1268730D01*
X252809Y1265348D01*
X254115Y1262197D01*
X256191Y1259491D01*
X258897Y1257415D01*
X262048Y1256109D01*
X265430Y1255664D01*
X268812Y1256109D01*
X271963Y1257415D01*
X274669Y1259491D01*
X276352Y1261685D01*
X309234D01*
X309659Y1261359D01*
X311359Y1260655D01*
X313182Y1260415D01*
X346738D01*
X348629Y1257949D01*
X350173Y1256765D01*
X349952Y1255790D01*
X349772Y1255472D01*
X347903Y1255100D01*
X346222Y1253978D01*
X345100Y1252297D01*
X344706Y1250315D01*
Y1233805D01*
X345100Y1231823D01*
X346222Y1230143D01*
X347903Y1229020D01*
X349885Y1228625D01*
X366395D01*
X368377Y1229020D01*
X370057Y1230143D01*
X371180Y1231823D01*
X371575Y1233805D01*
Y1250315D01*
X371180Y1252297D01*
X370057Y1253978D01*
X368377Y1255100D01*
X366508Y1255472D01*
X366328Y1255790D01*
X366106Y1256765D01*
X367651Y1257949D01*
X369788Y1260735D01*
X371132Y1263979D01*
X371590Y1267460D01*
X371132Y1270941D01*
X369788Y1274185D01*
X367651Y1276971D01*
X364865Y1279108D01*
X361621Y1280452D01*
X358140Y1280910D01*
X354659Y1280452D01*
X351415Y1279108D01*
X348629Y1276971D01*
X346738Y1274505D01*
X315860D01*
X315435Y1274831D01*
X313735Y1275535D01*
X311912Y1275775D01*
X276352D01*
X274669Y1277969D01*
X271963Y1280045D01*
X268812Y1281351D01*
X265430Y1281796D01*
D02*
G37*
G36*
Y1357996D02*
X262048Y1357551D01*
X258897Y1356245D01*
X256191Y1354169D01*
X254115Y1351463D01*
X252809Y1348312D01*
X252364Y1344930D01*
X252809Y1341548D01*
X254115Y1338397D01*
X256191Y1335691D01*
X258897Y1333615D01*
X262048Y1332309D01*
X265430Y1331864D01*
X268812Y1332309D01*
X271963Y1333615D01*
X274669Y1335691D01*
X276745Y1338397D01*
X278051Y1341548D01*
X278496Y1344930D01*
X278051Y1348312D01*
X276745Y1351463D01*
X274669Y1354169D01*
X271963Y1356245D01*
X268812Y1357551D01*
X265430Y1357996D01*
D02*
G37*
G36*
X960120Y618289D02*
Y609600D01*
X968809D01*
X968632Y610951D01*
X967620Y613393D01*
X966011Y615491D01*
X963913Y617100D01*
X961471Y618112D01*
X960120Y618289D01*
D02*
G37*
G36*
X644649Y1220470D02*
X635000D01*
Y1211456D01*
X638175D01*
X640653Y1211948D01*
X642753Y1213352D01*
X644157Y1215452D01*
X644649Y1217930D01*
Y1220470D01*
D02*
G37*
G36*
X755139Y1219200D02*
X745490D01*
Y1210186D01*
X748665D01*
X751143Y1210678D01*
X753243Y1212082D01*
X754647Y1214182D01*
X755139Y1216660D01*
Y1219200D01*
D02*
G37*
G36*
X873760D02*
X864111D01*
Y1216660D01*
X864603Y1214182D01*
X866007Y1212082D01*
X868107Y1210678D01*
X870585Y1210186D01*
X873760D01*
Y1219200D01*
D02*
G37*
G36*
X632460Y1220470D02*
X622811D01*
Y1217930D01*
X623303Y1215452D01*
X624707Y1213352D01*
X626807Y1211948D01*
X629285Y1211456D01*
X632460D01*
Y1220470D01*
D02*
G37*
G36*
X968809Y607060D02*
X960120D01*
Y598371D01*
X961471Y598548D01*
X963913Y599560D01*
X966011Y601169D01*
X967620Y603267D01*
X968632Y605709D01*
X968809Y607060D01*
D02*
G37*
G36*
X957580D02*
X948891D01*
X949068Y605709D01*
X950080Y603267D01*
X951689Y601169D01*
X953787Y599560D01*
X956229Y598548D01*
X957580Y598371D01*
Y607060D01*
D02*
G37*
G36*
X568960Y596380D02*
X565479Y595922D01*
X562235Y594578D01*
X559449Y592441D01*
X558265Y590896D01*
X557290Y591118D01*
X556972Y591298D01*
X556600Y593167D01*
X555477Y594847D01*
X553797Y595970D01*
X551815Y596365D01*
X535305D01*
X533323Y595970D01*
X531642Y594847D01*
X530520Y593167D01*
X530126Y591185D01*
Y574675D01*
X530520Y572693D01*
X531642Y571012D01*
X533323Y569890D01*
X535305Y569496D01*
X551815D01*
X553797Y569890D01*
X555477Y571012D01*
X556600Y572693D01*
X556972Y574562D01*
X557290Y574742D01*
X558265Y574963D01*
X559449Y573419D01*
X562235Y571282D01*
X565479Y569938D01*
X568960Y569480D01*
X572041Y569886D01*
X577948Y563978D01*
X579407Y562859D01*
X581107Y562155D01*
X582930Y561915D01*
X596138D01*
X597821Y559721D01*
X600527Y557645D01*
X603678Y556339D01*
X607060Y555894D01*
X610442Y556339D01*
X613593Y557645D01*
X616299Y559721D01*
X618375Y562427D01*
X619681Y565578D01*
X620126Y568960D01*
X619681Y572342D01*
X618375Y575493D01*
X616299Y578199D01*
X613593Y580275D01*
X610442Y581581D01*
X607060Y582026D01*
X603678Y581581D01*
X600527Y580275D01*
X597821Y578199D01*
X596138Y576005D01*
X585848D01*
X582004Y579849D01*
X582410Y582930D01*
X581952Y586411D01*
X580608Y589655D01*
X578471Y592441D01*
X575685Y594578D01*
X572441Y595922D01*
X568960Y596380D01*
D02*
G37*
G36*
X32385Y652890D02*
X31115D01*
X27800Y652453D01*
X24710Y651173D01*
X22057Y649138D01*
X20022Y646485D01*
X18742Y643395D01*
X18305Y640080D01*
X18742Y636765D01*
X20022Y633675D01*
X22057Y631022D01*
X24710Y628987D01*
X26930Y628067D01*
Y626693D01*
X24710Y625773D01*
X22057Y623738D01*
X20022Y621085D01*
X18742Y617995D01*
X18305Y614680D01*
X18742Y611365D01*
X20022Y608275D01*
X22057Y605622D01*
X24710Y603587D01*
X27800Y602307D01*
X31115Y601870D01*
X32385D01*
X35700Y602307D01*
X38790Y603587D01*
X41443Y605622D01*
X43478Y608275D01*
X44758Y611365D01*
X45195Y614680D01*
X44758Y617995D01*
X43478Y621085D01*
X41443Y623738D01*
X38790Y625773D01*
X36570Y626693D01*
Y628067D01*
X38790Y628987D01*
X41443Y631022D01*
X43478Y633675D01*
X44758Y636765D01*
X45195Y640080D01*
X44758Y643395D01*
X43478Y646485D01*
X41443Y649138D01*
X38790Y651173D01*
X35700Y652453D01*
X32385Y652890D01*
D02*
G37*
G36*
X957580Y618289D02*
X956229Y618112D01*
X953787Y617100D01*
X951689Y615491D01*
X950080Y613393D01*
X949068Y610951D01*
X948891Y609600D01*
X957580D01*
Y618289D01*
D02*
G37*
%LPD*%
G36*
X1073009Y380813D02*
X1072072Y378551D01*
X1071893Y377190D01*
X1081893D01*
Y374650D01*
X1071893D01*
X1072072Y373289D01*
X1072588Y372043D01*
X1071739Y370773D01*
X1037590D01*
X1035767Y370533D01*
X1034067Y369829D01*
X1032608Y368710D01*
X1025274Y361375D01*
X994701D01*
X993222Y363302D01*
X990594Y365319D01*
X988122Y366343D01*
Y367717D01*
X990594Y368741D01*
X993222Y370758D01*
X994701Y372685D01*
X1028192D01*
X1030015Y372925D01*
X1031715Y373629D01*
X1033174Y374748D01*
X1040508Y382083D01*
X1072508D01*
X1073009Y380813D01*
D02*
G37*
G36*
X1755192Y668926D02*
X1754599Y667723D01*
X1753870Y667819D01*
Y657860D01*
Y647901D01*
X1755221Y648078D01*
X1756477Y648599D01*
X1757747Y647750D01*
Y645088D01*
X1756691Y644382D01*
X1755884Y644716D01*
X1752600Y645148D01*
X1749316Y644716D01*
X1746256Y643449D01*
X1743628Y641432D01*
X1742149Y639505D01*
X1737651D01*
X1736172Y641432D01*
X1733544Y643449D01*
X1730484Y644716D01*
X1727200Y645148D01*
X1723916Y644716D01*
X1720856Y643449D01*
X1718228Y641432D01*
X1716749Y639505D01*
X1673860D01*
X1673708Y639485D01*
X1673555Y639499D01*
X1625451Y637412D01*
X1624293Y638921D01*
X1621657Y640944D01*
X1618587Y642215D01*
X1615293Y642649D01*
X1611998Y642215D01*
X1608928Y640944D01*
X1606292Y638921D01*
X1604792Y636965D01*
X1600394D01*
X1598893Y638921D01*
X1596257Y640944D01*
X1593187Y642215D01*
X1589893Y642649D01*
X1586598Y642215D01*
X1583528Y640944D01*
X1580892Y638921D01*
X1578869Y636284D01*
X1577598Y633214D01*
X1577164Y629920D01*
X1577598Y626626D01*
X1578869Y623556D01*
X1579709Y622461D01*
X1578708Y621694D01*
X1572866Y615852D01*
X1571747Y614393D01*
X1571043Y612693D01*
X1570803Y610870D01*
Y540365D01*
X1571043Y538541D01*
X1571747Y536842D01*
X1572866Y535383D01*
X1577486Y530764D01*
X1577164Y528320D01*
X1577316Y527160D01*
X1576177Y526599D01*
X1454666Y648110D01*
X1453207Y649229D01*
X1451508Y649933D01*
X1449685Y650173D01*
X1117446D01*
X1116597Y651443D01*
X1117113Y652689D01*
X1117292Y654050D01*
X1097293D01*
X1097472Y652689D01*
X1097988Y651443D01*
X1097139Y650173D01*
X1092022D01*
Y654050D01*
X1071763D01*
Y650173D01*
X1060574D01*
X1059336Y651412D01*
X1057877Y652531D01*
X1056177Y653235D01*
X1054354Y653475D01*
X994088D01*
X993301Y654745D01*
X994032Y656509D01*
X994209Y657860D01*
X984250D01*
X974291D01*
X974468Y656509D01*
X975199Y654745D01*
X974412Y653475D01*
X968940D01*
Y657860D01*
X958850D01*
X948760D01*
Y653475D01*
X852170D01*
X850347Y653235D01*
X848647Y652531D01*
X847188Y651412D01*
X738762Y542985D01*
X714374D01*
X713888Y544159D01*
X851024Y681295D01*
X1742824D01*
X1755192Y668926D01*
D02*
G37*
G36*
X1073009Y609413D02*
X1072072Y607151D01*
X1071893Y605790D01*
X1081893D01*
Y603250D01*
X1071893D01*
X1072072Y601889D01*
X1072588Y600643D01*
X1071739Y599373D01*
X994835D01*
X994209Y600643D01*
X995239Y601986D01*
X996506Y605046D01*
X996938Y608330D01*
X996755Y609728D01*
X997592Y610683D01*
X1072508D01*
X1073009Y609413D01*
D02*
G37*
%LPC*%
G36*
X1080623Y665450D02*
X1074353D01*
X1073362Y665253D01*
X1072522Y664691D01*
X1071960Y663851D01*
X1071763Y662860D01*
Y656590D01*
X1080623D01*
Y665450D01*
D02*
G37*
G36*
X1751330Y656590D02*
X1742641D01*
X1742818Y655239D01*
X1743830Y652797D01*
X1745439Y650699D01*
X1747537Y649090D01*
X1749979Y648078D01*
X1751330Y647901D01*
Y656590D01*
D02*
G37*
G36*
X1089433Y665450D02*
X1083163D01*
Y656590D01*
X1092022D01*
Y662860D01*
X1091825Y663851D01*
X1091264Y664691D01*
X1090424Y665253D01*
X1089433Y665450D01*
D02*
G37*
G36*
X1108563Y665320D02*
Y656590D01*
X1117292D01*
X1117113Y657951D01*
X1116097Y660404D01*
X1114482Y662509D01*
X1112376Y664125D01*
X1109924Y665141D01*
X1108563Y665320D01*
D02*
G37*
G36*
X1106023D02*
X1104661Y665141D01*
X1102209Y664125D01*
X1100104Y662509D01*
X1098488Y660404D01*
X1097472Y657951D01*
X1097293Y656590D01*
X1106023D01*
Y665320D01*
D02*
G37*
G36*
X1737290Y656590D02*
X1728470D01*
Y647770D01*
X1734700D01*
X1735691Y647967D01*
X1736531Y648529D01*
X1737093Y649369D01*
X1737290Y650360D01*
Y656590D01*
D02*
G37*
G36*
X1600022Y654050D02*
X1591163D01*
Y645190D01*
X1597433D01*
X1598424Y645387D01*
X1599264Y645949D01*
X1599825Y646789D01*
X1600022Y647780D01*
Y654050D01*
D02*
G37*
G36*
X1588623D02*
X1579763D01*
Y647780D01*
X1579960Y646789D01*
X1580522Y645949D01*
X1581362Y645387D01*
X1582353Y645190D01*
X1588623D01*
Y654050D01*
D02*
G37*
G36*
X1614023D02*
X1605293D01*
X1605472Y652689D01*
X1606488Y650237D01*
X1608104Y648131D01*
X1610209Y646515D01*
X1612661Y645499D01*
X1614023Y645320D01*
Y654050D01*
D02*
G37*
G36*
X1725930Y656590D02*
X1717110D01*
Y650360D01*
X1717307Y649369D01*
X1717869Y648529D01*
X1718709Y647967D01*
X1719700Y647770D01*
X1725930D01*
Y656590D01*
D02*
G37*
G36*
X1625292Y654050D02*
X1616563D01*
Y645320D01*
X1617924Y645499D01*
X1620376Y646515D01*
X1622482Y648131D01*
X1624097Y650237D01*
X1625113Y652689D01*
X1625292Y654050D01*
D02*
G37*
G36*
X957580Y669220D02*
X951350D01*
X950359Y669023D01*
X949519Y668461D01*
X948957Y667621D01*
X948760Y666630D01*
Y660400D01*
X957580D01*
Y669220D01*
D02*
G37*
G36*
X1734700Y667950D02*
X1728470D01*
Y659130D01*
X1737290D01*
Y665360D01*
X1737093Y666351D01*
X1736531Y667191D01*
X1735691Y667753D01*
X1734700Y667950D01*
D02*
G37*
G36*
X982980Y669089D02*
X981629Y668912D01*
X979187Y667900D01*
X977089Y666291D01*
X975480Y664193D01*
X974468Y661751D01*
X974291Y660400D01*
X982980D01*
Y669089D01*
D02*
G37*
G36*
X985520D02*
Y660400D01*
X994209D01*
X994032Y661751D01*
X993020Y664193D01*
X991411Y666291D01*
X989313Y667900D01*
X986871Y668912D01*
X985520Y669089D01*
D02*
G37*
G36*
X966350Y669220D02*
X960120D01*
Y660400D01*
X968940D01*
Y666630D01*
X968743Y667621D01*
X968181Y668461D01*
X967341Y669023D01*
X966350Y669220D01*
D02*
G37*
G36*
X1751330Y667819D02*
X1749979Y667642D01*
X1747537Y666630D01*
X1745439Y665021D01*
X1743830Y662923D01*
X1742818Y660481D01*
X1742641Y659130D01*
X1751330D01*
Y667819D01*
D02*
G37*
G36*
X1597433Y665450D02*
X1591163D01*
Y656590D01*
X1600022D01*
Y662860D01*
X1599825Y663851D01*
X1599264Y664691D01*
X1598424Y665253D01*
X1597433Y665450D01*
D02*
G37*
G36*
X1588623D02*
X1582353D01*
X1581362Y665253D01*
X1580522Y664691D01*
X1579960Y663851D01*
X1579763Y662860D01*
Y656590D01*
X1588623D01*
Y665450D01*
D02*
G37*
G36*
X1614023Y665320D02*
X1612661Y665141D01*
X1610209Y664125D01*
X1608104Y662509D01*
X1606488Y660404D01*
X1605472Y657951D01*
X1605293Y656590D01*
X1614023D01*
Y665320D01*
D02*
G37*
G36*
X1725930Y667950D02*
X1719700D01*
X1718709Y667753D01*
X1717869Y667191D01*
X1717307Y666351D01*
X1717110Y665360D01*
Y659130D01*
X1725930D01*
Y667950D01*
D02*
G37*
G36*
X1616563Y665320D02*
Y656590D01*
X1625292D01*
X1625113Y657951D01*
X1624097Y660404D01*
X1622482Y662509D01*
X1620376Y664125D01*
X1617924Y665141D01*
X1616563Y665320D01*
D02*
G37*
%LPD*%
D10*
X958850Y633730D02*
X984250D01*
X568960Y515620D02*
X586740D01*
X589280Y513080D01*
X607060D01*
X958850Y49530D02*
X984250D01*
X958850Y659130D02*
X984250D01*
X744220Y1220470D02*
X875030D01*
X1727200Y657860D02*
X1752600D01*
X1727200Y48260D02*
X1752600D01*
X1727200Y632460D02*
X1752600D01*
X1727200Y607060D02*
X1752600D01*
X265430Y1148080D02*
X476250D01*
X511302Y1183132D01*
X672338D01*
X684276Y1195070D01*
X744220D01*
X861060Y998220D02*
X901192Y1038352D01*
X1211072D01*
X1262380Y1089660D01*
X322580Y1224280D02*
X360680Y1186180D01*
X265430Y1224280D02*
X322580D01*
X538480Y1117600D02*
X657860Y998220D01*
X360680Y1117600D02*
X538480D01*
X934720Y379730D02*
X958850D01*
X812800Y257810D02*
X934720Y379730D01*
X128270Y612140D02*
X153670D01*
X167640Y598170D01*
Y575310D02*
Y598170D01*
X243840D02*
Y614680D01*
Y598170D02*
X262890Y579120D01*
X280670D01*
X852170Y646430D02*
X1054354D01*
X741680Y535940D02*
X852170Y646430D01*
X101600Y535940D02*
X741680D01*
X67310Y501650D02*
X101600Y535940D01*
X984250Y608330D02*
X993648Y617728D01*
X1028192Y532130D02*
X1037590Y541528D01*
X984250Y532130D02*
X1028192D01*
X1094085Y516128D02*
X1107293Y502920D01*
X1037590Y516128D02*
X1094085D01*
X1028192Y506730D02*
X1037590Y516128D01*
X984250Y506730D02*
X1028192D01*
X1094085Y490728D02*
X1107293Y477520D01*
X1037590Y490728D02*
X1094085D01*
X1028192Y481330D02*
X1037590Y490728D01*
X984250Y481330D02*
X1028192D01*
X1094085Y465328D02*
X1107293Y452120D01*
X1037590Y465328D02*
X1094085D01*
X1028192Y455930D02*
X1037590Y465328D01*
X984250Y455930D02*
X1028192D01*
X984250Y582930D02*
X993648Y592328D01*
X1603101Y489712D02*
X1663192D01*
X1678940Y505460D01*
X1727200D01*
X984250Y633730D02*
X1033018D01*
X1036828Y629920D01*
X736600Y257810D02*
X883920Y405130D01*
X958850D01*
X236220Y50800D02*
X251460Y35560D01*
X231648Y50800D02*
X236220D01*
X212598Y69850D02*
X231648Y50800D01*
X212598Y69850D02*
Y90170D01*
X218694Y96266D01*
X292608D01*
X324104Y127762D01*
X368554D01*
X874522Y633730D01*
X958850D01*
X720090Y430530D02*
X958850D01*
X544830Y255270D02*
X720090Y430530D01*
X400812Y94488D02*
X416560Y78740D01*
X305054Y94488D02*
X400812D01*
X288036Y77470D02*
X305054Y94488D01*
X227330Y77470D02*
X288036D01*
X1739392Y417068D02*
X1752600Y403860D01*
X1678940Y417068D02*
X1739392D01*
X1663192Y401320D02*
X1678940Y417068D01*
X251460Y35560D02*
X302260Y36830D01*
X350520D01*
X527558Y23368D02*
X542290Y38100D01*
X363982Y23368D02*
X527558D01*
X350520Y36830D02*
X363982Y23368D01*
X720598Y24638D02*
X735330Y39370D01*
X555752Y24638D02*
X720598D01*
X542290Y38100D02*
X555752Y24638D01*
X1631041Y594868D02*
X1739392D01*
X1752600Y581660D01*
X1603101Y565912D02*
X1663192D01*
X1678940Y581660D01*
X1727200D01*
X958850Y252730D02*
X972058Y239522D01*
X1028192D01*
X1037590Y248920D01*
X1081893D01*
X1094085Y287528D02*
X1107293Y274320D01*
X1037590Y287528D02*
X1094085D01*
X1028192Y278130D02*
X1037590Y287528D01*
X984250Y278130D02*
X1028192D01*
X958850D02*
X972058Y264922D01*
X1028192D01*
X1037590Y274320D01*
X1081893D01*
X1094085Y312928D02*
X1107293Y299720D01*
X1037590Y312928D02*
X1094085D01*
X1028192Y303530D02*
X1037590Y312928D01*
X984250Y303530D02*
X1028192D01*
X958850D02*
X972058Y290322D01*
X1028192D01*
X1037590Y299720D01*
X1081893D01*
X1094085Y338328D02*
X1107293Y325120D01*
X1037590Y338328D02*
X1094085D01*
X1028192Y328930D02*
X1037590Y338328D01*
X984250Y328930D02*
X1028192D01*
X958850D02*
X972058Y315722D01*
X1028192D01*
X1037590Y325120D01*
X1081893D01*
X1094085Y363728D02*
X1107293Y350520D01*
X1037590Y363728D02*
X1094085D01*
X1028192Y354330D02*
X1037590Y363728D01*
X984250Y354330D02*
X1028192D01*
X958850D02*
X972058Y341122D01*
X1028192D01*
X1037590Y350520D01*
X1081893D01*
X1603101Y515112D02*
X1663192D01*
X1678940Y530860D01*
X1727200D01*
X324866Y547116D02*
X706882D01*
X1764792Y627634D02*
Y669290D01*
X1756410Y619252D02*
X1764792Y627634D01*
X1697736Y619252D02*
X1756410D01*
X1695196Y616712D02*
X1697736Y619252D01*
X1583690Y616712D02*
X1695196D01*
X1577848Y610870D02*
X1583690Y616712D01*
X1577848Y540365D02*
Y610870D01*
X1739392Y518668D02*
X1752600Y505460D01*
X1678940Y518668D02*
X1739392D01*
X1663192Y502920D02*
X1678940Y518668D01*
X527812Y623824D02*
X686054D01*
X462280Y558292D02*
X527812Y623824D01*
X65786Y558292D02*
X462280D01*
X54864Y547370D02*
X65786Y558292D01*
X54864Y496570D02*
Y547370D01*
Y496570D02*
X62230Y489204D01*
X157734D01*
X167640Y499110D01*
X1739392Y493268D02*
X1752600Y480060D01*
X1678940Y493268D02*
X1739392D01*
X1663192Y477520D02*
X1678940Y493268D01*
X1603101Y464312D02*
X1663192D01*
X1678940Y480060D01*
X1727200D01*
X1739392Y467868D02*
X1752600Y454660D01*
X1678940Y467868D02*
X1739392D01*
X1663192Y452120D02*
X1678940Y467868D01*
X1603101Y438912D02*
X1663192D01*
X1678940Y454660D01*
X1727200D01*
X1072495Y61722D02*
X1081893Y71120D01*
X972058Y61722D02*
X1072495D01*
X958850Y74930D02*
X972058Y61722D01*
X1094085Y109728D02*
X1107293Y96520D01*
X1037590Y109728D02*
X1094085D01*
X1028192Y100330D02*
X1037590Y109728D01*
X984250Y100330D02*
X1028192D01*
X1072495Y87122D02*
X1081893Y96520D01*
X972058Y87122D02*
X1072495D01*
X958850Y100330D02*
X972058Y87122D01*
X1094085Y135128D02*
X1107293Y121920D01*
X1037590Y135128D02*
X1094085D01*
X1028192Y125730D02*
X1037590Y135128D01*
X984250Y125730D02*
X1028192D01*
X958850D02*
X972058Y112522D01*
X1028192D01*
X1037590Y121920D01*
X1081893D01*
X1094085Y160528D02*
X1107293Y147320D01*
X1037590Y160528D02*
X1094085D01*
X1028192Y151130D02*
X1037590Y160528D01*
X984250Y151130D02*
X1028192D01*
X958850D02*
X972058Y137922D01*
X1028192D01*
X1037590Y147320D01*
X1081893D01*
X1094085Y185928D02*
X1107293Y172720D01*
X1037590Y185928D02*
X1094085D01*
X1028192Y176530D02*
X1037590Y185928D01*
X984250Y176530D02*
X1028192D01*
X1603101Y311912D02*
X1663192D01*
X1678940Y327660D01*
X1727200D01*
X1739392Y315468D02*
X1752600Y302260D01*
X1678940Y315468D02*
X1739392D01*
X1663192Y299720D02*
X1678940Y315468D01*
X1603101Y286512D02*
X1663192D01*
X1678940Y302260D01*
X1727200D01*
X1739392Y290068D02*
X1752600Y276860D01*
X1678940Y290068D02*
X1739392D01*
X1663192Y274320D02*
X1678940Y290068D01*
X1603101Y261112D02*
X1663192D01*
X1678940Y276860D01*
X1727200D01*
X1739392Y264668D02*
X1752600Y251460D01*
X1678940Y264668D02*
X1739392D01*
X1663192Y248920D02*
X1678940Y264668D01*
X1603101Y235712D02*
X1663192D01*
X1678940Y251460D01*
X1727200D01*
X1739392Y239268D02*
X1752600Y226060D01*
X1678940Y239268D02*
X1739392D01*
X1663192Y223520D02*
X1678940Y239268D01*
X1739392Y569468D02*
X1752600Y556260D01*
X1678940Y569468D02*
X1739392D01*
X1663192Y553720D02*
X1678940Y569468D01*
X1603101Y540512D02*
X1663192D01*
X1678940Y556260D01*
X1727200D01*
X1739392Y544068D02*
X1752600Y530860D01*
X1678940Y544068D02*
X1739392D01*
X1663192Y528320D02*
X1678940Y544068D01*
X1603101Y210312D02*
X1663192D01*
X1678940Y226060D01*
X1727200D01*
X1739392Y213868D02*
X1752600Y200660D01*
X1678940Y213868D02*
X1739392D01*
X1663192Y198120D02*
X1678940Y213868D01*
X1603101Y184912D02*
X1663192D01*
X1678940Y200660D01*
X1727200D01*
X1739392Y112268D02*
X1752600Y99060D01*
X1678940Y112268D02*
X1739392D01*
X1663192Y96520D02*
X1678940Y112268D01*
X1603101Y83312D02*
X1663192D01*
X1678940Y99060D01*
X1727200D01*
X1739392Y86868D02*
X1752600Y73660D01*
X1678940Y86868D02*
X1739392D01*
X1663192Y71120D02*
X1678940Y86868D01*
X1711452Y57912D02*
X1727200Y73660D01*
X1603101Y57912D02*
X1711452D01*
X556260Y77470D02*
X579120D01*
X618490Y38100D01*
X958850Y430530D02*
X972058Y417322D01*
X1028192D01*
X1037590Y426720D01*
X1081893D01*
X1094085Y439928D02*
X1107293Y426720D01*
X1037590Y439928D02*
X1094085D01*
X1028192Y430530D02*
X1037590Y439928D01*
X984250Y430530D02*
X1028192D01*
X958850Y557530D02*
X972058Y544322D01*
X1028192D01*
X1037590Y553720D01*
X1081893D01*
X1028192Y557530D02*
X1037590Y566928D01*
X984250Y557530D02*
X1028192D01*
X958850Y582930D02*
X972058Y569722D01*
X1028192D01*
X1037590Y579120D01*
X1081893D01*
X958850Y176530D02*
X972058Y163322D01*
X1028192D01*
X1037590Y172720D01*
X1081893D01*
X1094085Y211328D02*
X1107293Y198120D01*
X1037590Y211328D02*
X1094085D01*
X1028192Y201930D02*
X1037590Y211328D01*
X984250Y201930D02*
X1028192D01*
X958850D02*
X972058Y188722D01*
X1028192D01*
X1037590Y198120D01*
X1081893D01*
X1094085Y236728D02*
X1107293Y223520D01*
X1037590Y236728D02*
X1094085D01*
X1028192Y227330D02*
X1037590Y236728D01*
X984250Y227330D02*
X1028192D01*
X958850D02*
X972058Y214122D01*
X1028192D01*
X1037590Y223520D01*
X1081893D01*
X1094085Y262128D02*
X1107293Y248920D01*
X1037590Y262128D02*
X1094085D01*
X1028192Y252730D02*
X1037590Y262128D01*
X984250Y252730D02*
X1028192D01*
X1739392Y442468D02*
X1752600Y429260D01*
X1678940Y442468D02*
X1739392D01*
X1663192Y426720D02*
X1678940Y442468D01*
X1603101Y413512D02*
X1663192D01*
X1678940Y429260D01*
X1727200D01*
X1739392Y391668D02*
X1752600Y378460D01*
X1678940Y391668D02*
X1739392D01*
X1663192Y375920D02*
X1678940Y391668D01*
X1603101Y362712D02*
X1663192D01*
X1678940Y378460D01*
X1727200D01*
X1739392Y366268D02*
X1752600Y353060D01*
X1678940Y366268D02*
X1739392D01*
X1663192Y350520D02*
X1678940Y366268D01*
X1603101Y337312D02*
X1663192D01*
X1678940Y353060D01*
X1727200D01*
X1739392Y340868D02*
X1752600Y327660D01*
X1678940Y340868D02*
X1739392D01*
X1663192Y325120D02*
X1678940Y340868D01*
X1094085Y389128D02*
X1107293Y375920D01*
X1037590Y389128D02*
X1094085D01*
X1028192Y379730D02*
X1037590Y389128D01*
X984250Y379730D02*
X1028192D01*
X790448Y60452D02*
X811530Y39370D01*
X765048Y60452D02*
X790448D01*
X749300Y76200D02*
X765048Y60452D01*
X958850Y405130D02*
X972058Y391922D01*
X1028192D01*
X1037590Y401320D01*
X1081893D01*
X365760Y78740D02*
X384810D01*
X426720Y36830D01*
X1094085Y414528D02*
X1107293Y401320D01*
X1037590Y414528D02*
X1094085D01*
X1028192Y405130D02*
X1037590Y414528D01*
X984250Y405130D02*
X1028192D01*
X1739392Y188468D02*
X1752600Y175260D01*
X1678940Y188468D02*
X1739392D01*
X1663192Y172720D02*
X1678940Y188468D01*
X1603101Y159512D02*
X1663192D01*
X1678940Y175260D01*
X1727200D01*
X1739392Y163068D02*
X1752600Y149860D01*
X1678940Y163068D02*
X1739392D01*
X1663192Y147320D02*
X1678940Y163068D01*
X1603101Y134112D02*
X1663192D01*
X1678940Y149860D01*
X1727200D01*
X1739392Y137668D02*
X1752600Y124460D01*
X1678940Y137668D02*
X1739392D01*
X1663192Y121920D02*
X1678940Y137668D01*
X1603101Y108712D02*
X1663192D01*
X1678940Y124460D01*
X1727200D01*
X958850Y455930D02*
X972058Y442722D01*
X1028192D01*
X1037590Y452120D01*
X1081893D01*
X958850Y481330D02*
X972058Y468122D01*
X1028192D01*
X1037590Y477520D01*
X1081893D01*
X958850Y506730D02*
X972058Y493522D01*
X1028192D01*
X1037590Y502920D01*
X1081893D01*
X958850Y532130D02*
X972058Y518922D01*
X1028192D01*
X1037590Y528320D01*
X1081893D01*
X633730Y1170940D02*
X662940D01*
X668020Y1165860D01*
X692150D01*
X744220Y1169670D02*
X773938D01*
X777748Y1165860D01*
X803910D01*
X252984Y1043686D02*
X267970Y1028700D01*
X252984Y1043686D02*
Y1156970D01*
X269494Y1173480D01*
X453136D01*
X516128Y1236472D01*
X882650D01*
X887730Y1231392D01*
Y1197610D02*
Y1231392D01*
X885190Y1195070D02*
X887730Y1197610D01*
X875030Y1195070D02*
X885190D01*
X875030Y1169670D02*
X904240D01*
X908050Y1165860D01*
X933450D01*
X250190Y727710D02*
X340360Y637540D01*
X554990D01*
X557530Y640080D01*
Y690880D01*
X814070Y947420D01*
X116840Y744220D02*
X134620Y726440D01*
X69850Y744220D02*
X116840D01*
X58420Y755650D02*
X69850Y744220D01*
X58420Y755650D02*
Y782066D01*
X62230Y785876D01*
X549659D01*
X711202Y947420D01*
X34290Y946150D02*
X609600D01*
X21590Y933450D02*
X34290Y946150D01*
X21590Y725170D02*
Y933450D01*
X265430Y1268730D02*
X311912D01*
X313182Y1267460D01*
X358140D01*
X568960Y582930D02*
X582930Y568960D01*
X607060D01*
X347980Y1104900D02*
X360680Y1092200D01*
X267970Y1104900D02*
X347980D01*
X570230Y650240D02*
X580390Y640080D01*
X605790D01*
X932180Y76200D02*
X958850Y49530D01*
X800100Y76200D02*
X932180D01*
X984250Y49530D02*
X1036828Y45720D01*
X1081893D01*
X607060Y77470D02*
X621538Y91948D01*
X784352D01*
X800100Y76200D01*
X416560Y78740D02*
X431038Y93218D01*
X591312D01*
X607060Y77470D01*
X31750Y665480D02*
X82550Y662940D01*
X128270D01*
X188722Y665480D01*
X243840D01*
X984250Y659130D02*
X1036828Y655320D01*
X1081893D01*
X958850Y379730D02*
X972058Y366522D01*
X1028192D01*
X1037590Y375920D01*
X1081893D01*
X633730Y1221740D02*
X690372Y1220470D01*
X744220D01*
X1673860Y48260D02*
X1727200D01*
X1603101Y388112D02*
X1663192D01*
X1678940Y403860D01*
X1727200D01*
X1673860Y632460D02*
X1727200D01*
X281940Y759460D02*
X294640Y772160D01*
X199390Y759460D02*
X281940D01*
X186690Y772160D02*
X199390Y759460D01*
X171704Y757174D02*
X186690Y772160D01*
X84836Y757174D02*
X171704D01*
X71120Y770890D02*
X84836Y757174D01*
X294640Y772160D02*
X316992Y749808D01*
X445262D01*
X544830Y650240D01*
X762000Y996950D02*
X775716Y983234D01*
X846074D01*
X861060Y998220D01*
X657860D02*
X671576Y984504D01*
X749554D01*
X762000Y996950D01*
X1673860Y607060D02*
X1727200D01*
X993648Y617728D02*
X1094085D01*
X1107293Y604520D01*
X1037590Y541528D02*
X1094085D01*
X1107293Y528320D01*
X1037590Y566928D02*
X1094085D01*
X1107293Y553720D01*
X993648Y592328D02*
X1094085D01*
X1107293Y579120D01*
X1449685Y643128D02*
X1589893Y502920D01*
X1054354Y646430D02*
X1057656Y643128D01*
X1449685D01*
X1577848Y540365D02*
X1589893Y528320D01*
X1745742Y688340D02*
X1764792Y669290D01*
X706882Y547116D02*
X848106Y688340D01*
X1745742D01*
X686054Y623824D02*
X783590Y721360D01*
X1450594D01*
X1615293Y528320D02*
X1663192D01*
X1615293Y477520D02*
X1663192D01*
X1615293Y350520D02*
X1663192D01*
X1589893Y274320D02*
X1603101Y261112D01*
X1615293Y147320D02*
X1663192D01*
X1589893Y477520D02*
X1603101Y464312D01*
X1036828Y629920D02*
X1081893D01*
X1107293D01*
X1615293Y401320D02*
X1663192D01*
X1589893Y350520D02*
X1603101Y337312D01*
X1589893Y223520D02*
X1603101Y210312D01*
X1589893Y147320D02*
X1603101Y134112D01*
X1615293Y579120D02*
X1631041Y594868D01*
X1615293Y452120D02*
X1663192D01*
X1615293Y325120D02*
X1663192D01*
X1615293Y274320D02*
X1663192D01*
X1615293Y198120D02*
X1663192D01*
X1615293Y121920D02*
X1663192D01*
X1615293Y629920D02*
X1673860Y632460D01*
X1589893Y629920D02*
X1615293D01*
X1589893Y579120D02*
X1603101Y565912D01*
X1615293Y553720D02*
X1663192D01*
X1589893Y452120D02*
X1603101Y438912D01*
X1589893Y198120D02*
X1603101Y184912D01*
X1589893Y121920D02*
X1603101Y108712D01*
X1615293Y426720D02*
X1663192D01*
X1589893Y401320D02*
X1603101Y388112D01*
X1589893Y325120D02*
X1603101Y311912D01*
X1615293Y248920D02*
X1663192D01*
X1615293Y96520D02*
X1663192D01*
X1589893Y528320D02*
X1603101Y515112D01*
X1589893Y426720D02*
X1603101Y413512D01*
X1615293Y299720D02*
X1663192D01*
X1615293Y223520D02*
X1663192D01*
X1589893Y96520D02*
X1603101Y83312D01*
X1107293Y655320D02*
X1589893D01*
X1081893D02*
X1107293D01*
X1589893D02*
X1615293D01*
Y45720D02*
X1673860Y48260D01*
X1107293Y45720D02*
X1589893D01*
X1081893D02*
X1107293D01*
X1589893D02*
X1615293D01*
Y502920D02*
X1663192D01*
X1615293Y375920D02*
X1663192D01*
X1589893Y299720D02*
X1603101Y286512D01*
X1589893Y248920D02*
X1603101Y235712D01*
X1615293Y172720D02*
X1663192D01*
X1615293Y71120D02*
X1663192D01*
X1615293Y604520D02*
X1673860Y607060D01*
X1589893Y604520D02*
X1615293D01*
X1589893Y553720D02*
X1603101Y540512D01*
X1589893Y502920D02*
X1603101Y489712D01*
X1589893Y375920D02*
X1603101Y362712D01*
X1589893Y172720D02*
X1603101Y159512D01*
X1589893Y71120D02*
X1603101Y57912D01*
X1615293Y655320D02*
X1617669Y653142D01*
X1722022Y662210D01*
X1727200Y657860D01*
D11*
X621030Y255270D02*
D03*
X544830D02*
D03*
X812800Y257810D02*
D03*
X736600D02*
D03*
X236220D02*
D03*
X160020D02*
D03*
X430530Y256540D02*
D03*
X354330D02*
D03*
X570230Y650240D02*
D03*
X360680Y1092200D02*
D03*
Y1186180D02*
D03*
X568960Y582930D02*
D03*
X358140Y1267460D02*
D03*
X96520Y770890D02*
D03*
X683260Y998220D02*
D03*
X212090Y772160D02*
D03*
X787400Y996950D02*
D03*
X320040Y772160D02*
D03*
X886460Y998220D02*
D03*
X568960Y515620D02*
D03*
D12*
X556260Y77470D02*
D03*
X607060D02*
D03*
Y204470D02*
D03*
X556260D02*
D03*
X749300Y76200D02*
D03*
X800100D02*
D03*
Y203200D02*
D03*
X749300D02*
D03*
X176530Y77470D02*
D03*
X227330D02*
D03*
Y204470D02*
D03*
X176530D02*
D03*
X365760Y78740D02*
D03*
X416560D02*
D03*
Y205740D02*
D03*
X365760D02*
D03*
D13*
X542290Y38100D02*
D03*
X618490D02*
D03*
X735330Y39370D02*
D03*
X811530D02*
D03*
X251460Y35560D02*
D03*
X175260D02*
D03*
X350520Y36830D02*
D03*
X426720D02*
D03*
X933450Y1089660D02*
D03*
Y1165860D02*
D03*
X803910Y1089660D02*
D03*
Y1165860D02*
D03*
X692150Y1089660D02*
D03*
Y1165860D02*
D03*
X605790Y640080D02*
D03*
X681990D02*
D03*
X267970Y1104900D02*
D03*
Y1028700D02*
D03*
X265430Y1224280D02*
D03*
Y1148080D02*
D03*
X607060Y568960D02*
D03*
X683260D02*
D03*
X265430Y1268730D02*
D03*
Y1344930D02*
D03*
X607060Y513080D02*
D03*
X683260D02*
D03*
X67310Y501650D02*
D03*
Y577850D02*
D03*
X167640Y499110D02*
D03*
Y575310D02*
D03*
X280670Y502920D02*
D03*
Y579120D02*
D03*
X97790Y725170D02*
D03*
X21590D02*
D03*
X685800Y946150D02*
D03*
X609600D02*
D03*
X210820Y726440D02*
D03*
X134620D02*
D03*
X787402Y947420D02*
D03*
X711202D02*
D03*
X326390Y727710D02*
D03*
X250190D02*
D03*
X890270Y947420D02*
D03*
X814070D02*
D03*
D14*
X1236980Y1089660D02*
D03*
X1262380D02*
D03*
X1287780D02*
D03*
X1313180D02*
D03*
X1338580D02*
D03*
X1752600Y48260D02*
D03*
X1727200D02*
D03*
X1752600Y73660D02*
D03*
X1727200D02*
D03*
X1752600Y99060D02*
D03*
X1727200D02*
D03*
X1752600Y124460D02*
D03*
X1727200D02*
D03*
X1752600Y149860D02*
D03*
X1727200D02*
D03*
X1752600Y175260D02*
D03*
X1727200D02*
D03*
X1752600Y200660D02*
D03*
X1727200D02*
D03*
X1752600Y226060D02*
D03*
X1727200D02*
D03*
X1752600Y251460D02*
D03*
X1727200D02*
D03*
X1752600Y276860D02*
D03*
X1727200D02*
D03*
X1752600Y302260D02*
D03*
X1727200D02*
D03*
X1752600Y327660D02*
D03*
X1727200D02*
D03*
X1752600Y353060D02*
D03*
X1727200D02*
D03*
X1752600Y378460D02*
D03*
X1727200D02*
D03*
X1752600Y403860D02*
D03*
X1727200D02*
D03*
X1752600Y429260D02*
D03*
X1727200D02*
D03*
X1752600Y454660D02*
D03*
X1727200D02*
D03*
X1752600Y480060D02*
D03*
X1727200D02*
D03*
X1752600Y505460D02*
D03*
X1727200D02*
D03*
X1752600Y530860D02*
D03*
X1727200D02*
D03*
X1752600Y556260D02*
D03*
X1727200D02*
D03*
X1752600Y581660D02*
D03*
X1727200D02*
D03*
X1752600Y607060D02*
D03*
X1727200D02*
D03*
X1752600Y632460D02*
D03*
X1727200D02*
D03*
X1752600Y657860D02*
D03*
X984250Y49530D02*
D03*
X958850D02*
D03*
X984250Y74930D02*
D03*
X958850D02*
D03*
X984250Y100330D02*
D03*
X958850D02*
D03*
X984250Y125730D02*
D03*
X958850D02*
D03*
X984250Y151130D02*
D03*
X958850D02*
D03*
X984250Y176530D02*
D03*
X958850D02*
D03*
X984250Y201930D02*
D03*
X958850D02*
D03*
X984250Y227330D02*
D03*
X958850D02*
D03*
X984250Y252730D02*
D03*
X958850D02*
D03*
X984250Y278130D02*
D03*
X958850D02*
D03*
X984250Y303530D02*
D03*
X958850D02*
D03*
X984250Y328930D02*
D03*
X958850D02*
D03*
X984250Y354330D02*
D03*
X958850D02*
D03*
X984250Y379730D02*
D03*
X958850D02*
D03*
X984250Y405130D02*
D03*
X958850D02*
D03*
X984250Y430530D02*
D03*
X958850D02*
D03*
X984250Y455930D02*
D03*
X958850D02*
D03*
X984250Y481330D02*
D03*
X958850D02*
D03*
X984250Y506730D02*
D03*
X958850D02*
D03*
X984250Y532130D02*
D03*
X958850D02*
D03*
X984250Y557530D02*
D03*
X958850D02*
D03*
X984250Y582930D02*
D03*
X958850D02*
D03*
X984250Y608330D02*
D03*
X958850D02*
D03*
X984250Y633730D02*
D03*
X958850D02*
D03*
X984250Y659130D02*
D03*
D15*
X1363980Y1089660D02*
D03*
D16*
X1727200Y657860D02*
D03*
X958850Y659130D02*
D03*
D17*
X875030Y1169670D02*
D03*
Y1195070D02*
D03*
X744220Y1169670D02*
D03*
Y1195070D02*
D03*
X633730Y1170940D02*
D03*
Y1196340D02*
D03*
X31750Y614680D02*
D03*
Y640080D02*
D03*
X128270Y612140D02*
D03*
Y637540D02*
D03*
X243840Y614680D02*
D03*
Y640080D02*
D03*
D18*
X875030Y1220470D02*
D03*
X744220D02*
D03*
X633730Y1221740D02*
D03*
X31750Y665480D02*
D03*
X128270Y662940D02*
D03*
X243840Y665480D02*
D03*
D19*
X544830Y650240D02*
D03*
X543560Y582930D02*
D03*
X71120Y770890D02*
D03*
X657860Y998220D02*
D03*
X186690Y772160D02*
D03*
X762000Y996950D02*
D03*
X294640Y772160D02*
D03*
X861060Y998220D02*
D03*
X543560Y515620D02*
D03*
D20*
X360680Y1117600D02*
D03*
Y1160780D02*
D03*
X358140Y1242060D02*
D03*
D21*
X1615293Y45720D02*
D03*
X1589893D02*
D03*
X1615293Y71120D02*
D03*
X1589893D02*
D03*
X1615293Y96520D02*
D03*
X1589893D02*
D03*
X1615293Y121920D02*
D03*
X1589893D02*
D03*
X1615293Y147320D02*
D03*
X1589893D02*
D03*
X1615293Y172720D02*
D03*
X1589893D02*
D03*
X1615293Y198120D02*
D03*
X1589893D02*
D03*
X1615293Y223520D02*
D03*
X1589893D02*
D03*
X1615293Y248920D02*
D03*
X1589893D02*
D03*
X1615293Y274320D02*
D03*
X1589893D02*
D03*
X1615293Y299720D02*
D03*
X1589893D02*
D03*
X1615293Y325120D02*
D03*
X1589893D02*
D03*
X1615293Y350520D02*
D03*
X1589893D02*
D03*
X1615293Y375920D02*
D03*
X1589893D02*
D03*
X1615293Y401320D02*
D03*
X1589893D02*
D03*
X1615293Y426720D02*
D03*
X1589893D02*
D03*
X1615293Y452120D02*
D03*
X1589893D02*
D03*
X1615293Y477520D02*
D03*
X1589893D02*
D03*
X1615293Y502920D02*
D03*
X1589893D02*
D03*
X1615293Y528320D02*
D03*
X1589893D02*
D03*
X1615293Y553720D02*
D03*
X1589893D02*
D03*
X1615293Y579120D02*
D03*
X1589893D02*
D03*
X1615293Y604520D02*
D03*
X1589893D02*
D03*
X1615293Y629920D02*
D03*
X1589893D02*
D03*
X1615293Y655320D02*
D03*
X1107293Y45720D02*
D03*
X1081893D02*
D03*
X1107293Y71120D02*
D03*
X1081893D02*
D03*
X1107293Y96520D02*
D03*
X1081893D02*
D03*
X1107293Y121920D02*
D03*
X1081893D02*
D03*
X1107293Y147320D02*
D03*
X1081893D02*
D03*
X1107293Y172720D02*
D03*
X1081893D02*
D03*
X1107293Y198120D02*
D03*
X1081893D02*
D03*
X1107293Y223520D02*
D03*
X1081893D02*
D03*
X1107293Y248920D02*
D03*
X1081893D02*
D03*
X1107293Y274320D02*
D03*
X1081893D02*
D03*
X1107293Y299720D02*
D03*
X1081893D02*
D03*
X1107293Y325120D02*
D03*
X1081893D02*
D03*
X1107293Y350520D02*
D03*
X1081893D02*
D03*
X1107293Y375920D02*
D03*
X1081893D02*
D03*
X1107293Y401320D02*
D03*
X1081893D02*
D03*
X1107293Y426720D02*
D03*
X1081893D02*
D03*
X1107293Y452120D02*
D03*
X1081893D02*
D03*
X1107293Y477520D02*
D03*
X1081893D02*
D03*
X1107293Y502920D02*
D03*
X1081893D02*
D03*
X1107293Y528320D02*
D03*
X1081893D02*
D03*
X1107293Y553720D02*
D03*
X1081893D02*
D03*
X1107293Y579120D02*
D03*
X1081893D02*
D03*
X1107293Y604520D02*
D03*
X1081893D02*
D03*
X1107293Y629920D02*
D03*
X1081893D02*
D03*
X1107293Y655320D02*
D03*
D22*
X1589893D02*
D03*
X1081893D02*
D03*
D23*
X324866Y547116D02*
D03*
X1450594Y721360D02*
D03*
M02*
