G04 Layer_Color=65535*
%FSLAX44Y44*%
%MOMM*%
G71*
G01*
G75*
%ADD24C,0.2032*%
%ADD25C,0.2540*%
%ADD26C,0.4000*%
%ADD27C,0.2000*%
%ADD28C,0.1270*%
D24*
X594360Y30480D02*
X596786Y29552D01*
X599377Y29377D01*
X601906Y29970D01*
X604149Y31279D01*
X605910Y33189D01*
X607032Y35531D01*
X607417Y38100D01*
X607032Y40669D01*
X605910Y43011D01*
X604149Y44921D01*
X601906Y46230D01*
X599377Y46823D01*
X596786Y46648D01*
X594360Y45720D01*
X566420D02*
X564142Y46651D01*
X561696Y46917D01*
X559272Y46497D01*
X557057Y45424D01*
X555226Y43781D01*
X553919Y41695D01*
X553240Y39330D01*
Y36870D01*
X553919Y34505D01*
X555226Y32419D01*
X557057Y30776D01*
X559272Y29703D01*
X561696Y29283D01*
X564142Y29549D01*
X566420Y30480D01*
X787400Y31750D02*
X789826Y30822D01*
X792417Y30647D01*
X794946Y31240D01*
X797189Y32549D01*
X798950Y34459D01*
X800072Y36801D01*
X800458Y39370D01*
X800072Y41939D01*
X798950Y44281D01*
X797189Y46191D01*
X794946Y47500D01*
X792417Y48093D01*
X789826Y47918D01*
X787400Y46990D01*
X759460D02*
X757182Y47921D01*
X754736Y48187D01*
X752311Y47767D01*
X750097Y46694D01*
X748266Y45051D01*
X746959Y42965D01*
X746280Y40600D01*
Y38140D01*
X746959Y35775D01*
X748266Y33689D01*
X750097Y32046D01*
X752311Y30973D01*
X754736Y30553D01*
X757182Y30819D01*
X759460Y31750D01*
X199390Y43180D02*
X196964Y44108D01*
X194373Y44283D01*
X191844Y43690D01*
X189601Y42381D01*
X187840Y40471D01*
X186718Y38129D01*
X186332Y35560D01*
X186718Y32991D01*
X187840Y30649D01*
X189601Y28739D01*
X191844Y27430D01*
X194373Y26837D01*
X196964Y27012D01*
X199390Y27940D01*
X227330D02*
X229608Y27009D01*
X232054Y26743D01*
X234478Y27163D01*
X236693Y28236D01*
X238524Y29879D01*
X239831Y31965D01*
X240511Y34330D01*
Y36790D01*
X239831Y39155D01*
X238524Y41241D01*
X236693Y42884D01*
X234478Y43957D01*
X232054Y44377D01*
X229608Y44111D01*
X227330Y43180D01*
X402590Y29210D02*
X405016Y28282D01*
X407607Y28107D01*
X410136Y28700D01*
X412379Y30009D01*
X414140Y31919D01*
X415262Y34261D01*
X415648Y36830D01*
X415262Y39399D01*
X414140Y41741D01*
X412379Y43651D01*
X410136Y44960D01*
X407607Y45553D01*
X405016Y45378D01*
X402590Y44450D01*
X374650D02*
X372372Y45381D01*
X369926Y45647D01*
X367501Y45227D01*
X365287Y44154D01*
X363456Y42511D01*
X362149Y40425D01*
X361469Y38060D01*
Y35600D01*
X362149Y33235D01*
X363456Y31149D01*
X365287Y29506D01*
X367501Y28433D01*
X369926Y28013D01*
X372372Y28279D01*
X374650Y29210D01*
X886436Y1170990D02*
X888647Y1172168D01*
X890737Y1173547D01*
X892689Y1175117D01*
X894484Y1176864D01*
X896108Y1178771D01*
X897545Y1180822D01*
X898783Y1182999D01*
X899812Y1185283D01*
X900621Y1187653D01*
X901205Y1190088D01*
X901557Y1192568D01*
X901675Y1195070D01*
X901557Y1197572D01*
X901205Y1200051D01*
X900621Y1202487D01*
X899812Y1204857D01*
X898783Y1207141D01*
X897545Y1209318D01*
X896108Y1211369D01*
X894484Y1213276D01*
X892689Y1215023D01*
X890737Y1216593D01*
X888647Y1217972D01*
X886436Y1219150D01*
X859665Y1173302D02*
X861594Y1172061D01*
X863624Y1170990D01*
Y1219150D02*
X861594Y1218079D01*
X859665Y1216838D01*
X755626Y1170990D02*
X757837Y1172168D01*
X759927Y1173547D01*
X761879Y1175117D01*
X763674Y1176864D01*
X765298Y1178771D01*
X766735Y1180822D01*
X767973Y1182999D01*
X769002Y1185283D01*
X769811Y1187653D01*
X770395Y1190088D01*
X770747Y1192568D01*
X770865Y1195070D01*
X770747Y1197572D01*
X770395Y1200051D01*
X769811Y1202487D01*
X769002Y1204857D01*
X767973Y1207141D01*
X766735Y1209318D01*
X765298Y1211369D01*
X763674Y1213276D01*
X761879Y1215023D01*
X759927Y1216593D01*
X757837Y1217972D01*
X755626Y1219150D01*
X728855Y1173302D02*
X730784Y1172061D01*
X732814Y1170990D01*
Y1219150D02*
X730784Y1218079D01*
X728855Y1216838D01*
X645136Y1172260D02*
X647347Y1173438D01*
X649437Y1174817D01*
X651389Y1176387D01*
X653184Y1178134D01*
X654808Y1180041D01*
X656245Y1182092D01*
X657483Y1184269D01*
X658512Y1186553D01*
X659321Y1188923D01*
X659905Y1191358D01*
X660257Y1193838D01*
X660375Y1196340D01*
X660257Y1198842D01*
X659905Y1201321D01*
X659321Y1203757D01*
X658512Y1206127D01*
X657483Y1208411D01*
X656245Y1210588D01*
X654808Y1212639D01*
X653184Y1214546D01*
X651389Y1216293D01*
X649437Y1217863D01*
X647347Y1219242D01*
X645136Y1220420D01*
X618364Y1174572D02*
X620294Y1173331D01*
X622324Y1172260D01*
Y1220420D02*
X620294Y1219349D01*
X618364Y1218108D01*
X941070Y1141730D02*
X941998Y1144156D01*
X942173Y1146747D01*
X941580Y1149276D01*
X940271Y1151519D01*
X938361Y1153280D01*
X936019Y1154402D01*
X933450Y1154788D01*
X930881Y1154402D01*
X928539Y1153280D01*
X926629Y1151519D01*
X925320Y1149276D01*
X924727Y1146747D01*
X924902Y1144156D01*
X925830Y1141730D01*
Y1113790D02*
X924899Y1111512D01*
X924633Y1109066D01*
X925053Y1106641D01*
X926126Y1104427D01*
X927769Y1102596D01*
X929855Y1101289D01*
X932220Y1100610D01*
X934680D01*
X937045Y1101289D01*
X939131Y1102596D01*
X940774Y1104427D01*
X941847Y1106641D01*
X942267Y1109066D01*
X942001Y1111512D01*
X941070Y1113790D01*
X811530Y1141730D02*
X812458Y1144156D01*
X812633Y1146747D01*
X812040Y1149276D01*
X810731Y1151519D01*
X808821Y1153280D01*
X806479Y1154402D01*
X803910Y1154788D01*
X801341Y1154402D01*
X798999Y1153280D01*
X797089Y1151519D01*
X795780Y1149276D01*
X795187Y1146747D01*
X795362Y1144156D01*
X796290Y1141730D01*
Y1113790D02*
X795359Y1111512D01*
X795093Y1109066D01*
X795513Y1106641D01*
X796586Y1104427D01*
X798229Y1102596D01*
X800315Y1101289D01*
X802680Y1100610D01*
X805140D01*
X807505Y1101289D01*
X809591Y1102596D01*
X811234Y1104427D01*
X812307Y1106641D01*
X812727Y1109066D01*
X812461Y1111512D01*
X811530Y1113790D01*
X699770Y1141730D02*
X700698Y1144156D01*
X700873Y1146747D01*
X700280Y1149276D01*
X698971Y1151519D01*
X697061Y1153280D01*
X694719Y1154402D01*
X692150Y1154788D01*
X689581Y1154402D01*
X687239Y1153280D01*
X685329Y1151519D01*
X684020Y1149276D01*
X683427Y1146747D01*
X683602Y1144156D01*
X684530Y1141730D01*
Y1113790D02*
X683599Y1111512D01*
X683333Y1109066D01*
X683753Y1106641D01*
X684826Y1104427D01*
X686469Y1102596D01*
X688555Y1101289D01*
X690920Y1100610D01*
X693380D01*
X695745Y1101289D01*
X697831Y1102596D01*
X699474Y1104427D01*
X700547Y1106641D01*
X700967Y1109066D01*
X700701Y1111512D01*
X699770Y1113790D01*
X657860Y632460D02*
X660286Y631532D01*
X662877Y631357D01*
X665406Y631950D01*
X667649Y633259D01*
X669410Y635169D01*
X670532Y637511D01*
X670918Y640080D01*
X670532Y642649D01*
X669410Y644991D01*
X667649Y646901D01*
X665406Y648210D01*
X662877Y648803D01*
X660286Y648628D01*
X657860Y647700D01*
X629920D02*
X627642Y648631D01*
X625196Y648897D01*
X622771Y648477D01*
X620557Y647404D01*
X618726Y645761D01*
X617419Y643675D01*
X616740Y641310D01*
Y638850D01*
X617419Y636485D01*
X618726Y634399D01*
X620557Y632756D01*
X622771Y631683D01*
X625196Y631263D01*
X627642Y631529D01*
X629920Y632460D01*
X260350Y1052830D02*
X259422Y1050404D01*
X259247Y1047813D01*
X259840Y1045284D01*
X261149Y1043041D01*
X263059Y1041280D01*
X265401Y1040158D01*
X267970Y1039772D01*
X270539Y1040158D01*
X272881Y1041280D01*
X274791Y1043041D01*
X276100Y1045284D01*
X276693Y1047813D01*
X276518Y1050404D01*
X275590Y1052830D01*
Y1080770D02*
X276521Y1083048D01*
X276787Y1085494D01*
X276367Y1087918D01*
X275294Y1090133D01*
X273651Y1091964D01*
X271565Y1093271D01*
X269200Y1093951D01*
X266740Y1093951D01*
X264375Y1093271D01*
X262290Y1091964D01*
X260646Y1090133D01*
X259573Y1087918D01*
X259153Y1085494D01*
X259419Y1083048D01*
X260350Y1080770D01*
X257810Y1172210D02*
X256882Y1169784D01*
X256707Y1167193D01*
X257300Y1164664D01*
X258609Y1162421D01*
X260519Y1160660D01*
X262861Y1159538D01*
X265430Y1159153D01*
X267999Y1159538D01*
X270341Y1160660D01*
X272251Y1162421D01*
X273560Y1164664D01*
X274153Y1167193D01*
X273978Y1169784D01*
X273050Y1172210D01*
Y1200150D02*
X273981Y1202428D01*
X274247Y1204874D01*
X273827Y1207299D01*
X272754Y1209513D01*
X271111Y1211344D01*
X269025Y1212651D01*
X266660Y1213331D01*
X264200Y1213331D01*
X261835Y1212651D01*
X259750Y1211344D01*
X258106Y1209513D01*
X257033Y1207299D01*
X256613Y1204874D01*
X256879Y1202428D01*
X257810Y1200150D01*
X659130Y561340D02*
X661556Y560412D01*
X664147Y560237D01*
X666676Y560830D01*
X668919Y562139D01*
X670680Y564049D01*
X671802Y566391D01*
X672188Y568960D01*
X671802Y571529D01*
X670680Y573871D01*
X668919Y575781D01*
X666676Y577090D01*
X664147Y577683D01*
X661556Y577508D01*
X659130Y576580D01*
X631190D02*
X628912Y577511D01*
X626466Y577777D01*
X624041Y577357D01*
X621827Y576284D01*
X619996Y574641D01*
X618689Y572555D01*
X618009Y570190D01*
Y567730D01*
X618689Y565365D01*
X619996Y563279D01*
X621827Y561636D01*
X624041Y560563D01*
X626466Y560143D01*
X628912Y560409D01*
X631190Y561340D01*
X273050Y1320800D02*
X273978Y1323226D01*
X274153Y1325817D01*
X273560Y1328346D01*
X272251Y1330589D01*
X270341Y1332350D01*
X267999Y1333472D01*
X265430Y1333858D01*
X262861Y1333472D01*
X260519Y1332350D01*
X258609Y1330589D01*
X257300Y1328346D01*
X256707Y1325817D01*
X256882Y1323226D01*
X257810Y1320800D01*
Y1292860D02*
X256879Y1290582D01*
X256613Y1288136D01*
X257033Y1285712D01*
X258106Y1283497D01*
X259749Y1281666D01*
X261835Y1280359D01*
X264200Y1279679D01*
X266660D01*
X269025Y1280359D01*
X271111Y1281666D01*
X272754Y1283497D01*
X273827Y1285712D01*
X274247Y1288136D01*
X273981Y1290582D01*
X273050Y1292860D01*
X659130Y505460D02*
X661556Y504532D01*
X664147Y504357D01*
X666676Y504950D01*
X668919Y506259D01*
X670680Y508169D01*
X671802Y510511D01*
X672188Y513080D01*
X671802Y515649D01*
X670680Y517991D01*
X668919Y519901D01*
X666676Y521210D01*
X664147Y521803D01*
X661556Y521628D01*
X659130Y520700D01*
X631190D02*
X628912Y521631D01*
X626466Y521897D01*
X624041Y521477D01*
X621827Y520404D01*
X619996Y518761D01*
X618689Y516675D01*
X618009Y514310D01*
Y511850D01*
X618689Y509485D01*
X619996Y507399D01*
X621827Y505756D01*
X624041Y504683D01*
X626466Y504263D01*
X628912Y504529D01*
X631190Y505460D01*
X43156Y616000D02*
X45367Y617178D01*
X47457Y618557D01*
X49409Y620127D01*
X51204Y621874D01*
X52828Y623781D01*
X54265Y625832D01*
X55503Y628009D01*
X56532Y630293D01*
X57341Y632663D01*
X57925Y635098D01*
X58277Y637578D01*
X58395Y640080D01*
X58277Y642582D01*
X57925Y645061D01*
X57341Y647497D01*
X56532Y649867D01*
X55503Y652151D01*
X54265Y654328D01*
X52828Y656379D01*
X51204Y658286D01*
X49409Y660033D01*
X47457Y661603D01*
X45367Y662982D01*
X43156Y664160D01*
X16385Y618312D02*
X18314Y617071D01*
X20344Y616000D01*
Y664160D02*
X18314Y663089D01*
X16385Y661848D01*
X139676Y613460D02*
X141887Y614638D01*
X143977Y616017D01*
X145929Y617587D01*
X147724Y619334D01*
X149348Y621241D01*
X150785Y623292D01*
X152023Y625469D01*
X153052Y627752D01*
X153861Y630123D01*
X154445Y632558D01*
X154797Y635038D01*
X154915Y637540D01*
X154797Y640042D01*
X154445Y642522D01*
X153861Y644957D01*
X153052Y647327D01*
X152023Y649611D01*
X150785Y651788D01*
X149348Y653839D01*
X147724Y655746D01*
X145929Y657493D01*
X143977Y659063D01*
X141887Y660442D01*
X139676Y661620D01*
X112905Y615772D02*
X114834Y614531D01*
X116864Y613460D01*
Y661620D02*
X114834Y660549D01*
X112905Y659308D01*
X255246Y616000D02*
X257457Y617178D01*
X259547Y618557D01*
X261499Y620127D01*
X263294Y621874D01*
X264918Y623781D01*
X266355Y625832D01*
X267593Y628009D01*
X268622Y630293D01*
X269431Y632663D01*
X270015Y635098D01*
X270367Y637578D01*
X270485Y640080D01*
X270367Y642582D01*
X270015Y645061D01*
X269431Y647497D01*
X268622Y649867D01*
X267593Y652151D01*
X266355Y654328D01*
X264918Y656379D01*
X263294Y658286D01*
X261499Y660033D01*
X259547Y661603D01*
X257457Y662982D01*
X255246Y664160D01*
X228475Y618312D02*
X230404Y617071D01*
X232434Y616000D01*
Y664160D02*
X230404Y663089D01*
X228475Y661848D01*
X74930Y553720D02*
X75858Y556146D01*
X76033Y558737D01*
X75440Y561266D01*
X74131Y563509D01*
X72221Y565270D01*
X69879Y566392D01*
X67310Y566777D01*
X64741Y566392D01*
X62399Y565270D01*
X60489Y563509D01*
X59180Y561266D01*
X58587Y558737D01*
X58762Y556146D01*
X59690Y553720D01*
Y525780D02*
X58759Y523502D01*
X58493Y521056D01*
X58913Y518632D01*
X59986Y516417D01*
X61629Y514586D01*
X63715Y513279D01*
X66080Y512599D01*
X68540D01*
X70905Y513279D01*
X72991Y514586D01*
X74634Y516417D01*
X75707Y518632D01*
X76127Y521056D01*
X75861Y523502D01*
X74930Y525780D01*
X175260Y551180D02*
X176188Y553606D01*
X176363Y556197D01*
X175770Y558726D01*
X174461Y560969D01*
X172551Y562730D01*
X170209Y563852D01*
X167640Y564238D01*
X165071Y563852D01*
X162729Y562730D01*
X160819Y560969D01*
X159510Y558726D01*
X158917Y556197D01*
X159092Y553606D01*
X160020Y551180D01*
Y523240D02*
X159089Y520962D01*
X158823Y518516D01*
X159243Y516091D01*
X160316Y513877D01*
X161959Y512046D01*
X164045Y510739D01*
X166410Y510060D01*
X168870D01*
X171235Y510739D01*
X173321Y512046D01*
X174964Y513877D01*
X176037Y516091D01*
X176457Y518516D01*
X176191Y520962D01*
X175260Y523240D01*
X288290Y554990D02*
X289218Y557416D01*
X289393Y560007D01*
X288800Y562536D01*
X287491Y564779D01*
X285581Y566540D01*
X283239Y567662D01*
X280670Y568047D01*
X278101Y567662D01*
X275759Y566540D01*
X273849Y564779D01*
X272540Y562536D01*
X271947Y560007D01*
X272122Y557416D01*
X273050Y554990D01*
Y527050D02*
X272119Y524772D01*
X271853Y522326D01*
X272273Y519902D01*
X273346Y517687D01*
X274989Y515856D01*
X277075Y514549D01*
X279440Y513870D01*
X281900D01*
X284265Y514549D01*
X286351Y515856D01*
X287994Y517687D01*
X289067Y519902D01*
X289487Y522326D01*
X289221Y524772D01*
X288290Y527050D01*
X45720Y732790D02*
X43294Y733718D01*
X40703Y733893D01*
X38174Y733300D01*
X35931Y731991D01*
X34170Y730081D01*
X33048Y727739D01*
X32662Y725170D01*
X33048Y722601D01*
X34170Y720259D01*
X35931Y718349D01*
X38174Y717040D01*
X40703Y716447D01*
X43294Y716622D01*
X45720Y717550D01*
X73660D02*
X75938Y716619D01*
X78384Y716353D01*
X80808Y716773D01*
X83023Y717846D01*
X84854Y719489D01*
X86161Y721575D01*
X86840Y723940D01*
Y726400D01*
X86161Y728765D01*
X84854Y730851D01*
X83023Y732494D01*
X80808Y733567D01*
X78384Y733987D01*
X75938Y733721D01*
X73660Y732790D01*
X633730Y953770D02*
X631304Y954698D01*
X628713Y954873D01*
X626184Y954280D01*
X623941Y952971D01*
X622180Y951061D01*
X621058Y948719D01*
X620672Y946150D01*
X621058Y943581D01*
X622180Y941239D01*
X623941Y939329D01*
X626184Y938020D01*
X628713Y937427D01*
X631304Y937602D01*
X633730Y938530D01*
X661670D02*
X663948Y937599D01*
X666394Y937333D01*
X668819Y937753D01*
X671033Y938826D01*
X672864Y940469D01*
X674171Y942555D01*
X674850Y944920D01*
Y947380D01*
X674171Y949745D01*
X672864Y951831D01*
X671033Y953474D01*
X668819Y954547D01*
X666394Y954967D01*
X663948Y954701D01*
X661670Y953770D01*
X158750Y734060D02*
X156324Y734988D01*
X153733Y735163D01*
X151204Y734570D01*
X148961Y733261D01*
X147200Y731351D01*
X146078Y729009D01*
X145693Y726440D01*
X146078Y723871D01*
X147200Y721529D01*
X148961Y719619D01*
X151204Y718310D01*
X153733Y717717D01*
X156324Y717892D01*
X158750Y718820D01*
X186690D02*
X188968Y717889D01*
X191414Y717623D01*
X193839Y718043D01*
X196053Y719116D01*
X197884Y720759D01*
X199191Y722845D01*
X199870Y725210D01*
Y727670D01*
X199191Y730035D01*
X197884Y732121D01*
X196053Y733764D01*
X193839Y734837D01*
X191414Y735257D01*
X188968Y734991D01*
X186690Y734060D01*
X735332Y955040D02*
X732907Y955968D01*
X730315Y956143D01*
X727786Y955550D01*
X725543Y954241D01*
X723783Y952331D01*
X722661Y949989D01*
X722275Y947420D01*
X722661Y944851D01*
X723783Y942509D01*
X725543Y940599D01*
X727786Y939290D01*
X730315Y938697D01*
X732907Y938872D01*
X735332Y939800D01*
X763272D02*
X765550Y938869D01*
X767997Y938603D01*
X770421Y939023D01*
X772635Y940096D01*
X774467Y941739D01*
X775773Y943825D01*
X776453Y946190D01*
Y948650D01*
X775773Y951015D01*
X774467Y953101D01*
X772635Y954744D01*
X770421Y955817D01*
X767997Y956237D01*
X765550Y955971D01*
X763273Y955040D01*
X274320Y735330D02*
X271894Y736258D01*
X269303Y736433D01*
X266774Y735840D01*
X264531Y734531D01*
X262770Y732621D01*
X261648Y730279D01*
X261262Y727710D01*
X261648Y725141D01*
X262770Y722799D01*
X264531Y720889D01*
X266774Y719580D01*
X269303Y718987D01*
X271894Y719162D01*
X274320Y720090D01*
X302260D02*
X304538Y719159D01*
X306984Y718893D01*
X309408Y719313D01*
X311623Y720386D01*
X313454Y722029D01*
X314761Y724115D01*
X315441Y726480D01*
Y728940D01*
X314761Y731305D01*
X313454Y733391D01*
X311623Y735034D01*
X309408Y736107D01*
X306984Y736527D01*
X304538Y736261D01*
X302260Y735330D01*
X838200Y955040D02*
X835774Y955968D01*
X833183Y956143D01*
X830654Y955550D01*
X828411Y954241D01*
X826650Y952331D01*
X825528Y949989D01*
X825143Y947420D01*
X825528Y944851D01*
X826650Y942509D01*
X828411Y940599D01*
X830654Y939290D01*
X833183Y938697D01*
X835774Y938872D01*
X838200Y939800D01*
X866140D02*
X868418Y938869D01*
X870864Y938603D01*
X873288Y939023D01*
X875503Y940096D01*
X877334Y941739D01*
X878641Y943825D01*
X879321Y946190D01*
Y948650D01*
X878641Y951015D01*
X877334Y953101D01*
X875503Y954744D01*
X873288Y955817D01*
X870864Y956237D01*
X868418Y955971D01*
X866140Y955040D01*
X589280Y255270D02*
X609600D01*
X556260D02*
X576580D01*
X586740Y245110D02*
Y265430D01*
X579120Y245110D02*
Y265430D01*
X781050Y257810D02*
X801370D01*
X748030D02*
X768350D01*
X778510Y247650D02*
Y267970D01*
X770890Y247650D02*
Y267970D01*
X526660Y200970D02*
X541660D01*
X521660Y195970D02*
X526660Y200970D01*
X521660Y85970D02*
Y195970D01*
X526660Y80970D02*
X541660D01*
X521660Y85970D02*
X526660Y80970D01*
X641660Y85970D02*
Y195970D01*
X636660Y80970D02*
X641660Y85970D01*
X621660Y80970D02*
X636660D01*
X621660Y200970D02*
X636660D01*
X641660Y195970D01*
X571660Y80970D02*
X591660D01*
X571660Y200970D02*
X591660D01*
X719700Y199700D02*
X734700D01*
X714700Y194700D02*
X719700Y199700D01*
X714700Y84700D02*
Y194700D01*
X719700Y79700D02*
X734700D01*
X714700Y84700D02*
X719700Y79700D01*
X834700Y84700D02*
Y194700D01*
X829700Y79700D02*
X834700Y84700D01*
X814700Y79700D02*
X829700D01*
X814700Y199700D02*
X829700D01*
X834700Y194700D01*
X764700Y79700D02*
X784700D01*
X764700Y199700D02*
X784700D01*
X566420Y45720D02*
X594360D01*
X566420Y30480D02*
X594360D01*
X759460Y46990D02*
X787400D01*
X759460Y31750D02*
X787400D01*
X204470Y257810D02*
X224790D01*
X171450D02*
X191770D01*
X201930Y247650D02*
Y267970D01*
X194310Y247650D02*
Y267970D01*
X398780Y256540D02*
X419100D01*
X365760D02*
X386080D01*
X396240Y246380D02*
Y266700D01*
X388620Y246380D02*
Y266700D01*
X146930Y200970D02*
X161930D01*
X141930Y195970D02*
X146930Y200970D01*
X141930Y85970D02*
Y195970D01*
X146930Y80970D02*
X161930D01*
X141930Y85970D02*
X146930Y80970D01*
X261930Y85970D02*
Y195970D01*
X256930Y80970D02*
X261930Y85970D01*
X241930Y80970D02*
X256930D01*
X241930Y200970D02*
X256930D01*
X261930Y195970D01*
X191930Y80970D02*
X211930D01*
X191930Y200970D02*
X211930D01*
X336160Y202240D02*
X351160D01*
X331160Y197240D02*
X336160Y202240D01*
X331160Y87240D02*
Y197240D01*
X336160Y82240D02*
X351160D01*
X331160Y87240D02*
X336160Y82240D01*
X451160Y87240D02*
Y197240D01*
X446160Y82240D02*
X451160Y87240D01*
X431160Y82240D02*
X446160D01*
X431160Y202240D02*
X446160D01*
X451160Y197240D01*
X381160Y82240D02*
X401160D01*
X381160Y202240D02*
X401160D01*
X199390Y27940D02*
X227330D01*
X199390Y43180D02*
X227330D01*
X374650Y44450D02*
X402590D01*
X374650Y29210D02*
X402590D01*
X859665Y1173302D02*
Y1216838D01*
X728855Y1173302D02*
Y1216838D01*
X618364Y1174572D02*
Y1218108D01*
X925830Y1113790D02*
Y1141730D01*
X941070Y1113790D02*
Y1141730D01*
X796290Y1113790D02*
Y1141730D01*
X811530Y1113790D02*
Y1141730D01*
X684530Y1113790D02*
Y1141730D01*
X699770Y1113790D02*
Y1141730D01*
X629920Y647700D02*
X657860D01*
X629920Y632460D02*
X657860D01*
X275590Y1052830D02*
Y1080770D01*
X260350Y1052830D02*
Y1080770D01*
X273050Y1172210D02*
Y1200150D01*
X257810Y1172210D02*
Y1200150D01*
X631190Y576580D02*
X659130D01*
X631190Y561340D02*
X659130D01*
X257810Y1292860D02*
Y1320800D01*
X273050Y1292860D02*
Y1320800D01*
X631190Y520700D02*
X659130D01*
X631190Y505460D02*
X659130D01*
X16385Y618312D02*
Y661848D01*
X112905Y615772D02*
Y659308D01*
X228475Y618312D02*
Y661848D01*
X59690Y525780D02*
Y553720D01*
X74930Y525780D02*
Y553720D01*
X160020Y523240D02*
Y551180D01*
X175260Y523240D02*
Y551180D01*
X273050Y527050D02*
Y554990D01*
X288290Y527050D02*
Y554990D01*
X45720Y717550D02*
X73660D01*
X45720Y732790D02*
X73660D01*
X633730Y938530D02*
X661670D01*
X633730Y953770D02*
X661670D01*
X158750Y718820D02*
X186690D01*
X158750Y734060D02*
X186690D01*
X735332Y939800D02*
X763272D01*
X735332Y955040D02*
X763272D01*
X274320Y720090D02*
X302260D01*
X274320Y735330D02*
X302260D01*
X838200Y939800D02*
X866140D01*
X838200Y955040D02*
X866140D01*
X1760216Y19476D02*
Y27940D01*
X1753868D01*
X1755984Y23708D01*
Y21592D01*
X1753868Y19476D01*
X1749636D01*
X1747520Y21592D01*
Y25824D01*
X1749636Y27940D01*
X1758100Y15244D02*
X1760216Y13128D01*
Y8896D01*
X1758100Y6780D01*
X1749636D01*
X1747520Y8896D01*
Y13128D01*
X1749636Y15244D01*
X1758100D01*
X1722120Y21592D02*
X1734816D01*
X1728468Y27940D01*
Y19476D01*
X1724236Y15244D02*
X1722120Y13128D01*
Y8896D01*
X1724236Y6780D01*
X1732700D01*
X1734816Y8896D01*
Y13128D01*
X1732700Y15244D01*
X1730584D01*
X1728468Y13128D01*
Y6780D01*
X1722120Y683260D02*
Y679028D01*
Y681144D01*
X1734816D01*
X1732700Y683260D01*
X1747520Y674796D02*
Y683260D01*
X1755984Y674796D01*
X1758100D01*
X1760216Y676912D01*
Y681144D01*
X1758100Y683260D01*
X991866Y20746D02*
Y29210D01*
X985518D01*
X987634Y24978D01*
Y22862D01*
X985518Y20746D01*
X981286D01*
X979170Y22862D01*
Y27094D01*
X981286Y29210D01*
X989750Y16514D02*
X991866Y14398D01*
Y10166D01*
X989750Y8050D01*
X981286D01*
X979170Y10166D01*
Y14398D01*
X981286Y16514D01*
X989750D01*
X953770Y22862D02*
X966466D01*
X960118Y29210D01*
Y20746D01*
X955886Y16514D02*
X953770Y14398D01*
Y10166D01*
X955886Y8050D01*
X964350D01*
X966466Y10166D01*
Y14398D01*
X964350Y16514D01*
X962234D01*
X960118Y14398D01*
Y8050D01*
X953770Y684530D02*
Y680298D01*
Y682414D01*
X966466D01*
X964350Y684530D01*
X979170Y676066D02*
Y684530D01*
X987634Y676066D01*
X989750D01*
X991866Y678182D01*
Y682414D01*
X989750Y684530D01*
D25*
X542284Y638805D02*
X544010Y636869D01*
X545990Y635194D01*
X548185Y633812D01*
X550552Y632750D01*
X553043Y632029D01*
X555611Y631664D01*
X558205Y631661D01*
X560774Y632020D01*
X563267Y632735D01*
X565636Y633792D01*
X567834Y635169D01*
X569818Y636840D01*
X571549Y638772D01*
X571501Y661549D02*
X569776Y663460D01*
X567802Y665114D01*
X565618Y666477D01*
X563266Y667525D01*
X560792Y668236D01*
X558243Y668596D01*
X555668Y668600D01*
X553118Y668247D01*
X550642Y667543D01*
X548287Y666502D01*
X546099Y665145D01*
X544120Y663497D01*
X542390Y661591D01*
X349245Y1120146D02*
X347309Y1118420D01*
X345634Y1116440D01*
X344252Y1114245D01*
X343190Y1111878D01*
X342469Y1109387D01*
X342104Y1106819D01*
X342101Y1104225D01*
X342460Y1101656D01*
X343176Y1099163D01*
X344232Y1096794D01*
X345609Y1094596D01*
X347280Y1092612D01*
X349212Y1090881D01*
X371989Y1090929D02*
X373900Y1092654D01*
X375554Y1094628D01*
X376917Y1096812D01*
X377965Y1099164D01*
X378676Y1101638D01*
X379036Y1104187D01*
X379040Y1106762D01*
X378687Y1109312D01*
X377983Y1111788D01*
X376942Y1114143D01*
X375585Y1116331D01*
X373937Y1118309D01*
X372031Y1120040D01*
X372115Y1158233D02*
X374051Y1159960D01*
X375726Y1161940D01*
X377108Y1164135D01*
X378170Y1166502D01*
X378891Y1168993D01*
X379256Y1171561D01*
X379259Y1174155D01*
X378900Y1176724D01*
X378185Y1179217D01*
X377128Y1181586D01*
X375751Y1183784D01*
X374080Y1185768D01*
X372148Y1187499D01*
X349371Y1187451D02*
X347460Y1185726D01*
X345806Y1183752D01*
X344443Y1181568D01*
X343395Y1179216D01*
X342684Y1176742D01*
X342323Y1174193D01*
X342320Y1171618D01*
X342673Y1169068D01*
X343377Y1166591D01*
X344418Y1164237D01*
X345775Y1162049D01*
X347423Y1160071D01*
X349329Y1158340D01*
X541013Y571495D02*
X542740Y569559D01*
X544720Y567884D01*
X546915Y566502D01*
X549282Y565440D01*
X551773Y564719D01*
X554341Y564354D01*
X556935Y564351D01*
X559504Y564710D01*
X561997Y565425D01*
X564366Y566482D01*
X566564Y567859D01*
X568548Y569530D01*
X570279Y571462D01*
X570231Y594239D02*
X568506Y596150D01*
X566532Y597804D01*
X564348Y599167D01*
X561996Y600215D01*
X559522Y600926D01*
X556973Y601287D01*
X554398Y601290D01*
X551848Y600937D01*
X549371Y600233D01*
X547017Y599192D01*
X544829Y597835D01*
X542850Y596187D01*
X541120Y594281D01*
X369575Y1239513D02*
X371511Y1241240D01*
X373186Y1243220D01*
X374568Y1245415D01*
X375630Y1247782D01*
X376351Y1250273D01*
X376716Y1252841D01*
X376719Y1255435D01*
X376360Y1258004D01*
X375644Y1260497D01*
X374588Y1262866D01*
X373211Y1265064D01*
X371540Y1267048D01*
X369608Y1268779D01*
X346831Y1268731D02*
X344920Y1267006D01*
X343266Y1265032D01*
X341903Y1262848D01*
X340855Y1260496D01*
X340144Y1258022D01*
X339784Y1255473D01*
X339780Y1252898D01*
X340133Y1250348D01*
X340837Y1247871D01*
X341878Y1245517D01*
X343235Y1243329D01*
X344883Y1241351D01*
X346789Y1239620D01*
X68573Y759455D02*
X70300Y757519D01*
X72280Y755844D01*
X74475Y754462D01*
X76842Y753400D01*
X79333Y752679D01*
X81901Y752314D01*
X84495Y752311D01*
X87064Y752670D01*
X89557Y753385D01*
X91926Y754442D01*
X94124Y755819D01*
X96108Y757490D01*
X97839Y759422D01*
X97791Y782199D02*
X96066Y784110D01*
X94092Y785764D01*
X91908Y787127D01*
X89556Y788175D01*
X87082Y788886D01*
X84533Y789247D01*
X81958Y789250D01*
X79408Y788897D01*
X76932Y788193D01*
X74577Y787152D01*
X72389Y785795D01*
X70410Y784147D01*
X68680Y782241D01*
X655313Y986785D02*
X657040Y984849D01*
X659020Y983174D01*
X661215Y981792D01*
X663582Y980730D01*
X666073Y980009D01*
X668641Y979644D01*
X671235Y979641D01*
X673804Y980000D01*
X676297Y980715D01*
X678666Y981772D01*
X680864Y983149D01*
X682848Y984820D01*
X684579Y986752D01*
X684531Y1009529D02*
X682806Y1011440D01*
X680832Y1013094D01*
X678648Y1014457D01*
X676296Y1015505D01*
X673822Y1016216D01*
X671273Y1016577D01*
X668698Y1016580D01*
X666148Y1016227D01*
X663671Y1015523D01*
X661317Y1014482D01*
X659129Y1013125D01*
X657150Y1011477D01*
X655420Y1009571D01*
X184144Y760725D02*
X185870Y758789D01*
X187850Y757114D01*
X190045Y755732D01*
X192412Y754670D01*
X194903Y753949D01*
X197471Y753584D01*
X200065Y753581D01*
X202634Y753940D01*
X205127Y754656D01*
X207496Y755712D01*
X209694Y757089D01*
X211678Y758760D01*
X213409Y760692D01*
X213361Y783469D02*
X211636Y785380D01*
X209662Y787034D01*
X207478Y788397D01*
X205126Y789445D01*
X202652Y790156D01*
X200103Y790517D01*
X197528Y790520D01*
X194978Y790167D01*
X192502Y789463D01*
X190147Y788422D01*
X187959Y787065D01*
X185980Y785417D01*
X184250Y783511D01*
X759454Y985515D02*
X761180Y983579D01*
X763160Y981904D01*
X765355Y980522D01*
X767722Y979460D01*
X770213Y978739D01*
X772781Y978374D01*
X775375Y978371D01*
X777944Y978730D01*
X780437Y979445D01*
X782806Y980502D01*
X785004Y981879D01*
X786988Y983550D01*
X788719Y985482D01*
X788671Y1008259D02*
X786946Y1010170D01*
X784972Y1011824D01*
X782788Y1013187D01*
X780436Y1014235D01*
X777962Y1014946D01*
X775413Y1015306D01*
X772838Y1015310D01*
X770288Y1014957D01*
X767812Y1014253D01*
X765457Y1013212D01*
X763269Y1011855D01*
X761291Y1010207D01*
X759560Y1008301D01*
X292094Y760725D02*
X293820Y758789D01*
X295800Y757114D01*
X297995Y755732D01*
X300362Y754670D01*
X302853Y753949D01*
X305421Y753584D01*
X308015Y753581D01*
X310584Y753940D01*
X313077Y754656D01*
X315446Y755712D01*
X317644Y757089D01*
X319628Y758760D01*
X321359Y760692D01*
X321311Y783469D02*
X319586Y785380D01*
X317612Y787034D01*
X315428Y788397D01*
X313076Y789445D01*
X310602Y790156D01*
X308053Y790517D01*
X305478Y790520D01*
X302928Y790167D01*
X300452Y789463D01*
X298097Y788422D01*
X295909Y787065D01*
X293930Y785417D01*
X292200Y783511D01*
X858513Y986785D02*
X860240Y984849D01*
X862220Y983174D01*
X864415Y981792D01*
X866782Y980730D01*
X869273Y980009D01*
X871841Y979644D01*
X874435Y979641D01*
X877004Y980000D01*
X879497Y980715D01*
X881866Y981772D01*
X884064Y983149D01*
X886048Y984820D01*
X887779Y986752D01*
X887731Y1009529D02*
X886006Y1011440D01*
X884032Y1013094D01*
X881848Y1014457D01*
X879496Y1015505D01*
X877022Y1016216D01*
X874473Y1016577D01*
X871898Y1016580D01*
X869348Y1016227D01*
X866871Y1015523D01*
X864517Y1014482D01*
X862329Y1013125D01*
X860350Y1011477D01*
X858620Y1009571D01*
X541013Y504185D02*
X542740Y502249D01*
X544720Y500574D01*
X546915Y499192D01*
X549282Y498130D01*
X551773Y497409D01*
X554341Y497044D01*
X556935Y497041D01*
X559504Y497400D01*
X561997Y498116D01*
X564366Y499172D01*
X566564Y500549D01*
X568548Y502220D01*
X570279Y504152D01*
X570231Y526929D02*
X568506Y528840D01*
X566532Y530494D01*
X564348Y531857D01*
X561996Y532905D01*
X559522Y533616D01*
X556973Y533977D01*
X554398Y533980D01*
X551848Y533627D01*
X549371Y532923D01*
X547017Y531882D01*
X544829Y530525D01*
X542850Y528877D01*
X541120Y526971D01*
X349250Y421640D02*
Y673100D01*
X320040Y702310D02*
X349250Y673100D01*
X10160Y702310D02*
X320040D01*
X330200Y1056640D02*
Y1367790D01*
X297180Y1023620D02*
X330200Y1056640D01*
X16510Y1023620D02*
X297180D01*
X626110Y1022350D02*
X943610D01*
X590550Y1057910D02*
X626110Y1022350D01*
X590550Y1057910D02*
Y1366520D01*
X618490Y702310D02*
X937260D01*
X589280Y673100D02*
X618490Y702310D01*
X589280Y419100D02*
Y673100D01*
X163319Y290064D02*
X160779Y292603D01*
X155701D01*
X153162Y290064D01*
Y279907D01*
X155701Y277368D01*
X160779D01*
X163319Y279907D01*
X168397Y277368D02*
X173475D01*
X170936D01*
Y292603D01*
X168397Y290064D01*
X357883Y288794D02*
X355344Y291333D01*
X350265D01*
X347726Y288794D01*
Y278637D01*
X350265Y276098D01*
X355344D01*
X357883Y278637D01*
X373118Y276098D02*
X362961D01*
X373118Y286255D01*
Y288794D01*
X370579Y291333D01*
X365500D01*
X362961Y288794D01*
X548383Y287648D02*
X545844Y290187D01*
X540765D01*
X538226Y287648D01*
Y277492D01*
X540765Y274953D01*
X545844D01*
X548383Y277492D01*
X553461Y287648D02*
X556000Y290187D01*
X561079D01*
X563618Y287648D01*
Y285109D01*
X561079Y282570D01*
X558539D01*
X561079D01*
X563618Y280031D01*
Y277492D01*
X561079Y274953D01*
X556000D01*
X553461Y277492D01*
X740153Y290064D02*
X737614Y292603D01*
X732535D01*
X729996Y290064D01*
Y279907D01*
X732535Y277368D01*
X737614D01*
X740153Y279907D01*
X752849Y277368D02*
Y292603D01*
X745231Y284986D01*
X755388D01*
X64516Y813303D02*
Y798068D01*
X72133D01*
X74673Y800607D01*
Y810764D01*
X72133Y813303D01*
X64516D01*
X79751Y798068D02*
X84829D01*
X82290D01*
Y813303D01*
X79751Y810764D01*
X651002Y1040633D02*
Y1025398D01*
X658620D01*
X661159Y1027937D01*
Y1038094D01*
X658620Y1040633D01*
X651002D01*
X676394Y1025398D02*
X666237D01*
X676394Y1035555D01*
Y1038094D01*
X673855Y1040633D01*
X668776D01*
X666237Y1038094D01*
X179959Y814700D02*
Y799465D01*
X187577D01*
X190116Y802004D01*
Y812161D01*
X187577Y814700D01*
X179959D01*
X195194Y812161D02*
X197733Y814700D01*
X202812D01*
X205351Y812161D01*
Y809622D01*
X202812Y807083D01*
X200272D01*
X202812D01*
X205351Y804543D01*
Y802004D01*
X202812Y799465D01*
X197733D01*
X195194Y802004D01*
X755142Y1039363D02*
Y1024128D01*
X762759D01*
X765299Y1026667D01*
Y1036824D01*
X762759Y1039363D01*
X755142D01*
X777995Y1024128D02*
Y1039363D01*
X770377Y1031746D01*
X780534D01*
X287909Y814700D02*
Y799465D01*
X295527D01*
X298066Y802004D01*
Y812161D01*
X295527Y814700D01*
X287909D01*
X313301D02*
X303144D01*
Y807083D01*
X308222Y809622D01*
X310762D01*
X313301Y807083D01*
Y802004D01*
X310762Y799465D01*
X305683D01*
X303144Y802004D01*
X854329Y1040760D02*
Y1025525D01*
X861946D01*
X864486Y1028064D01*
Y1038221D01*
X861946Y1040760D01*
X854329D01*
X879721D02*
X874642Y1038221D01*
X869564Y1033142D01*
Y1028064D01*
X872103Y1025525D01*
X877182D01*
X879721Y1028064D01*
Y1030603D01*
X877182Y1033142D01*
X869564D01*
X538099Y692780D02*
Y677545D01*
X545717D01*
X548256Y680084D01*
Y690241D01*
X545717Y692780D01*
X538099D01*
X553334D02*
X563491D01*
Y690241D01*
X553334Y680084D01*
Y677545D01*
X343408Y1149853D02*
Y1134618D01*
X351026D01*
X353565Y1137157D01*
Y1147314D01*
X351026Y1149853D01*
X343408D01*
X358643Y1147314D02*
X361182Y1149853D01*
X366261D01*
X368800Y1147314D01*
Y1144775D01*
X366261Y1142235D01*
X368800Y1139696D01*
Y1137157D01*
X366261Y1134618D01*
X361182D01*
X358643Y1137157D01*
Y1139696D01*
X361182Y1142235D01*
X358643Y1144775D01*
Y1147314D01*
X361182Y1142235D02*
X366261D01*
X343662Y1218433D02*
Y1203198D01*
X351279D01*
X353819Y1205737D01*
Y1215894D01*
X351279Y1218433D01*
X343662D01*
X358897Y1205737D02*
X361436Y1203198D01*
X366515D01*
X369054Y1205737D01*
Y1215894D01*
X366515Y1218433D01*
X361436D01*
X358897Y1215894D01*
Y1213355D01*
X361436Y1210816D01*
X369054D01*
X536829Y625470D02*
Y610235D01*
X544446D01*
X546986Y612774D01*
Y622931D01*
X544446Y625470D01*
X536829D01*
X552064Y610235D02*
X557142D01*
X554603D01*
Y625470D01*
X552064Y622931D01*
X564760D02*
X567299Y625470D01*
X572378D01*
X574917Y622931D01*
Y612774D01*
X572378Y610235D01*
X567299D01*
X564760Y612774D01*
Y622931D01*
X341122Y1299459D02*
Y1284224D01*
X348740D01*
X351279Y1286763D01*
Y1296920D01*
X348740Y1299459D01*
X341122D01*
X356357Y1284224D02*
X361435D01*
X358896D01*
Y1299459D01*
X356357Y1296920D01*
X369053Y1284224D02*
X374131D01*
X371592D01*
Y1299459D01*
X369053Y1296920D01*
X536956Y558033D02*
Y542798D01*
X544574D01*
X547113Y545337D01*
Y555494D01*
X544574Y558033D01*
X536956D01*
X552191Y542798D02*
X557269D01*
X554730D01*
Y558033D01*
X552191Y555494D01*
X575044Y542798D02*
X564887D01*
X575044Y552955D01*
Y555494D01*
X572505Y558033D01*
X567426D01*
X564887Y555494D01*
X1220470Y1148075D02*
Y1132840D01*
Y1140458D01*
X1230627D01*
Y1148075D01*
Y1132840D01*
X1245862Y1145536D02*
X1243323Y1148075D01*
X1238244D01*
X1235705Y1145536D01*
Y1135379D01*
X1238244Y1132840D01*
X1243323D01*
X1245862Y1135379D01*
X1250940Y1132840D02*
X1256019D01*
X1253479D01*
Y1148075D01*
X1250940Y1145536D01*
X947674Y694182D02*
Y709417D01*
X955292D01*
X957831Y706878D01*
Y701799D01*
X955292Y699260D01*
X947674D01*
X962909Y694182D02*
X967987D01*
X965448D01*
Y709417D01*
X962909Y706878D01*
X1716024Y692912D02*
Y708147D01*
X1723642D01*
X1726181Y705608D01*
Y700529D01*
X1723642Y697990D01*
X1716024D01*
X1741416Y692912D02*
X1731259D01*
X1741416Y703069D01*
Y705608D01*
X1738877Y708147D01*
X1733798D01*
X1731259Y705608D01*
X28191Y684275D02*
Y694432D01*
X25652Y696971D01*
X20573D01*
X18034Y694432D01*
Y684275D01*
X20573Y681736D01*
X25652D01*
X23112Y686814D02*
X28191Y681736D01*
X25652D02*
X28191Y684275D01*
X33269Y681736D02*
X38347D01*
X35808D01*
Y696971D01*
X33269Y694432D01*
X124711Y681735D02*
Y691892D01*
X122171Y694431D01*
X117093D01*
X114554Y691892D01*
Y681735D01*
X117093Y679196D01*
X122171D01*
X119632Y684274D02*
X124711Y679196D01*
X122171D02*
X124711Y681735D01*
X139946Y679196D02*
X129789D01*
X139946Y689353D01*
Y691892D01*
X137407Y694431D01*
X132328D01*
X129789Y691892D01*
X240281Y684275D02*
Y694432D01*
X237742Y696971D01*
X232663D01*
X230124Y694432D01*
Y684275D01*
X232663Y681736D01*
X237742D01*
X235202Y686814D02*
X240281Y681736D01*
X237742D02*
X240281Y684275D01*
X245359Y694432D02*
X247898Y696971D01*
X252977D01*
X255516Y694432D01*
Y691893D01*
X252977Y689353D01*
X250437D01*
X252977D01*
X255516Y686814D01*
Y684275D01*
X252977Y681736D01*
X247898D01*
X245359Y684275D01*
X871471Y1239265D02*
Y1249422D01*
X868932Y1251961D01*
X863853D01*
X861314Y1249422D01*
Y1239265D01*
X863853Y1236726D01*
X868932D01*
X866392Y1241804D02*
X871471Y1236726D01*
X868932D02*
X871471Y1239265D01*
X884167Y1236726D02*
Y1251961D01*
X876549Y1244343D01*
X886706D01*
X740661Y1239265D02*
Y1249422D01*
X738121Y1251961D01*
X733043D01*
X730504Y1249422D01*
Y1239265D01*
X733043Y1236726D01*
X738121D01*
X735582Y1241804D02*
X740661Y1236726D01*
X738121D02*
X740661Y1239265D01*
X755896Y1251961D02*
X745739D01*
Y1244343D01*
X750817Y1246883D01*
X753357D01*
X755896Y1244343D01*
Y1239265D01*
X753357Y1236726D01*
X748278D01*
X745739Y1239265D01*
X630171Y1240535D02*
Y1250692D01*
X627631Y1253231D01*
X622553D01*
X620014Y1250692D01*
Y1240535D01*
X622553Y1237996D01*
X627631D01*
X625092Y1243074D02*
X630171Y1237996D01*
X627631D02*
X630171Y1240535D01*
X645406Y1253231D02*
X640327Y1250692D01*
X635249Y1245613D01*
Y1240535D01*
X637788Y1237996D01*
X642867D01*
X645406Y1240535D01*
Y1243074D01*
X642867Y1245613D01*
X635249D01*
X168910Y55118D02*
Y70353D01*
X176528D01*
X179067Y67814D01*
Y62736D01*
X176528Y60196D01*
X168910D01*
X173988D02*
X179067Y55118D01*
X184145D02*
X189223D01*
X186684D01*
Y70353D01*
X184145Y67814D01*
X344170Y56388D02*
Y71623D01*
X351787D01*
X354327Y69084D01*
Y64005D01*
X351787Y61466D01*
X344170D01*
X349248D02*
X354327Y56388D01*
X369562D02*
X359405D01*
X369562Y66545D01*
Y69084D01*
X367023Y71623D01*
X361944D01*
X359405Y69084D01*
X535940Y57658D02*
Y72893D01*
X543558D01*
X546097Y70354D01*
Y65276D01*
X543558Y62736D01*
X535940D01*
X541018D02*
X546097Y57658D01*
X551175Y70354D02*
X553714Y72893D01*
X558793D01*
X561332Y70354D01*
Y67815D01*
X558793Y65276D01*
X556253D01*
X558793D01*
X561332Y62736D01*
Y60197D01*
X558793Y57658D01*
X553714D01*
X551175Y60197D01*
X728980Y58928D02*
Y74163D01*
X736598D01*
X739137Y71624D01*
Y66546D01*
X736598Y64006D01*
X728980D01*
X734058D02*
X739137Y58928D01*
X751833D02*
Y74163D01*
X744215Y66546D01*
X754372D01*
X15240Y744728D02*
Y759963D01*
X22857D01*
X25397Y757424D01*
Y752346D01*
X22857Y749806D01*
X15240D01*
X20318D02*
X25397Y744728D01*
X40632Y759963D02*
X30475D01*
Y752346D01*
X35553Y754885D01*
X38093D01*
X40632Y752346D01*
Y747267D01*
X38093Y744728D01*
X33014D01*
X30475Y747267D01*
X603250Y965708D02*
Y980943D01*
X610868D01*
X613407Y978404D01*
Y973326D01*
X610868Y970786D01*
X603250D01*
X608328D02*
X613407Y965708D01*
X628642Y980943D02*
X623563Y978404D01*
X618485Y973326D01*
Y968247D01*
X621024Y965708D01*
X626103D01*
X628642Y968247D01*
Y970786D01*
X626103Y973326D01*
X618485D01*
X128174Y745998D02*
Y761233D01*
X135791D01*
X138330Y758694D01*
Y753615D01*
X135791Y751076D01*
X128174D01*
X133252D02*
X138330Y745998D01*
X143409Y761233D02*
X153565D01*
Y758694D01*
X143409Y748537D01*
Y745998D01*
X704850Y966978D02*
Y982213D01*
X712467D01*
X715007Y979674D01*
Y974595D01*
X712467Y972056D01*
X704850D01*
X709928D02*
X715007Y966978D01*
X720085Y979674D02*
X722624Y982213D01*
X727703D01*
X730242Y979674D01*
Y977135D01*
X727703Y974595D01*
X730242Y972056D01*
Y969517D01*
X727703Y966978D01*
X722624D01*
X720085Y969517D01*
Y972056D01*
X722624Y974595D01*
X720085Y977135D01*
Y979674D01*
X722624Y974595D02*
X727703D01*
X243840Y747268D02*
Y762503D01*
X251458D01*
X253997Y759964D01*
Y754885D01*
X251458Y752346D01*
X243840D01*
X248918D02*
X253997Y747268D01*
X259075Y749807D02*
X261614Y747268D01*
X266693D01*
X269232Y749807D01*
Y759964D01*
X266693Y762503D01*
X261614D01*
X259075Y759964D01*
Y757425D01*
X261614Y754885D01*
X269232D01*
X807720Y966978D02*
Y982213D01*
X815338D01*
X817877Y979674D01*
Y974595D01*
X815338Y972056D01*
X807720D01*
X812798D02*
X817877Y966978D01*
X822955D02*
X828033D01*
X825494D01*
Y982213D01*
X822955Y979674D01*
X835651D02*
X838190Y982213D01*
X843269D01*
X845808Y979674D01*
Y969517D01*
X843269Y966978D01*
X838190D01*
X835651Y969517D01*
Y979674D01*
X57912Y594360D02*
Y609595D01*
X65529D01*
X68069Y607056D01*
Y601978D01*
X65529Y599438D01*
X57912D01*
X62990D02*
X68069Y594360D01*
X73147D02*
X78225D01*
X75686D01*
Y609595D01*
X73147Y607056D01*
X85843Y594360D02*
X90921D01*
X88382D01*
Y609595D01*
X85843Y607056D01*
X158242Y591820D02*
Y607055D01*
X165860D01*
X168399Y604516D01*
Y599437D01*
X165860Y596898D01*
X158242D01*
X163320D02*
X168399Y591820D01*
X173477D02*
X178555D01*
X176016D01*
Y607055D01*
X173477Y604516D01*
X196330Y591820D02*
X186173D01*
X196330Y601977D01*
Y604516D01*
X193790Y607055D01*
X188712D01*
X186173Y604516D01*
X271272Y595630D02*
Y610865D01*
X278890D01*
X281429Y608326D01*
Y603247D01*
X278890Y600708D01*
X271272D01*
X276350D02*
X281429Y595630D01*
X286507D02*
X291585D01*
X289046D01*
Y610865D01*
X286507Y608326D01*
X299203D02*
X301742Y610865D01*
X306821D01*
X309360Y608326D01*
Y605787D01*
X306821Y603247D01*
X304281D01*
X306821D01*
X309360Y600708D01*
Y598169D01*
X306821Y595630D01*
X301742D01*
X299203Y598169D01*
X599440Y659796D02*
Y675031D01*
X607057D01*
X609597Y672492D01*
Y667413D01*
X607057Y664874D01*
X599440D01*
X604518D02*
X609597Y659796D01*
X614675D02*
X619753D01*
X617214D01*
Y675031D01*
X614675Y672492D01*
X627371Y675031D02*
X637528D01*
Y672492D01*
X627371Y662335D01*
Y659796D01*
X258445Y1121283D02*
Y1136518D01*
X266063D01*
X268602Y1133979D01*
Y1128901D01*
X266063Y1126361D01*
X258445D01*
X263523D02*
X268602Y1121283D01*
X273680D02*
X278758D01*
X276219D01*
Y1136518D01*
X273680Y1133979D01*
X286376D02*
X288915Y1136518D01*
X293993D01*
X296533Y1133979D01*
Y1131440D01*
X293993Y1128901D01*
X296533Y1126361D01*
Y1123822D01*
X293993Y1121283D01*
X288915D01*
X286376Y1123822D01*
Y1126361D01*
X288915Y1128901D01*
X286376Y1131440D01*
Y1133979D01*
X288915Y1128901D02*
X293993D01*
X256032Y1240790D02*
Y1256025D01*
X263650D01*
X266189Y1253486D01*
Y1248408D01*
X263650Y1245868D01*
X256032D01*
X261110D02*
X266189Y1240790D01*
X271267D02*
X276345D01*
X273806D01*
Y1256025D01*
X271267Y1253486D01*
X283963Y1243329D02*
X286502Y1240790D01*
X291581D01*
X294120Y1243329D01*
Y1253486D01*
X291581Y1256025D01*
X286502D01*
X283963Y1253486D01*
Y1250947D01*
X286502Y1248408D01*
X294120D01*
X600646Y588518D02*
Y603753D01*
X608264D01*
X610803Y601214D01*
Y596135D01*
X608264Y593596D01*
X600646D01*
X605725D02*
X610803Y588518D01*
X626038D02*
X615881D01*
X626038Y598675D01*
Y601214D01*
X623499Y603753D01*
X618421D01*
X615881Y601214D01*
X631116D02*
X633656Y603753D01*
X638734D01*
X641273Y601214D01*
Y591057D01*
X638734Y588518D01*
X633656D01*
X631116Y591057D01*
Y601214D01*
X256032Y1361440D02*
Y1376675D01*
X263650D01*
X266189Y1374136D01*
Y1369057D01*
X263650Y1366518D01*
X256032D01*
X261110D02*
X266189Y1361440D01*
X281424D02*
X271267D01*
X281424Y1371597D01*
Y1374136D01*
X278885Y1376675D01*
X273806D01*
X271267Y1374136D01*
X286502Y1361440D02*
X291581D01*
X289041D01*
Y1376675D01*
X286502Y1374136D01*
X600710Y532638D02*
Y547873D01*
X608327D01*
X610867Y545334D01*
Y540256D01*
X608327Y537716D01*
X600710D01*
X605788D02*
X610867Y532638D01*
X626102D02*
X615945D01*
X626102Y542795D01*
Y545334D01*
X623563Y547873D01*
X618484D01*
X615945Y545334D01*
X641337Y532638D02*
X631180D01*
X641337Y542795D01*
Y545334D01*
X638798Y547873D01*
X633719D01*
X631180Y545334D01*
X924052Y1182370D02*
Y1197605D01*
X931669D01*
X934209Y1195066D01*
Y1189987D01*
X931669Y1187448D01*
X924052D01*
X929130D02*
X934209Y1182370D01*
X949444D02*
X939287D01*
X949444Y1192527D01*
Y1195066D01*
X946905Y1197605D01*
X941826D01*
X939287Y1195066D01*
X954522D02*
X957061Y1197605D01*
X962140D01*
X964679Y1195066D01*
Y1192527D01*
X962140Y1189987D01*
X959601D01*
X962140D01*
X964679Y1187448D01*
Y1184909D01*
X962140Y1182370D01*
X957061D01*
X954522Y1184909D01*
X794512Y1182370D02*
Y1197605D01*
X802130D01*
X804669Y1195066D01*
Y1189987D01*
X802130Y1187448D01*
X794512D01*
X799590D02*
X804669Y1182370D01*
X819904D02*
X809747D01*
X819904Y1192527D01*
Y1195066D01*
X817365Y1197605D01*
X812286D01*
X809747Y1195066D01*
X832600Y1182370D02*
Y1197605D01*
X824982Y1189987D01*
X835139D01*
X682752Y1182370D02*
Y1197605D01*
X690369D01*
X692909Y1195066D01*
Y1189987D01*
X690369Y1187448D01*
X682752D01*
X687830D02*
X692909Y1182370D01*
X708144D02*
X697987D01*
X708144Y1192527D01*
Y1195066D01*
X705605Y1197605D01*
X700526D01*
X697987Y1195066D01*
X723379Y1197605D02*
X713222D01*
Y1189987D01*
X718300Y1192527D01*
X720840D01*
X723379Y1189987D01*
Y1184909D01*
X720840Y1182370D01*
X715761D01*
X713222Y1184909D01*
X153540Y236089D02*
X151000Y238628D01*
X145922D01*
X143383Y236089D01*
Y233550D01*
X145922Y231010D01*
X151000D01*
X153540Y228471D01*
Y225932D01*
X151000Y223393D01*
X145922D01*
X143383Y225932D01*
X158618Y238628D02*
Y223393D01*
X163696Y228471D01*
X168775Y223393D01*
Y238628D01*
X173853Y223393D02*
X178932D01*
X176392D01*
Y238628D01*
X173853Y236089D01*
X342770Y237359D02*
X340230Y239898D01*
X335152D01*
X332613Y237359D01*
Y234820D01*
X335152Y232281D01*
X340230D01*
X342770Y229741D01*
Y227202D01*
X340230Y224663D01*
X335152D01*
X332613Y227202D01*
X347848Y239898D02*
Y224663D01*
X352926Y229741D01*
X358005Y224663D01*
Y239898D01*
X373240Y224663D02*
X363083D01*
X373240Y234820D01*
Y237359D01*
X370701Y239898D01*
X365622D01*
X363083Y237359D01*
X533270Y236089D02*
X530731Y238628D01*
X525652D01*
X523113Y236089D01*
Y233550D01*
X525652Y231010D01*
X530731D01*
X533270Y228471D01*
Y225932D01*
X530731Y223393D01*
X525652D01*
X523113Y225932D01*
X538348Y238628D02*
Y223393D01*
X543426Y228471D01*
X548505Y223393D01*
Y238628D01*
X553583Y236089D02*
X556122Y238628D01*
X561201D01*
X563740Y236089D01*
Y233550D01*
X561201Y231010D01*
X558661D01*
X561201D01*
X563740Y228471D01*
Y225932D01*
X561201Y223393D01*
X556122D01*
X553583Y225932D01*
X726310Y234819D02*
X723771Y237358D01*
X718692D01*
X716153Y234819D01*
Y232280D01*
X718692Y229741D01*
X723771D01*
X726310Y227201D01*
Y224662D01*
X723771Y222123D01*
X718692D01*
X716153Y224662D01*
X731388Y237358D02*
Y222123D01*
X736466Y227201D01*
X741545Y222123D01*
Y237358D01*
X754241Y222123D02*
Y237358D01*
X746623Y229741D01*
X756780D01*
X1003026Y1019182D02*
X1013182D01*
X1008104D01*
Y1003947D01*
X1018261Y1019182D02*
Y1003947D01*
X1025878D01*
X1028417Y1006486D01*
Y1009025D01*
X1025878Y1011564D01*
X1018261D01*
X1025878D01*
X1028417Y1014104D01*
Y1016643D01*
X1025878Y1019182D01*
X1018261D01*
X1033496Y1003947D02*
X1038574D01*
X1036035D01*
Y1019182D01*
X1033496Y1016643D01*
D26*
X1006492Y657320D02*
X1005111Y659222D01*
X1002875Y658496D01*
Y656144D01*
X1005111Y655418D01*
X1006492Y657320D01*
D27*
X1218870Y1104214D02*
X1381608D01*
X1218870Y1070610D02*
X1381608D01*
Y1104214D01*
X1218870Y1070610D02*
Y1104214D01*
X1714500Y35560D02*
Y670560D01*
X1765300Y35560D02*
Y670560D01*
X1714500D02*
X1765300D01*
X1714500Y35560D02*
X1765300D01*
X946150Y36830D02*
Y671830D01*
X996950Y36830D02*
Y671830D01*
X946150D02*
X996950D01*
X946150Y36830D02*
X996950D01*
D28*
X1018593Y23520D02*
X1678593D01*
X1018593Y993520D02*
X1678593D01*
Y23520D02*
Y993520D01*
X1018593Y23520D02*
Y993520D01*
X12700Y862330D02*
X340360D01*
X588010D02*
X946150D01*
X463550Y1033780D02*
Y1369060D01*
X468630Y417830D02*
Y695960D01*
M02*
