M48
;Layer_Color=9474304
;FILE_FORMAT=4:4
METRIC,LZ
;TYPE=PLATED
T1F00S00C0.5080
T2F00S00C0.7874
T3F00S00C0.9000
T4F00S00C0.9652
T5F00S00C0.9906
T6F00S00C1.0000
T7F00S00C1.2000
T8F00S00C2.0000
%
T01
X00324866Y00547116
X01450594Y0072136
T02
X0043053Y0025654
X0054483Y0025527
X0062103
X007366Y0025781
X008128
X0035433Y0025654
X0023622Y0025781
X0016002
X0012827Y0061214
Y0063754
Y0066294
X0003175Y0066548
Y0064008
Y0061468
X0024384
Y0064008
Y0066548
X0087503Y0116967
Y0119507
Y0122047
X0074422
Y0119507
Y0116967
X0063373Y0117094
Y0119634
Y0122174
T03
X0095885Y0004953
X0098425
Y0007493
X0095885
Y0010033
X0098425
X017272Y0009906
Y0007366
Y0004826
X017526
Y0007366
Y0009906
Y0012446
X017272
Y0014986
X017526
Y0017526
X017272
Y0020066
X017526
Y0022606
X017272
Y0025146
X017526
Y0027686
X017272
Y0030226
X017526
Y0032766
X017272
Y0035306
X017526
Y0037846
X017272
Y0040386
X017526
Y0042926
X017272
Y0045466
X017526
Y0048006
X017272
Y0050546
X017526
X0098425Y0050673
Y0048133
Y0045593
Y0043053
Y0040513
Y0037973
Y0035433
Y0032893
Y0030353
Y0027813
Y0025273
Y0022733
Y0020193
Y0017653
Y0015113
Y0012573
X0095885
Y0015113
Y0017653
Y0020193
Y0022733
Y0025273
Y0027813
Y0030353
Y0032893
Y0035433
Y0037973
Y0040513
Y0043053
Y0045593
Y0048133
Y0050673
Y0053213
X0098425
Y0055753
X0095885
Y0058293
X0098425
Y0060833
X0095885
Y0063373
X0098425
Y0065913
X0095885
X017272Y0065786
Y0063246
Y0060706
Y0058166
Y0055626
Y0053086
X017526
Y0055626
Y0058166
Y0060706
Y0063246
Y0065786
X0136398Y0108966
X0133858
X0131318
X0128778
X0126238
X0123698
T04
X0017526Y0003556
X0025146
X0035052Y0003683
X0042672
X0054229Y000381
X0061849
X0073533Y0003937
X0081153
X0068326Y0051308
X0060706
X0028067Y0050292
X0016764Y0049911
X0006731Y0050165
X0002159Y0072517
X0009779
X0013462Y0072644
X0021082
X0025019Y0072771
X0032639
X0028067Y0057912
X0016764Y0057531
X0006731Y0057785
X0060706Y0056896
X0060579Y0064008
X0068199
X0068326Y0056896
X0089027Y0094742
X0093345Y0108966
Y0116586
X0080391
Y0108966
X0069215
Y0116586
X006858Y0094615
X00711202Y0094742
X00787402
X0081407
X006096Y0094615
X0026797Y010287
Y011049
X0026543Y0114808
Y0122428
Y0126873
Y0134493
T05
X0054356Y0051562
X0056896
X0032004Y0077216
X0029464
X0021209
X0018669
X0009652Y0077089
X0007112
X0054483Y0065024
X0057023
X0056896Y0058293
X0054356
X0086106Y0099822
X0088646
X007874Y0099695
X00762
X0068326Y0099822
X0065786
X0036068Y010922
Y011176
Y0116078
Y0118618
X0035814Y0124206
Y0126746
T06
X01081893Y0004572
X01107293
Y0007112
X01081893
Y0009652
X01107293
X01589893
Y0007112
Y0004572
X01615293
Y0007112
Y0009652
Y0012192
Y0014732
Y0017272
Y0019812
Y0022352
Y0024892
Y0027432
Y0029972
Y0032512
Y0035052
Y0037592
Y0040132
Y0042672
Y0045212
Y0047752
Y0050292
X01589893
Y0047752
Y0045212
Y0042672
Y0040132
Y0037592
Y0035052
Y0032512
Y0029972
Y0027432
Y0024892
Y0022352
Y0019812
Y0017272
Y0014732
Y0012192
X01107293
X01081893
Y0014732
X01107293
Y0017272
X01081893
Y0019812
X01107293
Y0022352
X01081893
Y0024892
X01107293
Y0027432
X01081893
Y0029972
X01107293
Y0032512
X01081893
Y0035052
X01107293
Y0037592
X01081893
Y0040132
X01107293
Y0042672
X01081893
Y0045212
X01107293
Y0047752
X01081893
Y0050292
X01107293
Y0052832
X01081893
Y0055372
X01107293
Y0057912
X01081893
Y0060452
X01107293
Y0062992
X01081893
Y0065532
X01107293
X01589893
Y0062992
Y0060452
Y0057912
Y0055372
Y0052832
X01615293
Y0055372
Y0057912
Y0060452
Y0062992
Y0065532
T07
X0017653Y0007747
X0022733
X0036576Y0007874
X0041656
X0055626Y0007747
X0060706
X007493Y000762
X008001
Y002032
X007493
X0060706Y0020447
X0055626
X0041656Y0020574
X0036576
X0022733Y0020447
X0017653
T08
X0081915Y001397
X0073025
X0062611Y0014097
X0053721
X0043561Y0014224
X0034671
X0024638Y0014097
X0015748
M30
